{
.appVersion = "942";
DisplayStrings = (
/integral
);
copyright = "Digitized data copyright © 2012-2015, The Mozilla Foundation and Telefonica S.A.";
customParameters = (
{
name = license;
value = "Licensed under the Open Font License, version 1.1 or later";
},
{
name = licenseURL;
value = "http://scripts.sil.org/OFL";
},
{
name = vendorID;
value = CTDB;
},
{
name = panose;
value = (
2,
11,
8,
9,
5,
0,
0,
2,
0,
4
);
},
{
name = unicodeRanges;
value = (
0,
1,
2,
7,
9,
30,
32,
43,
44,
45,
57
);
},
{
name = codePageRanges;
value = (
1252,
1250,
1251,
1253,
1254,
1257
);
},
{
name = "Family Alignment Zones";
value = (
"{739, 14}",
"{689, 14}",
"{527, 14}",
"{0, -14}",
"{-202, -14}"
);
},
{
name = glyphOrder;
value = (
.notdef,
space,
A,
Aacute,
Abreve,
Acircumflex,
Adieresis,
Agrave,
Amacron,
Aogonek,
Aring,
Atilde,
AE,
AEacute,
B,
C,
Cacute,
Ccaron,
Ccedilla,
Ccircumflex,
Cdotaccent,
D,
Eth,
Dcaron,
Dcroat,
E,
Eacute,
Ebreve,
Ecaron,
Ecircumflex,
Edieresis,
Edotaccent,
Egrave,
Emacron,
Eogonek,
F,
G,
Gbreve,
Gcircumflex,
Gcommaaccent,
Gdotaccent,
H,
Hbar,
Hcircumflex,
I,
IJ,
Iacute,
Ibreve,
Icircumflex,
Idieresis,
Idotaccent,
Igrave,
Imacron,
Iogonek,
Itilde,
J,
Jcircumflex,
K,
Kcommaaccent,
L,
Lacute,
Lcaron,
Lcommaaccent,
Ldot,
Lslash,
M,
N,
Nacute,
Ncaron,
Ncommaaccent,
Eng,
Ntilde,
O,
Oacute,
Obreve,
Ocircumflex,
Odieresis,
Ograve,
Ohungarumlaut,
Omacron,
Oslash,
Oslashacute,
Otilde,
OE,
P,
Thorn,
Q,
R,
Racute,
Rcaron,
Rcommaaccent,
S,
Sacute,
Scaron,
Scedilla,
Scircumflex,
Scommaaccent,
T,
Tbar,
Tcaron,
uni0162,
uni021A,
U,
Uacute,
Ubreve,
Ucircumflex,
Udieresis,
Ugrave,
Uhungarumlaut,
Umacron,
Uogonek,
Uring,
Utilde,
V,
W,
Wacute,
Wcircumflex,
Wdieresis,
Wgrave,
X,
Y,
Yacute,
Ycircumflex,
Ydieresis,
Ygrave,
Z,
Zacute,
Zcaron,
Zdotaccent,
Cacute.loclPLK,
Nacute.loclPLK,
Oacute.loclPLK,
Sacute.loclPLK,
Zacute.loclPLK,
a,
aacute,
abreve,
acircumflex,
adieresis,
agrave,
amacron,
aogonek,
aring,
atilde,
ae,
aeacute,
b,
c,
cacute,
ccaron,
ccedilla,
ccircumflex,

glyphs = (
{
glyphname = A;
lastChange = "2016-11-29 10:57:25 +0000";
layers = (
{
layerId = "0CCF1926-DDDC-4230-AEA6-FDA11143D54E";
paths = (
{
closed = 1;
nodes = (
"400 150 LINE",
"436 0 LINE",
"612 0 LINE",
"400 693 LINE",
"201 693 LINE",
"-11 0 LINE",
"161 0 LINE",
"197 150 LINE"
);
},
{
closed = 1;
nodes = (
"223 268 LINE",
"298 575 LINE",
"373 268 LINE"
);
}
);
width = 600;
}
);
note = A;
unicode = 0041;
},
{
glyphname = Aacute;
lastChange = "2016-11-29 10:57:25 +0000";
layers = (
{
layerId = "0CCF1926-DDDC-4230-AEA6-FDA11143D54E";
paths = (
{
closed = 1;
nodes = (
"378 953 LINE",
"162 831 LINE",
"200 751 LINE",
"437 835 LINE"
);
},
{
closed = 1;
nodes = (
"400 150 LINE",
"436 0 LINE",
"612 0 LINE",
"400 693 LINE",
"201 693 LINE",
"-11 0 LINE",
"161 0 LINE",
"197 150 LINE"
);
},
{
closed = 1;
nodes = (
"223 268 LINE",
"298 575 LINE",
"373 268 LINE"
);
}
);
width = 600;
}
);
note = Aacute;
unicode = 00C1;
},
{
glyphname = Abreve;
lastChange = "2016-11-29 10:57:25 +0000";
layers = (
{
layerId = "0CCF1926-DDDC-4230-AEA6-FDA11143D54E";
paths = (
{
closed = 1;
nodes = (
"410 751 OFFCURVE",
"463 820 OFFCURVE",
"472 905 CURVE",
"385 921 LINE",
"372 879 OFFCURVE",
"346 861 OFFCURVE",
"300 861 CURVE SMOOTH",
"254 861 OFFCURVE",
"228 879 OFFCURVE",
"215 921 CURVE",
"128 905 LINE",
"138 820 OFFCURVE",
"190 751 OFFCURVE",
"300 751 CURVE SMOOTH"
);
},
{
closed = 1;
nodes = (
"400 150 LINE",
"436 0 LINE",
"612 0 LINE",
"400 693 LINE",
"201 693 LINE",
"-11 0 LINE",
"161 0 LINE",
"197 150 LINE"
);
},
{
closed = 1;
nodes = (
"223 268 LINE",
"298 575 LINE",
"373 268 LINE"
);
}
);
width = 600;
}
);
note = Abreve;
unicode = 0102;
},
{
glyphname = Acircumflex;
lastChange = "2016-11-29 10:57:25 +0000";
layers = (
{
layerId = "0CCF1926-DDDC-4230-AEA6-FDA11143D54E";
paths = (
{
closed = 1;
nodes = (
"348 943 LINE",
"252 943 LINE",
"110 813 LINE",
"167 748 LINE",
"300 833 LINE",
"433 748 LINE",
"489 813 LINE"
);
},
{
closed = 1;
nodes = (
"400 150 LINE",
"436 0 LINE",
"612 0 LINE",
"400 693 LINE",
"201 693 LINE",
"-11 0 LINE",
"161 0 LINE",
"197 150 LINE"
);
},
{
closed = 1;
nodes = (
"223 268 LINE",
"298 575 LINE",
"373 268 LINE"
);
}
);
width = 600;
}
);
note = Acircumflex;
unicode = 00C2;
},
{
glyphname = Adieresis;
lastChange = "2016-11-29 10:57:25 +0000";
layers = (
{
layerId = "0CCF1926-DDDC-4230-AEA6-FDA11143D54E";
paths = (
{
closed = 1;
nodes = (
"231 762 OFFCURVE",
"267 797 OFFCURVE",
"267 843 CURVE SMOOTH",
"267 887 OFFCURVE",
"231 922 OFFCURVE",
"184 922 CURVE SMOOTH",
"139 922 OFFCURVE",
"102 887 OFFCURVE",
"102 843 CURVE SMOOTH",
"102 797 OFFCURVE",
"139 762 OFFCURVE",
"184 762 CURVE SMOOTH"
);
},
{
closed = 1;
nodes = (
"462 762 OFFCURVE",
"498 797 OFFCURVE",
"498 843 CURVE SMOOTH",
"498 887 OFFCURVE",
"462 922 OFFCURVE",
"416 922 CURVE SMOOTH",
"371 922 OFFCURVE",
"333 887 OFFCURVE",
"333 843 CURVE SMOOTH",
"333 797 OFFCURVE",
"371 762 OFFCURVE",
"416 762 CURVE SMOOTH"
);
},
{
closed = 1;
nodes = (
"400 150 LINE",
"436 0 LINE",
"612 0 LINE",
"400 693 LINE",
"201 693 LINE",
"-11 0 LINE",
"161 0 LINE",
"197 150 LINE"
);
},
{
closed = 1;
nodes = (
"223 268 LINE",
"298 575 LINE",
"373 268 LINE"
);
}
);
width = 600;
}
);
note = Adieresis;
unicode = 00C4;
},
{
glyphname = Agrave;
lastChange = "2016-11-29 10:57:25 +0000";
layers = (
{
layerId = "0CCF1926-DDDC-4230-AEA6-FDA11143D54E";
paths = (
{
closed = 1;
nodes = (
"222 953 LINE",
"162 835 LINE",
"400 751 LINE",
"437 831 LINE"
);
},
{
closed = 1;
nodes = (
"400 150 LINE",
"436 0 LINE",
"612 0 LINE",
"400 693 LINE",
"201 693 LINE",
"-11 0 LINE",
"161 0 LINE",
"197 150 LINE"
);
},
{
closed = 1;
nodes = (
"223 268 LINE",
"298 575 LINE",
"373 268 LINE"
);
}
);
width = 600;
}
);
note = Agrave;
unicode = 00C0;
},
{
glyphname = Amacron;
lastChange = "2016-11-29 10:57:25 +0000";
layers = (
{
layerId = "0CCF1926-DDDC-4230-AEA6-FDA11143D54E";
paths = (
{
closed = 1;
nodes = (
"453 783 LINE",
"453 892 LINE",
"147 892 LINE",
"147 783 LINE"
);
},
{
closed = 1;
nodes = (
"400 150 LINE",
"436 0 LINE",
"612 0 LINE",
"400 693 LINE",
"201 693 LINE",
"-11 0 LINE",
"161 0 LINE",
"197 150 LINE"
);
},
{
closed = 1;
nodes = (
"223 268 LINE",
"298 575 LINE",
"373 268 LINE"
);
}
);
width = 600;
}
);
note = Amacron;
unicode = 0100;
},
{
glyphname = Aogonek;
lastChange = "2016-11-29 10:57:25 +0000";
layers = (
{
layerId = "0CCF1926-DDDC-4230-AEA6-FDA11143D54E";
paths = (
{
closed = 1;
nodes = (
"612 0 LINE",
"400 693 LINE",
"201 693 LINE",
"-11 0 LINE",
"161 0 LINE",
"197 150 LINE",
"400 150 LINE",
"431 22 LINE",
"358 -9 OFFCURVE",
"308 -52 OFFCURVE",
"308 -130 CURVE SMOOTH",
"308 -209 OFFCURVE",
"374 -253 OFFCURVE",
"459 -253 CURVE SMOOTH",
"482 -253 OFFCURVE",
"500 -250 OFFCURVE",
"518 -245 CURVE",
"530 -152 LINE",
"513 -156 OFFCURVE",
"497 -159 OFFCURVE",
"476 -159 CURVE SMOOTH",
"441 -159 OFFCURVE",
"418 -143 OFFCURVE",
"418 -110 CURVE SMOOTH",
"418 -69 OFFCURVE",
"440 -32 OFFCURVE",
"533 0 CURVE"
);
},
{
closed = 1;
nodes = (
"223 268 LINE",
"298 575 LINE",
"373 268 LINE"
);
}
);
width = 600;
}
);
note = Aogonek;
unicode = 0104;
},
{
glyphname = Aring;
lastChange = "2016-11-29 10:57:25 +0000";
layers = (
{
layerId = "0CCF1926-DDDC-4230-AEA6-FDA11143D54E";
paths = (
{
closed = 1;
nodes = (
"214 990 OFFCURVE",
"161 929 OFFCURVE",
"161 859 CURVE SMOOTH",
"161 788 OFFCURVE",
"214 726 OFFCURVE",
"299 726 CURVE SMOOTH",
"385 726 OFFCURVE",
"438 788 OFFCURVE",
"438 859 CURVE SMOOTH",
"438 929 OFFCURVE",
"385 990 OFFCURVE",
"299 990 CURVE SMOOTH"
);
},
{
closed = 1;
nodes = (
"326 908 OFFCURVE",
"344 892 OFFCURVE",
"344 859 CURVE SMOOTH",
"344 825 OFFCURVE",
"326 808 OFFCURVE",
"299 808 CURVE SMOOTH",
"273 808 OFFCURVE",
"255 825 OFFCURVE",
"255 859 CURVE SMOOTH",
"255 892 OFFCURVE",
"273 908 OFFCURVE",
"299 908 CURVE SMOOTH"
);
},
{
closed = 1;
nodes = (
"400 150 LINE",
"436 0 LINE",
"612 0 LINE",
"400 693 LINE",
"201 693 LINE",
"-11 0 LINE",
"161 0 LINE",
"197 150 LINE"
);
},
{
closed = 1;
nodes = (
"223 268 LINE",
"298 575 LINE",
"373 268 LINE"
);
}
);
width = 600;
}
);
note = Aring;
unicode = 00C5;
},
{
glyphname = Atilde;
lastChange = "2016-11-29 10:57:25 +0000";
layers = (
{
layerId = "0CCF1926-DDDC-4230-AEA6-FDA11143D54E";
paths = (
{
closed = 1;
nodes = (
"416 760 OFFCURVE",
"460 810 OFFCURVE",
"486 877 CURVE",
"407 915 LINE",
"390 886 OFFCURVE",
"377 872 OFFCURVE",
"355 872 CURVE SMOOTH",
"321 872 OFFCURVE",
"300 917 OFFCURVE",
"239 917 CURVE SMOOTH",
"178 917 OFFCURVE",
"135 863 OFFCURVE",
"110 799 CURVE",
"189 761 LINE",
"205 790 OFFCURVE",
"217 805 OFFCURVE",
"242 805 CURVE SMOOTH",
"275 805 OFFCURVE",
"298 760 OFFCURVE",
"356 760 CURVE SMOOTH"
);
},
{
closed = 1;
nodes = (
"400 150 LINE",
"436 0 LINE",
"612 0 LINE",
"400 693 LINE",
"201 693 LINE",
"-11 0 LINE",
"161 0 LINE",
"197 150 LINE"
);
},
{
closed = 1;
nodes = (
"223 268 LINE",
"298 575 LINE",
"373 268 LINE"
);
}
);
width = 600;
}
);
note = Atilde;
unicode = 00C3;
},
{
glyphname = AE;
lastChange = "2016-11-29 10:57:25 +0000";
layers = (
{
layerId = "0CCF1926-DDDC-4230-AEA6-FDA11143D54E";
paths = (
{
closed = 1;
nodes = (
"313 153 LINE",
"338 0 LINE",
"603 0 LINE",
"603 111 LINE",
"455 111 LINE",
"419 296 LINE",
"556 296 LINE",
"556 406 LINE",
"399 406 LINE",
"366 582 LINE",
"548 582 LINE",
"565 693 LINE",
"163 693 LINE",
"-12 0 LINE",
"145 0 LINE",
"173 153 LINE"
);
},
{
closed = 1;
nodes = (
"191 265 LINE",
"245 583 LINE",
"296 265 LINE"
);
}
);
width = 600;
}
);
note = AE;
unicode = 00C6;
},
{
glyphname = AEacute;
lastChange = "2016-11-29 10:57:25 +0000";
layers = (
{
layerId = "0CCF1926-DDDC-4230-AEA6-FDA11143D54E";
paths = (
{
closed = 1;
nodes = (
"429 953 LINE",
"213 831 LINE",
"251 751 LINE",
"488 835 LINE"
);
},
{
closed = 1;
nodes = (
"313 153 LINE",
"338 0 LINE",
"603 0 LINE",
"603 111 LINE",
"455 111 LINE",
"419 296 LINE",
"556 296 LINE",
"556 406 LINE",
"399 406 LINE",
"366 582 LINE",
"548 582 LINE",
"565 693 LINE",
"163 693 LINE",
"-12 0 LINE",
"145 0 LINE",
"173 153 LINE"
);
},
{
closed = 1;
nodes = (
"191 265 LINE",
"245 583 LINE",
"296 265 LINE"
);
}
);
width = 600;
}
);
note = AEacute;
unicode = 01FC;
},
{
glyphname = B;
lastChange = "2016-11-29 10:57:25 +0000";
layers = (
{
layerId = "0CCF1926-DDDC-4230-AEA6-FDA11143D54E";
paths = (
{
closed = 1;
nodes = (
"571 314 OFFCURVE",
"488 355 OFFCURVE",
"414 367 CURVE",
"482 384 OFFCURVE",
"541 433 OFFCURVE",
"541 516 CURVE SMOOTH",
"541 651 OFFCURVE",
"418 693 OFFCURVE",
"276 693 CURVE SMOOTH",
"56 693 LINE",
"56 0 LINE",
"286 0 LINE SMOOTH",
"436 0 OFFCURVE",
"571 43 OFFCURVE",
"571 203 CURVE SMOOTH"
);
},
{
closed = 1;
nodes = (
"376 441 OFFCURVE",
"346 416 OFFCURVE",
"276 416 CURVE SMOOTH",
"220 416 LINE",
"220 577 LINE",
"270 577 LINE SMOOTH",
"343 577 OFFCURVE",
"376 554 OFFCURVE",
"376 499 CURVE SMOOTH"
);
},
{
closed = 1;
nodes = (
"402 134 OFFCURVE",
"345 120 OFFCURVE",
"280 120 CURVE SMOOTH",
"220 120 LINE",
"220 306 LINE",
"287 306 LINE SMOOTH",
"357 306 OFFCURVE",
"402 282 OFFCURVE",
"402 210 CURVE SMOOTH"
);
}
);
width = 600;
}
);
note = B;
unicode = 0042;
},
{
glyphname = C;
lastChange = "2016-11-29 10:57:25 +0000";
layers = (
{
layerId = "0CCF1926-DDDC-4230-AEA6-FDA11143D54E";
paths = (
{
closed = 1;
nodes = (
"175 711 OFFCURVE",
"34 580 OFFCURVE",
"34 348 CURVE SMOOTH",
"34 110 OFFCURVE",
"168 -17 OFFCURVE",
"356 -17 CURVE SMOOTH",
"463 -17 OFFCURVE",
"538 25 OFFCURVE",
"589 77 CURVE",
"515 172 LINE",
"476 141 OFFCURVE",
"434 110 OFFCURVE",
"365 110 CURVE SMOOTH",
"270 110 OFFCURVE",
"204 181 OFFCURVE",
"204 348 CURVE SMOOTH",
"204 518 OFFCURVE",
"274 589 OFFCURVE",
"362 589 CURVE SMOOTH",
"416 589 OFFCURVE",
"462 569 OFFCURVE",
"500 538 CURVE",
"580 635 LINE",
"522 683 OFFCURVE",
"458 711 OFFCURVE",
"358 711 CURVE SMOOTH"
);
}
);
width = 600;
}
);
note = C;
unicode = 0043;
},
{
glyphname = Cacute;
lastChange = "2016-11-29 10:57:25 +0000";
layers = (
{
layerId = "0CCF1926-DDDC-4230-AEA6-FDA11143D54E";
paths = (
{
closed = 1;
nodes = (
"439 953 LINE",
"223 831 LINE",
"261 751 LINE",
"498 835 LINE"
);
},
{
closed = 1;
nodes = (
"175 711 OFFCURVE",
"34 580 OFFCURVE",
"34 348 CURVE SMOOTH",
"34 110 OFFCURVE",
"168 -17 OFFCURVE",
"356 -17 CURVE SMOOTH",
"463 -17 OFFCURVE",
"538 25 OFFCURVE",
"589 77 CURVE",
"515 172 LINE",
"476 141 OFFCURVE",
"434 110 OFFCURVE",
"365 110 CURVE SMOOTH",
"270 110 OFFCURVE",
"204 181 OFFCURVE",
"204 348 CURVE SMOOTH",
"204 518 OFFCURVE",
"274 589 OFFCURVE",
"362 589 CURVE SMOOTH",
"416 589 OFFCURVE",
"462 569 OFFCURVE",
"500 538 CURVE",
"580 635 LINE",
"522 683 OFFCURVE",
"458 711 OFFCURVE",
"358 711 CURVE SMOOTH"
);
}
);
width = 600;
}
);
note = Cacute;
unicode = 0106;
},
{
glyphname = Ccaron;
lastChange = "2016-11-29 10:57:25 +0000";
layers = (
{
layerId = "0CCF1926-DDDC-4230-AEA6-FDA11143D54E";
paths = (
{
closed = 1;
nodes = (
"494 946 LINE",
"361 861 LINE",
"228 946 LINE",
"171 881 LINE",
"313 751 LINE",
"409 751 LINE",
"550 881 LINE"
);
},
{
closed = 1;
nodes = (
"175 711 OFFCURVE",
"34 580 OFFCURVE",
"34 348 CURVE SMOOTH",
"34 110 OFFCURVE",
"168 -17 OFFCURVE",
"356 -17 CURVE SMOOTH",
"463 -17 OFFCURVE",
"538 25 OFFCURVE",
"589 77 CURVE",
"515 172 LINE",
"476 141 OFFCURVE",
"434 110 OFFCURVE",
"365 110 CURVE SMOOTH",
"270 110 OFFCURVE",
"204 181 OFFCURVE",
"204 348 CURVE SMOOTH",
"204 518 OFFCURVE",
"274 589 OFFCURVE",
"362 589 CURVE SMOOTH",
"416 589 OFFCURVE",
"462 569 OFFCURVE",
"500 538 CURVE",
"580 635 LINE",
"522 683 OFFCURVE",
"458 711 OFFCURVE",
"358 711 CURVE SMOOTH"
);
}
);
width = 600;
}
);
note = Ccaron;
unicode = 010C;
},
{
glyphname = Ccedilla;
lastChange = "2016-11-29 10:57:25 +0000";
layers = (
{
layerId = "0CCF1926-DDDC-4230-AEA6-FDA11143D54E";
paths = (
{
closed = 1;
nodes = (
"382 -16 LINE",
"475 -10 OFFCURVE",
"542 29 OFFCURVE",
"589 77 CURVE",
"515 172 LINE",
"476 141 OFFCURVE",
"434 110 OFFCURVE",
"365 110 CURVE SMOOTH",
"270 110 OFFCURVE",
"204 181 OFFCURVE",
"204 348 CURVE SMOOTH",
"204 518 OFFCURVE",
"274 589 OFFCURVE",
"362 589 CURVE SMOOTH",
"416 589 OFFCURVE",
"462 569 OFFCURVE",
"500 538 CURVE",
"580 635 LINE",
"522 683 OFFCURVE",
"458 711 OFFCURVE",
"358 711 CURVE SMOOTH",
"175 711 OFFCURVE",
"34 580 OFFCURVE",
"34 348 CURVE SMOOTH",
"34 139 OFFCURVE",
"138 15 OFFCURVE",
"291 -11 CURVE",
"280 -112 LINE",
"341 -112 OFFCURVE",
"372 -119 OFFCURVE",
"372 -145 CURVE SMOOTH",
"372 -168 OFFCURVE",
"351 -176 OFFCURVE",
"319 -176 CURVE SMOOTH",
"297 -176 OFFCURVE",
"275 -169 OFFCURVE",
"255 -159 CURVE",
"219 -232 LINE",
"246 -248 OFFCURVE",
"288 -262 OFFCURVE",
"336 -262 CURVE SMOOTH",
"426 -262 OFFCURVE",
"485 -215 OFFCURVE",
"485 -147 CURVE SMOOTH",
"485 -93 OFFCURVE",
"452 -56 OFFCURVE",
"382 -48 CURVE"
);
}
);
width = 600;
}
);
note = Ccedilla;
unicode = 00C7;
},
{
glyphname = Ccircumflex;
lastChange = "2016-11-29 10:57:25 +0000";
layers = (
{
layerId = "0CCF1926-DDDC-4230-AEA6-FDA11143D54E";
paths = (
{
closed = 1;
nodes = (
"409 943 LINE",
"313 943 LINE",
"171 813 LINE",
"228 748 LINE",
"361 833 LINE",
"494 748 LINE",
"550 813 LINE"
);
},
{
closed = 1;
nodes = (
"175 711 OFFCURVE",
"34 580 OFFCURVE",
"34 348 CURVE SMOOTH",
"34 110 OFFCURVE",
"168 -17 OFFCURVE",
"356 -17 CURVE SMOOTH",
"463 -17 OFFCURVE",
"538 25 OFFCURVE",
"589 77 CURVE",
"515 172 LINE",
"476 141 OFFCURVE",
"434 110 OFFCURVE",
"365 110 CURVE SMOOTH",
"270 110 OFFCURVE",
"204 181 OFFCURVE",
"204 348 CURVE SMOOTH",
"204 518 OFFCURVE",
"274 589 OFFCURVE",
"362 589 CURVE SMOOTH",
"416 589 OFFCURVE",
"462 569 OFFCURVE",
"500 538 CURVE",
"580 635 LINE",
"522 683 OFFCURVE",
"458 711 OFFCURVE",
"358 711 CURVE SMOOTH"
);
}
);
width = 600;
}
);
note = Ccircumflex;
unicode = 0108;
},
{
glyphname = Cdotaccent;
lastChange = "2016-11-29 10:57:25 +0000";
layers = (
{
layerId = "0CCF1926-DDDC-4230-AEA6-FDA11143D54E";
paths = (
{
closed = 1;
nodes = (
"306 934 OFFCURVE",
"267 895 OFFCURVE",
"267 845 CURVE SMOOTH",
"267 794 OFFCURVE",
"306 756 OFFCURVE",
"361 756 CURVE SMOOTH",
"416 756 OFFCURVE",
"454 794 OFFCURVE",
"454 845 CURVE SMOOTH",
"454 895 OFFCURVE",
"416 934 OFFCURVE",
"361 934 CURVE SMOOTH"
);
},
{
closed = 1;
nodes = (
"175 711 OFFCURVE",
"34 580 OFFCURVE",
"34 348 CURVE SMOOTH",
"34 110 OFFCURVE",
"168 -17 OFFCURVE",
"356 -17 CURVE SMOOTH",
"463 -17 OFFCURVE",
"538 25 OFFCURVE",
"589 77 CURVE",
"515 172 LINE",
"476 141 OFFCURVE",
"434 110 OFFCURVE",
"365 110 CURVE SMOOTH",
"270 110 OFFCURVE",
"204 181 OFFCURVE",
"204 348 CURVE SMOOTH",
"204 518 OFFCURVE",
"274 589 OFFCURVE",
"362 589 CURVE SMOOTH",
"416 589 OFFCURVE",
"462 569 OFFCURVE",
"500 538 CURVE",
"580 635 LINE",
"522 683 OFFCURVE",
"458 711 OFFCURVE",
"358 711 CURVE SMOOTH"
);
}
);
width = 600;
}
);
note = Cdotaccent;
unicode = 010A;
},
{
glyphname = D;
lastChange = "2016-11-29 10:57:25 +0000";
layers = (
{
layerId = "0CCF1926-DDDC-4230-AEA6-FDA11143D54E";
paths = (
{
closed = 1;
nodes = (
"574 636 OFFCURVE",
"405 693 OFFCURVE",
"227 693 CURVE SMOOTH",
"52 693 LINE",
"52 0 LINE",
"239 0 LINE SMOOTH",
"411 0 OFFCURVE",
"574 68 OFFCURVE",
"574 350 CURVE SMOOTH"
);
},
{
closed = 1;
nodes = (
"405 168 OFFCURVE",
"342 119 OFFCURVE",
"251 119 CURVE SMOOTH",
"216 119 LINE",
"216 574 LINE",
"251 574 LINE SMOOTH",
"338 574 OFFCURVE",
"405 536 OFFCURVE",
"405 350 CURVE SMOOTH"
);
}
);
width = 600;
}
);
note = D;
unicode = 0044;
},
{
glyphname = Eth;
lastChange = "2016-11-29 10:57:25 +0000";
layers = (
{
layerId = "0CCF1926-DDDC-4230-AEA6-FDA11143D54E";
paths = (
{
closed = 1;
nodes = (
"65 693 LINE",
"65 403 LINE",
"9 403 LINE",
"9 303 LINE",
"65 303 LINE",
"65 0 LINE",
"252 0 LINE SMOOTH",
"424 0 OFFCURVE",
"587 68 OFFCURVE",
"587 350 CURVE SMOOTH",
"587 636 OFFCURVE",
"418 693 OFFCURVE",
"240 693 CURVE SMOOTH"
);
},
{
closed = 1;
nodes = (
"229 119 LINE",
"229 303 LINE",
"349 303 LINE",
"349 403 LINE",
"229 403 LINE",
"229 574 LINE",
"264 574 LINE SMOOTH",
"351 574 OFFCURVE",
"417 536 OFFCURVE",
"417 350 CURVE SMOOTH",
"417 168 OFFCURVE",
"355 119 OFFCURVE",
"264 119 CURVE SMOOTH"
);
}
);
width = 600;
}
);
note = Eth;
unicode = 00D0;
},
{
glyphname = Dcaron;
lastChange = "2016-11-29 10:57:25 +0000";
layers = (
{
layerId = "0CCF1926-DDDC-4230-AEA6-FDA11143D54E";
paths = (
{
closed = 1;
nodes = (
"420 946 LINE",
"287 861 LINE",
"154 946 LINE",
"97 881 LINE",
"239 751 LINE",
"335 751 LINE",
"476 881 LINE"
);
},
{
closed = 1;
nodes = (
"574 636 OFFCURVE",
"405 693 OFFCURVE",
"227 693 CURVE SMOOTH",
"52 693 LINE",
"52 0 LINE",
"239 0 LINE SMOOTH",
"411 0 OFFCURVE",
"574 68 OFFCURVE",
"574 350 CURVE SMOOTH"
);
},
{
closed = 1;
nodes = (
"405 168 OFFCURVE",
"342 119 OFFCURVE",
"251 119 CURVE SMOOTH",
"216 119 LINE",
"216 574 LINE",
"251 574 LINE SMOOTH",
"338 574 OFFCURVE",
"405 536 OFFCURVE",
"405 350 CURVE SMOOTH"
);
}
);
width = 600;
}
);
note = Dcaron;
unicode = 010E;
},
{
glyphname = Dcroat;
lastChange = "2016-11-29 10:57:25 +0000";
layers = (
{
layerId = "0CCF1926-DDDC-4230-AEA6-FDA11143D54E";
paths = (
{
closed = 1;
nodes = (
"65 693 LINE",
"65 403 LINE",
"9 403 LINE",
"9 303 LINE",
"65 303 LINE",
"65 0 LINE",
"252 0 LINE SMOOTH",
"424 0 OFFCURVE",
"587 68 OFFCURVE",
"587 350 CURVE SMOOTH",
"587 636 OFFCURVE",
"418 693 OFFCURVE",
"240 693 CURVE SMOOTH"
);
},
{
closed = 1;
nodes = (
"229 119 LINE",
"229 303 LINE",
"349 303 LINE",
"349 403 LINE",
"229 403 LINE",
"229 574 LINE",
"264 574 LINE SMOOTH",
"351 574 OFFCURVE",
"417 536 OFFCURVE",
"417 350 CURVE SMOOTH",
"417 168 OFFCURVE",
"355 119 OFFCURVE",
"264 119 CURVE SMOOTH"
);
}
);
width = 600;
}
);
note = Dcroat;
unicode = 0110;
},
{
glyphname = E;
lastChange = "2016-11-29 10:57:25 +0000";
layers = (
{
layerId = "0CCF1926-DDDC-4230-AEA6-FDA11143D54E";
paths = (
{
closed = 1;
nodes = (
"257 576 LINE",
"529 576 LINE",
"546 693 LINE",
"93 693 LINE",
"93 0 LINE",
"546 0 LINE",
"546 118 LINE",
"257 118 LINE",
"257 295 LINE",
"497 295 LINE",
"497 409 LINE",
"257 409 LINE"
);
}
);
width = 600;
}
);
note = E;
unicode = 0045;
},
{
glyphname = Eacute;
lastChange = "2016-11-29 10:57:25 +0000";
layers = (
{
layerId = "0CCF1926-DDDC-4230-AEA6-FDA11143D54E";
paths = (
{
closed = 1;
nodes = (
"398 953 LINE",
"182 831 LINE",
"220 751 LINE",
"457 835 LINE"
);
},
{
closed = 1;
nodes = (
"257 576 LINE",
"529 576 LINE",
"546 693 LINE",
"93 693 LINE",
"93 0 LINE",
"546 0 LINE",
"546 118 LINE",
"257 118 LINE",
"257 295 LINE",
"497 295 LINE",
"497 409 LINE",
"257 409 LINE"
);
}
);
width = 600;
}
);
note = Eacute;
unicode = 00C9;
},
{
glyphname = Ebreve;
lastChange = "2016-11-29 10:57:25 +0000";
layers = (
{
layerId = "0CCF1926-DDDC-4230-AEA6-FDA11143D54E";
paths = (
{
closed = 1;
nodes = (
"430 751 OFFCURVE",
"483 820 OFFCURVE",
"492 905 CURVE",
"405 921 LINE",
"392 879 OFFCURVE",
"366 861 OFFCURVE",
"320 861 CURVE SMOOTH",
"274 861 OFFCURVE",
"248 879 OFFCURVE",
"235 921 CURVE",
"148 905 LINE",
"158 820 OFFCURVE",
"210 751 OFFCURVE",
"320 751 CURVE SMOOTH"
);
},
{
closed = 1;
nodes = (
"257 576 LINE",
"529 576 LINE",
"546 693 LINE",
"93 693 LINE",
"93 0 LINE",
"546 0 LINE",
"546 118 LINE",
"257 118 LINE",
"257 295 LINE",
"497 295 LINE",
"497 409 LINE",
"257 409 LINE"
);
}
);
width = 600;
}
);
note = Ebreve;
unicode = 0114;
},
{
glyphname = Ecaron;
lastChange = "2016-11-29 10:57:25 +0000";
layers = (
{
layerId = "0CCF1926-DDDC-4230-AEA6-FDA11143D54E";
paths = (
{
closed = 1;
nodes = (
"453 946 LINE",
"320 861 LINE",
"187 946 LINE",
"130 881 LINE",
"272 751 LINE",
"368 751 LINE",
"509 881 LINE"
);
},
{
closed = 1;
nodes = (
"257 576 LINE",
"529 576 LINE",
"546 693 LINE",
"93 693 LINE",
"93 0 LINE",
"546 0 LINE",
"546 118 LINE",
"257 118 LINE",
"257 295 LINE",
"497 295 LINE",
"497 409 LINE",
"257 409 LINE"
);
}
);
width = 600;
}
);
note = Ecaron;
unicode = 011A;
},
{
glyphname = Ecircumflex;
lastChange = "2016-11-29 10:57:25 +0000";
layers = (
{
layerId = "0CCF1926-DDDC-4230-AEA6-FDA11143D54E";
paths = (
{
closed = 1;
nodes = (
"368 943 LINE",
"272 943 LINE",
"130 813 LINE",
"187 748 LINE",
"320 833 LINE",
"453 748 LINE",
"509 813 LINE"
);
},
{
closed = 1;
nodes = (
"257 576 LINE",
"529 576 LINE",
"546 693 LINE",
"93 693 LINE",
"93 0 LINE",
"546 0 LINE",
"546 118 LINE",
"257 118 LINE",
"257 295 LINE",
"497 295 LINE",
"497 409 LINE",
"257 409 LINE"
);
}
);
width = 600;
}
);
note = Ecircumflex;
unicode = 00CA;
},
{
glyphname = Edieresis;
lastChange = "2016-11-29 10:57:25 +0000";
layers = (
{
layerId = "0CCF1926-DDDC-4230-AEA6-FDA11143D54E";
paths = (
{
closed = 1;
nodes = (
"251 762 OFFCURVE",
"287 797 OFFCURVE",
"287 843 CURVE SMOOTH",
"287 887 OFFCURVE",
"251 922 OFFCURVE",
"204 922 CURVE SMOOTH",
"159 922 OFFCURVE",
"122 887 OFFCURVE",
"122 843 CURVE SMOOTH",
"122 797 OFFCURVE",
"159 762 OFFCURVE",
"204 762 CURVE SMOOTH"
);
},
{
closed = 1;
nodes = (
"482 762 OFFCURVE",
"518 797 OFFCURVE",
"518 843 CURVE SMOOTH",
"518 887 OFFCURVE",
"482 922 OFFCURVE",
"436 922 CURVE SMOOTH",
"391 922 OFFCURVE",
"353 887 OFFCURVE",
"353 843 CURVE SMOOTH",
"353 797 OFFCURVE",
"391 762 OFFCURVE",
"436 762 CURVE SMOOTH"
);
},
{
closed = 1;
nodes = (
"257 576 LINE",
"529 576 LINE",
"546 693 LINE",
"93 693 LINE",
"93 0 LINE",
"546 0 LINE",
"546 118 LINE",
"257 118 LINE",
"257 295 LINE",
"497 295 LINE",
"497 409 LINE",
"257 409 LINE"
);
}
);
width = 600;
}
);
note = Edieresis;
unicode = 00CB;
},
{
glyphname = Edotaccent;
lastChange = "2016-11-29 10:57:25 +0000";
layers = (
{
layerId = "0CCF1926-DDDC-4230-AEA6-FDA11143D54E";
paths = (
{
closed = 1;
nodes = (
"265 934 OFFCURVE",
"226 895 OFFCURVE",
"226 845 CURVE SMOOTH",
"226 794 OFFCURVE",
"265 756 OFFCURVE",
"320 756 CURVE SMOOTH",
"375 756 OFFCURVE",
"413 794 OFFCURVE",
"413 845 CURVE SMOOTH",
"413 895 OFFCURVE",
"375 934 OFFCURVE",
"320 934 CURVE SMOOTH"
);
},
{
closed = 1;
nodes = (
"257 576 LINE",
"529 576 LINE",
"546 693 LINE",
"93 693 LINE",
"93 0 LINE",
"546 0 LINE",
"546 118 LINE",
"257 118 LINE",
"257 295 LINE",
"497 295 LINE",
"497 409 LINE",
"257 409 LINE"
);
}
);
width = 600;
}
);
note = Edotaccent;
unicode = 0116;
},
{
glyphname = Egrave;
lastChange = "2016-11-29 10:57:25 +0000";
layers = (
{
layerId = "0CCF1926-DDDC-4230-AEA6-FDA11143D54E";
paths = (
{
closed = 1;
nodes = (
"242 953 LINE",
"182 835 LINE",
"420 751 LINE",
"457 831 LINE"
);
},
{
closed = 1;
nodes = (
"257 576 LINE",
"529 576 LINE",
"546 693 LINE",
"93 693 LINE",
"93 0 LINE",
"546 0 LINE",
"546 118 LINE",
"257 118 LINE",
"257 295 LINE",
"497 295 LINE",
"497 409 LINE",
"257 409 LINE"
);
}
);
width = 600;
}
);
note = Egrave;
unicode = 00C8;
},
{
glyphname = Emacron;
lastChange = "2016-11-29 10:57:25 +0000";
layers = (
{
layerId = "0CCF1926-DDDC-4230-AEA6-FDA11143D54E";
paths = (
{
closed = 1;
nodes = (
"473 783 LINE",
"473 892 LINE",
"167 892 LINE",
"167 783 LINE"
);
},
{
closed = 1;
nodes = (
"257 576 LINE",
"529 576 LINE",
"546 693 LINE",
"93 693 LINE",
"93 0 LINE",
"546 0 LINE",
"546 118 LINE",
"257 118 LINE",
"257 295 LINE",
"497 295 LINE",
"497 409 LINE",
"257 409 LINE"
);
}
);
width = 600;
}
);
note = Emacron;
unicode = 0112;
},
{
glyphname = Eogonek;
lastChange = "2016-11-29 10:57:25 +0000";
layers = (
{
layerId = "0CCF1926-DDDC-4230-AEA6-FDA11143D54E";
paths = (
{
closed = 1;
nodes = (
"257 118 LINE",
"257 295 LINE",
"497 295 LINE",
"497 409 LINE",
"257 409 LINE",
"257 576 LINE",
"529 576 LINE",
"546 693 LINE",
"93 693 LINE",
"93 0 LINE",
"322 0 LINE",
"273 -29 OFFCURVE",
"242 -69 OFFCURVE",
"242 -130 CURVE SMOOTH",
"242 -209 OFFCURVE",
"308 -253 OFFCURVE",
"393 -253 CURVE SMOOTH",
"416 -253 OFFCURVE",
"434 -250 OFFCURVE",
"452 -245 CURVE",
"464 -152 LINE",
"447 -156 OFFCURVE",
"431 -159 OFFCURVE",
"410 -159 CURVE SMOOTH",
"375 -159 OFFCURVE",
"352 -143 OFFCURVE",
"352 -110 CURVE SMOOTH",
"352 -69 OFFCURVE",
"374 -32 OFFCURVE",
"467 0 CURVE",
"546 0 LINE",
"546 118 LINE"
);
}
);
width = 600;
}
);
note = Eogonek;
unicode = 0118;
},
{
glyphname = F;
lastChange = "2016-11-29 10:57:25 +0000";
layers = (
{
layerId = "0CCF1926-DDDC-4230-AEA6-FDA11143D54E";
paths = (
{
closed = 1;
nodes = (
"273 576 LINE",
"547 576 LINE",
"563 693 LINE",
"108 693 LINE",
"108 0 LINE",
"273 0 LINE",
"273 275 LINE",
"515 275 LINE",
"515 393 LINE",
"273 393 LINE"
);
}
);
width = 600;
}
);
note = F;
unicode = 0046;
},
{
glyphname = G;
lastChange = "2016-11-29 10:57:25 +0000";
layers = (
{
layerId = "0CCF1926-DDDC-4230-AEA6-FDA11143D54E";
paths = (
{
closed = 1;
nodes = (
"420 -17 OFFCURVE",
"498 10 OFFCURVE",
"568 53 CURVE",
"568 397 LINE",
"310 397 LINE",
"326 283 LINE",
"413 283 LINE",
"413 124 LINE",
"389 111 OFFCURVE",
"359 103 OFFCURVE",
"327 103 CURVE SMOOTH",
"235 103 OFFCURVE",
"192 165 OFFCURVE",
"192 347 CURVE SMOOTH",
"192 521 OFFCURVE",
"259 591 OFFCURVE",
"353 591 CURVE SMOOTH",
"402 591 OFFCURVE",
"437 573 OFFCURVE",
"479 536 CURVE",
"565 625 LINE",
"511 676 OFFCURVE",
"445 711 OFFCURVE",
"345 711 CURVE SMOOTH",
"165 711 OFFCURVE",
"23 584 OFFCURVE",
"23 348 CURVE SMOOTH",
"23 110 OFFCURVE",
"129 -17 OFFCURVE",
"326 -17 CURVE SMOOTH"
);
}
);
width = 600;
}
);
note = G;
unicode = 0047;
},
{
glyphname = Gbreve;
lastChange = "2016-11-29 10:57:25 +0000";
layers = (
{
layerId = "0CCF1926-DDDC-4230-AEA6-FDA11143D54E";
paths = (
{
closed = 1;
nodes = (
"440 751 OFFCURVE",
"493 820 OFFCURVE",
"502 905 CURVE",
"415 921 LINE",
"402 879 OFFCURVE",
"376 861 OFFCURVE",
"330 861 CURVE SMOOTH",
"284 861 OFFCURVE",
"258 879 OFFCURVE",
"245 921 CURVE",
"158 905 LINE",
"168 820 OFFCURVE",
"220 751 OFFCURVE",
"330 751 CURVE SMOOTH"
);
},
{
closed = 1;
nodes = (
"420 -17 OFFCURVE",
"498 10 OFFCURVE",
"568 53 CURVE",
"568 397 LINE",
"310 397 LINE",
"326 283 LINE",
"413 283 LINE",
"413 124 LINE",
"389 111 OFFCURVE",
"359 103 OFFCURVE",
"327 103 CURVE SMOOTH",
"235 103 OFFCURVE",
"192 165 OFFCURVE",
"192 347 CURVE SMOOTH",
"192 521 OFFCURVE",
"259 591 OFFCURVE",
"353 591 CURVE SMOOTH",
"402 591 OFFCURVE",
"437 573 OFFCURVE",
"479 536 CURVE",
"565 625 LINE",
"511 676 OFFCURVE",
"445 711 OFFCURVE",
"345 711 CURVE SMOOTH",
"165 711 OFFCURVE",
"23 584 OFFCURVE",
"23 348 CURVE SMOOTH",
"23 110 OFFCURVE",
"129 -17 OFFCURVE",
"326 -17 CURVE SMOOTH"
);
}
);
width = 600;
}
);
note = Gbreve;
unicode = 011E;
},
{
glyphname = Gcircumflex;
lastChange = "2016-11-29 10:57:25 +0000";
layers = (
{
layerId = "0CCF1926-DDDC-4230-AEA6-FDA11143D54E";
paths = (
{
closed = 1;
nodes = (
"378 943 LINE",
"282 943 LINE",
"140 813 LINE",
"197 748 LINE",
"330 833 LINE",
"463 748 LINE",
"519 813 LINE"
);
},
{
closed = 1;
nodes = (
"420 -17 OFFCURVE",
"498 10 OFFCURVE",
"568 53 CURVE",
"568 397 LINE",
"310 397 LINE",
"326 283 LINE",
"413 283 LINE",
"413 124 LINE",
"389 111 OFFCURVE",
"359 103 OFFCURVE",
"327 103 CURVE SMOOTH",
"235 103 OFFCURVE",
"192 165 OFFCURVE",
"192 347 CURVE SMOOTH",
"192 521 OFFCURVE",
"259 591 OFFCURVE",
"353 591 CURVE SMOOTH",
"402 591 OFFCURVE",
"437 573 OFFCURVE",
"479 536 CURVE",
"565 625 LINE",
"511 676 OFFCURVE",
"445 711 OFFCURVE",
"345 711 CURVE SMOOTH",
"165 711 OFFCURVE",
"23 584 OFFCURVE",
"23 348 CURVE SMOOTH",
"23 110 OFFCURVE",
"129 -17 OFFCURVE",
"326 -17 CURVE SMOOTH"
);
}
);
width = 600;
}
);
note = Gcircumflex;
unicode = 011C;
},
{
glyphname = Gcommaaccent;
lastChange = "2016-11-29 10:57:25 +0000";
layers = (
{
layerId = "0CCF1926-DDDC-4230-AEA6-FDA11143D54E";
paths = (
{
closed = 1;
nodes = (
"420 -17 OFFCURVE",
"498 10 OFFCURVE",
"568 53 CURVE",
"568 397 LINE",
"310 397 LINE",
"326 283 LINE",
"413 283 LINE",
"413 124 LINE",
"389 111 OFFCURVE",
"359 103 OFFCURVE",
"327 103 CURVE SMOOTH",
"235 103 OFFCURVE",
"192 165 OFFCURVE",
"192 347 CURVE SMOOTH",
"192 521 OFFCURVE",
"259 591 OFFCURVE",
"353 591 CURVE SMOOTH",
"402 591 OFFCURVE",
"437 573 OFFCURVE",
"479 536 CURVE",
"565 625 LINE",
"511 676 OFFCURVE",
"445 711 OFFCURVE",
"345 711 CURVE SMOOTH",
"165 711 OFFCURVE",
"23 584 OFFCURVE",
"23 348 CURVE SMOOTH",
"23 110 OFFCURVE",
"129 -17 OFFCURVE",
"326 -17 CURVE SMOOTH"
);
},
{
closed = 1;
nodes = (
"281 -65 OFFCURVE",
"248 -100 OFFCURVE",
"248 -143 CURVE SMOOTH",
"248 -171 OFFCURVE",
"262 -192 OFFCURVE",
"280 -207 CURVE",
"253 -322 LINE",
"333 -322 LINE",
"382 -225 LINE SMOOTH",
"397 -195 OFFCURVE",
"405 -166 OFFCURVE",
"405 -143 CURVE SMOOTH",
"405 -98 OFFCURVE",
"372 -65 OFFCURVE",
"327 -65 CURVE SMOOTH"
);
}
);
width = 600;
}
);
note = Gcommaaccent;
unicode = 0122;
},
{
glyphname = Gdotaccent;
lastChange = "2016-11-29 10:57:25 +0000";
layers = (
{
layerId = "0CCF1926-DDDC-4230-AEA6-FDA11143D54E";
paths = (
{
closed = 1;
nodes = (
"275 934 OFFCURVE",
"236 895 OFFCURVE",
"236 845 CURVE SMOOTH",
"236 794 OFFCURVE",
"275 756 OFFCURVE",
"330 756 CURVE SMOOTH",
"385 756 OFFCURVE",
"423 794 OFFCURVE",
"423 845 CURVE SMOOTH",
"423 895 OFFCURVE",
"385 934 OFFCURVE",
"330 934 CURVE SMOOTH"
);
},
{
closed = 1;
nodes = (
"420 -17 OFFCURVE",
"498 10 OFFCURVE",
"568 53 CURVE",
"568 397 LINE",
"310 397 LINE",
"326 283 LINE",
"413 283 LINE",
"413 124 LINE",
"389 111 OFFCURVE",
"359 103 OFFCURVE",
"327 103 CURVE SMOOTH",
"235 103 OFFCURVE",
"192 165 OFFCURVE",
"192 347 CURVE SMOOTH",
"192 521 OFFCURVE",
"259 591 OFFCURVE",
"353 591 CURVE SMOOTH",
"402 591 OFFCURVE",
"437 573 OFFCURVE",
"479 536 CURVE",
"565 625 LINE",
"511 676 OFFCURVE",
"445 711 OFFCURVE",
"345 711 CURVE SMOOTH",
"165 711 OFFCURVE",
"23 584 OFFCURVE",
"23 348 CURVE SMOOTH",
"23 110 OFFCURVE",
"129 -17 OFFCURVE",
"326 -17 CURVE SMOOTH"
);
}
);
width = 600;
}
);
note = Gdotaccent;
unicode = 0120;
},
{
glyphname = H;
lastChange = "2016-11-29 10:57:25 +0000";
layers = (
{
layerId = "0CCF1926-DDDC-4230-AEA6-FDA11143D54E";
paths = (
{
closed = 1;
nodes = (
"384 0 LINE",
"548 0 LINE",
"548 693 LINE",
"384 693 LINE",
"384 427 LINE",
"216 427 LINE",
"216 693 LINE",
"52 693 LINE",
"52 0 LINE",
"216 0 LINE",
"216 292 LINE",
"384 292 LINE"
);
}
);
width = 600;
}
);
note = H;
unicode = 0048;
},
{
glyphname = Hbar;
lastChange = "2016-11-29 10:57:25 +0000";
layers = (
{
layerId = "0CCF1926-DDDC-4230-AEA6-FDA11143D54E";
paths = (
{
closed = 1;
nodes = (
"598 592 LINE",
"543 592 LINE",
"543 693 LINE",
"379 693 LINE",
"379 592 LINE",
"221 592 LINE",
"221 693 LINE",
"57 693 LINE",
"57 592 LINE",
"2 592 LINE",
"2 500 LINE",
"57 500 LINE",
"57 0 LINE",
"221 0 LINE",
"221 297 LINE",
"379 297 LINE",
"379 0 LINE",
"543 0 LINE",
"543 500 LINE",
"598 500 LINE"
);
},
{
closed = 1;
nodes = (
"379 424 LINE",
"221 424 LINE",
"221 500 LINE",
"379 500 LINE"
);
}
);
width = 600;
}
);
note = Hbar;
unicode = 0126;
},
{
glyphname = Hcircumflex;
lastChange = "2016-11-29 10:57:25 +0000";
layers = (
{
layerId = "0CCF1926-DDDC-4230-AEA6-FDA11143D54E";
paths = (
{
closed = 1;
nodes = (
"348 943 LINE",
"252 943 LINE",
"110 813 LINE",
"167 748 LINE",
"300 833 LINE",
"433 748 LINE",
"489 813 LINE"
);
},
{
closed = 1;
nodes = (
"384 0 LINE",
"548 0 LINE",
"548 693 LINE",
"384 693 LINE",
"384 427 LINE",
"216 427 LINE",
"216 693 LINE",
"52 693 LINE",
"52 0 LINE",
"216 0 LINE",
"216 292 LINE",
"384 292 LINE"
);
}
);
width = 600;
}
);
note = Hcircumflex;
unicode = 0124;
},
{
glyphname = I;
lastChange = "2016-11-29 10:57:25 +0000";
layers = (
{
layerId = "0CCF1926-DDDC-4230-AEA6-FDA11143D54E";
paths = (
{
closed = 1;
nodes = (
"525 693 LINE",
"75 693 LINE",
"75 573 LINE",
"218 573 LINE",
"218 121 LINE",
"75 121 LINE",
"75 0 LINE",
"525 0 LINE",
"525 121 LINE",
"382 121 LINE",
"382 573 LINE",
"525 573 LINE"
);
}
);
width = 600;
}
);
note = I;
unicode = 0049;
},
{
glyphname = IJ;
lastChange = "2016-11-29 10:57:25 +0000";
layers = (
{
layerId = "0CCF1926-DDDC-4230-AEA6-FDA11143D54E";
paths = (
{
closed = 1;
nodes = (
"200 -183 LINE",
"463 -140 OFFCURVE",
"556 -18 OFFCURVE",
"556 170 CURVE SMOOTH",
"556 693 LINE",
"8 693 LINE",
"8 592 LINE",
"81 592 LINE",
"81 102 LINE",
"8 102 LINE",
"8 0 LINE",
"285 0 LINE",
"285 102 LINE",
"232 102 LINE",
"232 592 LINE",
"398 592 LINE",
"398 164 LINE SMOOTH",
"398 29 OFFCURVE",
"365 -40 OFFCURVE",
"181 -72 CURVE"
);
}
);
width = 600;
}
);
note = IJ;
unicode = 0132;
},
{
glyphname = Iacute;
lastChange = "2016-11-29 10:57:25 +0000";
layers = (
{
layerId = "0CCF1926-DDDC-4230-AEA6-FDA11143D54E";
paths = (
{
closed = 1;
nodes = (
"378 953 LINE",
"162 831 LINE",
"200 751 LINE",
"437 835 LINE"
);
},
{
closed = 1;
nodes = (
"525 693 LINE",
"75 693 LINE",
"75 573 LINE",
"218 573 LINE",
"218 121 LINE",
"75 121 LINE",
"75 0 LINE",
"525 0 LINE",
"525 121 LINE",
"382 121 LINE",
"382 573 LINE",
"525 573 LINE"
);
}
);
width = 600;
}
);
note = Iacute;
unicode = 00CD;
},
{
glyphname = Ibreve;
lastChange = "2016-11-29 10:57:25 +0000";
layers = (
{
layerId = "0CCF1926-DDDC-4230-AEA6-FDA11143D54E";
paths = (
{
closed = 1;
nodes = (
"410 751 OFFCURVE",
"463 820 OFFCURVE",
"472 905 CURVE",
"385 921 LINE",
"372 879 OFFCURVE",
"346 861 OFFCURVE",
"300 861 CURVE SMOOTH",
"254 861 OFFCURVE",
"228 879 OFFCURVE",
"215 921 CURVE",
"128 905 LINE",
"138 820 OFFCURVE",
"190 751 OFFCURVE",
"300 751 CURVE SMOOTH"
);
},
{
closed = 1;
nodes = (
"525 693 LINE",
"75 693 LINE",
"75 573 LINE",
"218 573 LINE",
"218 121 LINE",
"75 121 LINE",
"75 0 LINE",
"525 0 LINE",
"525 121 LINE",
"382 121 LINE",
"382 573 LINE",
"525 573 LINE"
);
}
);
width = 600;
}
);
note = Ibreve;
unicode = 012C;
},
{
glyphname = Icircumflex;
lastChange = "2016-11-29 10:57:25 +0000";
layers = (
{
layerId = "0CCF1926-DDDC-4230-AEA6-FDA11143D54E";
paths = (
{
closed = 1;
nodes = (
"348 943 LINE",
"252 943 LINE",
"110 813 LINE",
"167 748 LINE",
"300 833 LINE",
"433 748 LINE",
"489 813 LINE"
);
},
{
closed = 1;
nodes = (
"525 693 LINE",
"75 693 LINE",
"75 573 LINE",
"218 573 LINE",
"218 121 LINE",
"75 121 LINE",
"75 0 LINE",
"525 0 LINE",
"525 121 LINE",
"382 121 LINE",
"382 573 LINE",
"525 573 LINE"
);
}
);
width = 600;
}
);
note = Icircumflex;
unicode = 00CE;
},
{
glyphname = Idieresis;
lastChange = "2016-11-29 10:57:25 +0000";
layers = (
{
layerId = "0CCF1926-DDDC-4230-AEA6-FDA11143D54E";
paths = (
{
closed = 1;
nodes = (
"231 762 OFFCURVE",
"267 797 OFFCURVE",
"267 843 CURVE SMOOTH",
"267 887 OFFCURVE",
"231 922 OFFCURVE",
"184 922 CURVE SMOOTH",
"139 922 OFFCURVE",
"102 887 OFFCURVE",
"102 843 CURVE SMOOTH",
"102 797 OFFCURVE",
"139 762 OFFCURVE",
"184 762 CURVE SMOOTH"
);
},
{
closed = 1;
nodes = (
"462 762 OFFCURVE",
"498 797 OFFCURVE",
"498 843 CURVE SMOOTH",
"498 887 OFFCURVE",
"462 922 OFFCURVE",
"416 922 CURVE SMOOTH",
"371 922 OFFCURVE",
"333 887 OFFCURVE",
"333 843 CURVE SMOOTH",
"333 797 OFFCURVE",
"371 762 OFFCURVE",
"416 762 CURVE SMOOTH"
);
},
{
closed = 1;
nodes = (
"525 693 LINE",
"75 693 LINE",
"75 573 LINE",
"218 573 LINE",
"218 121 LINE",
"75 121 LINE",
"75 0 LINE",
"525 0 LINE",
"525 121 LINE",
"382 121 LINE",
"382 573 LINE",
"525 573 LINE"
);
}
);
width = 600;
}
);
note = Idieresis;
unicode = 00CF;
},
{
glyphname = Idotaccent;
lastChange = "2016-11-29 10:57:25 +0000";
layers = (
{
layerId = "0CCF1926-DDDC-4230-AEA6-FDA11143D54E";
paths = (
{
closed = 1;
nodes = (
"245 934 OFFCURVE",
"206 895 OFFCURVE",
"206 845 CURVE SMOOTH",
"206 794 OFFCURVE",
"245 756 OFFCURVE",
"300 756 CURVE SMOOTH",
"355 756 OFFCURVE",
"393 794 OFFCURVE",
"393 845 CURVE SMOOTH",
"393 895 OFFCURVE",
"355 934 OFFCURVE",
"300 934 CURVE SMOOTH"
);
},
{
closed = 1;
nodes = (
"525 693 LINE",
"75 693 LINE",
"75 573 LINE",
"218 573 LINE",
"218 121 LINE",
"75 121 LINE",
"75 0 LINE",
"525 0 LINE",
"525 121 LINE",
"382 121 LINE",
"382 573 LINE",
"525 573 LINE"
);
}
);
width = 600;
}
);
note = Idotaccent;
unicode = 0130;
},
{
glyphname = Igrave;
lastChange = "2016-11-29 10:57:25 +0000";
layers = (
{
layerId = "0CCF1926-DDDC-4230-AEA6-FDA11143D54E";
paths = (
{
closed = 1;
nodes = (
"222 953 LINE",
"162 835 LINE",
"400 751 LINE",
"437 831 LINE"
);
},
{
closed = 1;
nodes = (
"525 693 LINE",
"75 693 LINE",
"75 573 LINE",
"218 573 LINE",
"218 121 LINE",
"75 121 LINE",
"75 0 LINE",
"525 0 LINE",
"525 121 LINE",
"382 121 LINE",
"382 573 LINE",
"525 573 LINE"
);
}
);
width = 600;
}
);
note = Igrave;
unicode = 00CC;
},
{
glyphname = Imacron;
lastChange = "2016-11-29 10:57:25 +0000";
layers = (
{
layerId = "0CCF1926-DDDC-4230-AEA6-FDA11143D54E";
paths = (
{
closed = 1;
nodes = (
"453 783 LINE",
"453 892 LINE",
"147 892 LINE",
"147 783 LINE"
);
},
{
closed = 1;
nodes = (
"525 693 LINE",
"75 693 LINE",
"75 573 LINE",
"218 573 LINE",
"218 121 LINE",
"75 121 LINE",
"75 0 LINE",
"525 0 LINE",
"525 121 LINE",
"382 121 LINE",
"382 573 LINE",
"525 573 LINE"
);
}
);
width = 600;
}
);
note = Imacron;
unicode = 012A;
},
{
glyphname = Iogonek;
lastChange = "2016-11-29 10:57:25 +0000";
layers = (
{
layerId = "0CCF1926-DDDC-4230-AEA6-FDA11143D54E";
paths = (
{
closed = 1;
nodes = (
"525 573 LINE",
"525 693 LINE",
"75 693 LINE",
"75 573 LINE",
"218 573 LINE",
"218 121 LINE",
"75 121 LINE",
"75 0 LINE",
"237 0 LINE",
"188 -29 OFFCURVE",
"157 -69 OFFCURVE",
"157 -130 CURVE SMOOTH",
"157 -209 OFFCURVE",
"223 -253 OFFCURVE",
"308 -253 CURVE SMOOTH",
"331 -253 OFFCURVE",
"349 -250 OFFCURVE",
"367 -245 CURVE",
"379 -152 LINE",
"362 -156 OFFCURVE",
"346 -159 OFFCURVE",
"325 -159 CURVE SMOOTH",
"290 -159 OFFCURVE",
"267 -143 OFFCURVE",
"267 -110 CURVE SMOOTH",
"267 -69 OFFCURVE",
"289 -32 OFFCURVE",
"382 0 CURVE",
"525 0 LINE",
"525 121 LINE",
"382 121 LINE",
"382 573 LINE"
);
}
);
width = 600;
}
);
note = Iogonek;
unicode = 012E;
},
{
glyphname = Itilde;
lastChange = "2016-11-29 10:57:25 +0000";
layers = (
{
layerId = "0CCF1926-DDDC-4230-AEA6-FDA11143D54E";
paths = (
{
closed = 1;
nodes = (
"416 760 OFFCURVE",
"460 810 OFFCURVE",
"486 877 CURVE",
"407 915 LINE",
"390 886 OFFCURVE",
"377 872 OFFCURVE",
"355 872 CURVE SMOOTH",
"321 872 OFFCURVE",
"300 917 OFFCURVE",
"239 917 CURVE SMOOTH",
"178 917 OFFCURVE",
"135 863 OFFCURVE",
"110 799 CURVE",
"189 761 LINE",
"205 790 OFFCURVE",
"217 805 OFFCURVE",
"242 805 CURVE SMOOTH",
"275 805 OFFCURVE",
"298 760 OFFCURVE",
"356 760 CURVE SMOOTH"
);
},
{
closed = 1;
nodes = (
"525 693 LINE",
"75 693 LINE",
"75 573 LINE",
"218 573 LINE",
"218 121 LINE",
"75 121 LINE",
"75 0 LINE",
"525 0 LINE",
"525 121 LINE",
"382 121 LINE",
"382 573 LINE",
"525 573 LINE"
);
}
);
width = 600;
}
);
note = Itilde;
unicode = 0128;
},
{
glyphname = J;
lastChange = "2016-11-29 10:57:25 +0000";
layers = (
{
layerId = "0CCF1926-DDDC-4230-AEA6-FDA11143D54E";
paths = (
{
closed = 1;
nodes = (
"527 693 LINE",
"151 693 LINE",
"151 573 LINE",
"363 573 LINE",
"363 248 LINE SMOOTH",
"363 151 OFFCURVE",
"309 107 OFFCURVE",
"239 107 CURVE SMOOTH",
"186 107 OFFCURVE",
"149 119 OFFCURVE",
"101 151 CURVE",
"39 50 LINE",
"99 9 OFFCURVE",
"159 -15 OFFCURVE",
"248 -15 CURVE SMOOTH",
"425 -15 OFFCURVE",
"527 88 OFFCURVE",
"527 249 CURVE SMOOTH"
);
}
);
width = 600;
}
);
note = J;
unicode = 004A;
},
{
glyphname = Jcircumflex;
lastChange = "2016-11-29 10:57:25 +0000";
layers = (
{
layerId = "0CCF1926-DDDC-4230-AEA6-FDA11143D54E";
paths = (
{
closed = 1;
nodes = (
"400 943 LINE",
"304 943 LINE",
"162 813 LINE",
"219 748 LINE",
"352 833 LINE",
"485 748 LINE",
"541 813 LINE"
);
},
{
closed = 1;
nodes = (
"527 693 LINE",
"151 693 LINE",
"151 573 LINE",
"363 573 LINE",
"363 248 LINE SMOOTH",
"363 151 OFFCURVE",
"309 107 OFFCURVE",
"239 107 CURVE SMOOTH",
"186 107 OFFCURVE",
"149 119 OFFCURVE",
"101 151 CURVE",
"39 50 LINE",
"99 9 OFFCURVE",
"159 -15 OFFCURVE",
"248 -15 CURVE SMOOTH",
"425 -15 OFFCURVE",
"527 88 OFFCURVE",
"527 249 CURVE SMOOTH"
);
}
);
width = 600;
}
);
note = Jcircumflex;
unicode = 0134;
},
{
glyphname = K;
lastChange = "2016-11-29 10:57:25 +0000";
layers = (
{
layerId = "0CCF1926-DDDC-4230-AEA6-FDA11143D54E";
paths = (
{
closed = 1;
nodes = (
"223 0 LINE",
"223 693 LINE",
"59 693 LINE",
"59 0 LINE"
);
},
{
closed = 1;
nodes = (
"228 370 LINE",
"419 0 LINE",
"608 0 LINE",
"393 382 LINE",
"589 693 LINE",
"417 693 LINE"
);
}
);
width = 600;
}
);
note = K;
unicode = 004B;
},
{
glyphname = Kcommaaccent;
lastChange = "2016-11-29 10:57:25 +0000";
layers = (
{
layerId = "0CCF1926-DDDC-4230-AEA6-FDA11143D54E";
paths = (
{
closed = 1;
nodes = (
"223 0 LINE",
"223 693 LINE",
"59 693 LINE",
"59 0 LINE"
);
},
{
closed = 1;
nodes = (
"228 370 LINE",
"419 0 LINE",
"608 0 LINE",
"393 382 LINE",
"589 693 LINE",
"417 693 LINE"
);
},
{
closed = 1;
nodes = (
"256 -65 OFFCURVE",
"223 -100 OFFCURVE",
"223 -143 CURVE SMOOTH",
"223 -171 OFFCURVE",
"237 -192 OFFCURVE",
"255 -207 CURVE",
"228 -322 LINE",
"308 -322 LINE",
"357 -225 LINE SMOOTH",
"372 -195 OFFCURVE",
"380 -166 OFFCURVE",
"380 -143 CURVE SMOOTH",
"380 -98 OFFCURVE",
"347 -65 OFFCURVE",
"302 -65 CURVE SMOOTH"
);
}
);
width = 600;
}
);
note = Kcommaaccent;
unicode = 0136;
},
{
glyphname = L;
lastChange = "2016-11-29 10:57:25 +0000";
layers = (
{
layerId = "0CCF1926-DDDC-4230-AEA6-FDA11143D54E";
paths = (
{
closed = 1;
nodes = (
"93 0 LINE",
"541 0 LINE",
"557 130 LINE",
"257 130 LINE",
"257 693 LINE",
"93 693 LINE"
);
}
);
width = 600;
}
);
note = L;
unicode = 004C;
},
{
glyphname = Lacute;
lastChange = "2016-11-29 10:57:25 +0000";
layers = (
{
layerId = "0CCF1926-DDDC-4230-AEA6-FDA11143D54E";
paths = (
{
closed = 1;
nodes = (
"253 953 LINE",
"37 831 LINE",
"75 751 LINE",
"312 835 LINE"
);
},
{
closed = 1;
nodes = (
"93 0 LINE",
"541 0 LINE",
"557 130 LINE",
"257 130 LINE",
"257 693 LINE",
"93 693 LINE"
);
}
);
width = 600;
}
);
note = Lacute;
unicode = 0139;
},
{
glyphname = Lcaron;
lastChange = "2016-11-29 10:57:25 +0000";
layers = (
{
layerId = "0CCF1926-DDDC-4230-AEA6-FDA11143D54E";
paths = (
{
closed = 1;
nodes = (
"349 715 LINE",
"312 482 LINE",
"410 466 LINE",
"488 698 LINE"
);
},
{
closed = 1;
nodes = (
"93 0 LINE",
"541 0 LINE",
"557 130 LINE",
"257 130 LINE",
"257 693 LINE",
"93 693 LINE"
);
}
);
width = 600;
}
);
note = Lcaron;
unicode = 013D;
},
{
glyphname = Lcommaaccent;
lastChange = "2016-11-29 10:57:25 +0000";
layers = (
{
layerId = "0CCF1926-DDDC-4230-AEA6-FDA11143D54E";
paths = (
{
closed = 1;
nodes = (
"93 0 LINE",
"541 0 LINE",
"557 130 LINE",
"257 130 LINE",
"257 693 LINE",
"93 693 LINE"
);
},
{
closed = 1;
nodes = (
"272 -65 OFFCURVE",
"239 -100 OFFCURVE",
"239 -143 CURVE SMOOTH",
"239 -171 OFFCURVE",
"253 -192 OFFCURVE",
"271 -207 CURVE",
"244 -322 LINE",
"324 -322 LINE",
"373 -225 LINE SMOOTH",
"388 -195 OFFCURVE",
"396 -166 OFFCURVE",
"396 -143 CURVE SMOOTH",
"396 -98 OFFCURVE",
"363 -65 OFFCURVE",
"318 -65 CURVE SMOOTH"
);
}
);
width = 600;
}
);
note = Lcommaaccent;
unicode = 013B;
},
{
glyphname = Ldot;
lastChange = "2016-11-29 10:57:25 +0000";
layers = (
{
layerId = "0CCF1926-DDDC-4230-AEA6-FDA11143D54E";
paths = (
{
closed = 1;
nodes = (
"93 0 LINE",
"541 0 LINE",
"557 130 LINE",
"257 130 LINE",
"257 693 LINE",
"93 693 LINE"
);
},
{
closed = 1;
nodes = (
"411 474 OFFCURVE",
"372 435 OFFCURVE",
"372 385 CURVE SMOOTH",
"372 334 OFFCURVE",
"411 296 OFFCURVE",
"466 296 CURVE SMOOTH",
"521 296 OFFCURVE",
"559 334 OFFCURVE",
"559 385 CURVE SMOOTH",
"559 435 OFFCURVE",
"521 474 OFFCURVE",
"466 474 CURVE SMOOTH"
);
}
);
width = 600;
}
);
note = Ldot;
unicode = 013F;
},
{
glyphname = Lslash;
lastChange = "2016-11-29 10:57:25 +0000";
layers = (
{
layerId = "0CCF1926-DDDC-4230-AEA6-FDA11143D54E";
paths = (
{
closed = 1;
nodes = (
"272 130 LINE",
"272 331 LINE",
"450 442 LINE",
"396 527 LINE",
"272 451 LINE",
"272 693 LINE",
"108 693 LINE",
"108 349 LINE",
"9 288 LINE",
"62 201 LINE",
"108 229 LINE",
"108 0 LINE",
"555 0 LINE",
"572 130 LINE"
);
}
);
width = 600;
}
);
note = Lslash;
unicode = 0141;
},
{
glyphname = M;
lastChange = "2016-11-29 10:57:25 +0000";
layers = (
{
layerId = "0CCF1926-DDDC-4230-AEA6-FDA11143D54E";
paths = (
{
closed = 1;
nodes = (
"544 693 LINE",
"375 693 LINE",
"302 245 LINE",
"225 693 LINE",
"56 693 LINE",
"17 0 LINE",
"158 0 LINE",
"163 294 LINE SMOOTH",
"165 405 OFFCURVE",
"161 466 OFFCURVE",
"153 554 CURVE",
"238 118 LINE",
"362 118 LINE",
"440 554 LINE",
"433 461 OFFCURVE",
"428 406 OFFCURVE",
"431 297 CURVE SMOOTH",
"439 0 LINE",
"583 0 LINE"
);
}
);
width = 600;
}
);
note = M;
unicode = 004D;
},
{
glyphname = N;
lastChange = "2016-11-29 10:57:25 +0000";
layers = (
{
layerId = "0CCF1926-DDDC-4230-AEA6-FDA11143D54E";
paths = (
{
closed = 1;
nodes = (
"349 0 LINE",
"548 0 LINE",
"548 693 LINE",
"409 693 LINE",
"409 428 LINE SMOOTH",
"409 303 OFFCURVE",
"423 202 OFFCURVE",
"433 138 CURVE",
"257 693 LINE",
"52 693 LINE",
"52 0 LINE",
"191 0 LINE",
"191 261 LINE SMOOTH",
"191 383 OFFCURVE",
"175 498 OFFCURVE",
"167 557 CURVE"
);
}
);
width = 600;
}
);
note = N;
unicode = 004E;
},
{
glyphname = Nacute;
lastChange = "2016-11-29 10:57:25 +0000";
layers = (
{
layerId = "0CCF1926-DDDC-4230-AEA6-FDA11143D54E";
paths = (
{
closed = 1;
nodes = (
"388 953 LINE",
"172 831 LINE",
"210 751 LINE",
"447 835 LINE"
);
},
{
closed = 1;
nodes = (
"349 0 LINE",
"548 0 LINE",
"548 693 LINE",
"409 693 LINE",
"409 428 LINE SMOOTH",
"409 303 OFFCURVE",
"423 202 OFFCURVE",
"433 138 CURVE",
"257 693 LINE",
"52 693 LINE",
"52 0 LINE",
"191 0 LINE",
"191 261 LINE SMOOTH",
"191 383 OFFCURVE",
"175 498 OFFCURVE",
"167 557 CURVE"
);
}
);
width = 600;
}
);
note = Nacute;
unicode = 0143;
},
{
glyphname = Ncaron;
lastChange = "2016-11-29 10:57:25 +0000";
layers = (
{
layerId = "0CCF1926-DDDC-4230-AEA6-FDA11143D54E";
paths = (
{
closed = 1;
nodes = (
"443 946 LINE",
"310 861 LINE",
"177 946 LINE",
"120 881 LINE",
"262 751 LINE",
"358 751 LINE",
"499 881 LINE"
);
},
{
closed = 1;
nodes = (
"349 0 LINE",
"548 0 LINE",
"548 693 LINE",
"409 693 LINE",
"409 428 LINE SMOOTH",
"409 303 OFFCURVE",
"423 202 OFFCURVE",
"433 138 CURVE",
"257 693 LINE",
"52 693 LINE",
"52 0 LINE",
"191 0 LINE",
"191 261 LINE SMOOTH",
"191 383 OFFCURVE",
"175 498 OFFCURVE",
"167 557 CURVE"
);
}
);
width = 600;
}
);
note = Ncaron;
unicode = 0147;
},
{
glyphname = Ncommaaccent;
lastChange = "2016-11-29 10:57:25 +0000";
layers = (
{
layerId = "0CCF1926-DDDC-4230-AEA6-FDA11143D54E";
paths = (
{
closed = 1;
nodes = (
"349 0 LINE",
"548 0 LINE",
"548 693 LINE",
"409 693 LINE",
"409 428 LINE SMOOTH",
"409 303 OFFCURVE",
"423 202 OFFCURVE",
"433 138 CURVE",
"257 693 LINE",
"52 693 LINE",
"52 0 LINE",
"191 0 LINE",
"191 261 LINE SMOOTH",
"191 383 OFFCURVE",
"175 498 OFFCURVE",
"167 557 CURVE"
);
},
{
closed = 1;
nodes = (
"255 -65 OFFCURVE",
"222 -100 OFFCURVE",
"222 -143 CURVE SMOOTH",
"222 -171 OFFCURVE",
"236 -192 OFFCURVE",
"254 -207 CURVE",
"227 -322 LINE",
"307 -322 LINE",
"356 -225 LINE SMOOTH",
"371 -195 OFFCURVE",
"379 -166 OFFCURVE",
"379 -143 CURVE SMOOTH",
"379 -98 OFFCURVE",
"346 -65 OFFCURVE",
"301 -65 CURVE SMOOTH"
);
}
);
width = 600;
}
);
note = Ncommaaccent;
unicode = 0145;
},
{
glyphname = Eng;
lastChange = "2016-11-29 10:57:25 +0000";
layers = (
{
layerId = "0CCF1926-DDDC-4230-AEA6-FDA11143D54E";
paths = (
{
closed = 1;
nodes = (
"409 693 LINE",
"409 428 LINE SMOOTH",
"409 303 OFFCURVE",
"423 202 OFFCURVE",
"433 138 CURVE",
"257 693 LINE",
"52 693 LINE",
"52 0 LINE",
"191 0 LINE",
"191 261 LINE SMOOTH",
"191 383 OFFCURVE",
"175 498 OFFCURVE",
"167 557 CURVE",
"349 0 LINE",
"384 0 LINE",
"384 -41 LINE SMOOTH",
"384 -90 OFFCURVE",
"365 -108 OFFCURVE",
"332 -108 CURVE SMOOTH",
"306 -108 OFFCURVE",
"291 -100 OFFCURVE",
"272 -91 CURVE",
"212 -183 LINE",
"247 -209 OFFCURVE",
"286 -228 OFFCURVE",
"348 -228 CURVE SMOOTH",
"474 -228 OFFCURVE",
"548 -158 OFFCURVE",
"548 -27 CURVE SMOOTH",
"548 693 LINE"
);
}
);
width = 600;
}
);
note = Eng;
unicode = 014A;
},
{
glyphname = Ntilde;
lastChange = "2016-11-29 10:57:25 +0000";
layers = (
{
layerId = "0CCF1926-DDDC-4230-AEA6-FDA11143D54E";
paths = (
{
closed = 1;
nodes = (
"426 760 OFFCURVE",
"470 810 OFFCURVE",
"496 877 CURVE",
"417 915 LINE",
"400 886 OFFCURVE",
"387 872 OFFCURVE",
"365 872 CURVE SMOOTH",
"331 872 OFFCURVE",
"310 917 OFFCURVE",
"249 917 CURVE SMOOTH",
"188 917 OFFCURVE",
"145 863 OFFCURVE",
"120 799 CURVE",
"199 761 LINE",
"215 790 OFFCURVE",
"227 805 OFFCURVE",
"252 805 CURVE SMOOTH",
"285 805 OFFCURVE",
"308 760 OFFCURVE",
"366 760 CURVE SMOOTH"
);
},
{
closed = 1;
nodes = (
"349 0 LINE",
"548 0 LINE",
"548 693 LINE",
"409 693 LINE",
"409 428 LINE SMOOTH",
"409 303 OFFCURVE",
"423 202 OFFCURVE",
"433 138 CURVE",
"257 693 LINE",
"52 693 LINE",
"52 0 LINE",
"191 0 LINE",
"191 261 LINE SMOOTH",
"191 383 OFFCURVE",
"175 498 OFFCURVE",
"167 557 CURVE"
);
}
);
width = 600;
}
);
note = Ntilde;
unicode = 00D1;
},
{
glyphname = O;
lastChange = "2016-11-29 10:57:25 +0000";
layers = (
{
layerId = "0CCF1926-DDDC-4230-AEA6-FDA11143D54E";
paths = (
{
closed = 1;
nodes = (
"577 572 OFFCURVE",
"482 711 OFFCURVE",
"300 711 CURVE SMOOTH",
"118 711 OFFCURVE",
"23 567 OFFCURVE",
"23 347 CURVE SMOOTH",
"23 122 OFFCURVE",
"118 -17 OFFCURVE",
"300 -17 CURVE SMOOTH",
"482 -17 OFFCURVE",
"577 127 OFFCURVE",
"577 347 CURVE SMOOTH"
);
},
{
closed = 1;
nodes = (
"409 179 OFFCURVE",
"380 103 OFFCURVE",
"300 103 CURVE SMOOTH",
"223 103 OFFCURVE",
"191 177 OFFCURVE",
"191 347 CURVE SMOOTH",
"191 517 OFFCURVE",
"222 591 OFFCURVE",
"300 591 CURVE SMOOTH",
"378 591 OFFCURVE",
"409 517 OFFCURVE",
"409 347 CURVE SMOOTH"
);
}
);
width = 600;
}
);
note = O;
unicode = 004F;
},
{
glyphname = Oacute;
lastChange = "2016-11-29 10:57:25 +0000";
layers = (
{
layerId = "0CCF1926-DDDC-4230-AEA6-FDA11143D54E";
paths = (
{
closed = 1;
nodes = (
"378 953 LINE",
"162 831 LINE",
"200 751 LINE",
"437 835 LINE"
);
},
{
closed = 1;
nodes = (
"577 572 OFFCURVE",
"482 711 OFFCURVE",
"300 711 CURVE SMOOTH",
"118 711 OFFCURVE",
"23 567 OFFCURVE",
"23 347 CURVE SMOOTH",
"23 122 OFFCURVE",
"118 -17 OFFCURVE",
"300 -17 CURVE SMOOTH",
"482 -17 OFFCURVE",
"577 127 OFFCURVE",
"577 347 CURVE SMOOTH"
);
},
{
closed = 1;
nodes = (
"409 179 OFFCURVE",
"380 103 OFFCURVE",
"300 103 CURVE SMOOTH",
"223 103 OFFCURVE",
"191 177 OFFCURVE",
"191 347 CURVE SMOOTH",
"191 517 OFFCURVE",
"222 591 OFFCURVE",
"300 591 CURVE SMOOTH",
"378 591 OFFCURVE",
"409 517 OFFCURVE",
"409 347 CURVE SMOOTH"
);
}
);
width = 600;
}
);
note = Oacute;
unicode = 00D3;
},
{
glyphname = Obreve;
lastChange = "2016-11-29 10:57:25 +0000";
layers = (
{
layerId = "0CCF1926-DDDC-4230-AEA6-FDA11143D54E";
paths = (
{
closed = 1;
nodes = (
"410 751 OFFCURVE",
"463 820 OFFCURVE",
"472 905 CURVE",
"385 921 LINE",
"372 879 OFFCURVE",
"346 861 OFFCURVE",
"300 861 CURVE SMOOTH",
"254 861 OFFCURVE",
"228 879 OFFCURVE",
"215 921 CURVE",
"128 905 LINE",
"138 820 OFFCURVE",
"190 751 OFFCURVE",
"300 751 CURVE SMOOTH"
);
},
{
closed = 1;
nodes = (
"577 572 OFFCURVE",
"482 711 OFFCURVE",
"300 711 CURVE SMOOTH",
"118 711 OFFCURVE",
"23 567 OFFCURVE",
"23 347 CURVE SMOOTH",
"23 122 OFFCURVE",
"118 -17 OFFCURVE",
"300 -17 CURVE SMOOTH",
"482 -17 OFFCURVE",
"577 127 OFFCURVE",
"577 347 CURVE SMOOTH"
);
},
{
closed = 1;
nodes = (
"409 179 OFFCURVE",
"380 103 OFFCURVE",
"300 103 CURVE SMOOTH",
"223 103 OFFCURVE",
"191 177 OFFCURVE",
"191 347 CURVE SMOOTH",
"191 517 OFFCURVE",
"222 591 OFFCURVE",
"300 591 CURVE SMOOTH",
"378 591 OFFCURVE",
"409 517 OFFCURVE",
"409 347 CURVE SMOOTH"
);
}
);
width = 600;
}
);
note = Obreve;
unicode = 014E;
},
{
glyphname = Ocircumflex;
lastChange = "2016-11-29 10:57:25 +0000";
layers = (
{
layerId = "0CCF1926-DDDC-4230-AEA6-FDA11143D54E";
paths = (
{
closed = 1;
nodes = (
"348 943 LINE",
"252 943 LINE",
"110 813 LINE",
"167 748 LINE",
"300 833 LINE",
"433 748 LINE",
"489 813 LINE"
);
},
{
closed = 1;
nodes = (
"577 572 OFFCURVE",
"482 711 OFFCURVE",
"300 711 CURVE SMOOTH",
"118 711 OFFCURVE",
"23 567 OFFCURVE",
"23 347 CURVE SMOOTH",
"23 122 OFFCURVE",
"118 -17 OFFCURVE",
"300 -17 CURVE SMOOTH",
"482 -17 OFFCURVE",
"577 127 OFFCURVE",
"577 347 CURVE SMOOTH"
);
},
{
closed = 1;
nodes = (
"409 179 OFFCURVE",
"380 103 OFFCURVE",
"300 103 CURVE SMOOTH",
"223 103 OFFCURVE",
"191 177 OFFCURVE",
"191 347 CURVE SMOOTH",
"191 517 OFFCURVE",
"222 591 OFFCURVE",
"300 591 CURVE SMOOTH",
"378 591 OFFCURVE",
"409 517 OFFCURVE",
"409 347 CURVE SMOOTH"
);
}
);
width = 600;
}
);
note = Ocircumflex;
unicode = 00D4;
},
{
glyphname = Odieresis;
lastChange = "2016-11-29 10:57:25 +0000";
layers = (
{
layerId = "0CCF1926-DDDC-4230-AEA6-FDA11143D54E";
paths = (
{
closed = 1;
nodes = (
"231 762 OFFCURVE",
"267 797 OFFCURVE",
"267 843 CURVE SMOOTH",
"267 887 OFFCURVE",
"231 922 OFFCURVE",
"184 922 CURVE SMOOTH",
"139 922 OFFCURVE",
"102 887 OFFCURVE",
"102 843 CURVE SMOOTH",
"102 797 OFFCURVE",
"139 762 OFFCURVE",
"184 762 CURVE SMOOTH"
);
},
{
closed = 1;
nodes = (
"462 762 OFFCURVE",
"498 797 OFFCURVE",
"498 843 CURVE SMOOTH",
"498 887 OFFCURVE",
"462 922 OFFCURVE",
"416 922 CURVE SMOOTH",
"371 922 OFFCURVE",
"333 887 OFFCURVE",
"333 843 CURVE SMOOTH",
"333 797 OFFCURVE",
"371 762 OFFCURVE",
"416 762 CURVE SMOOTH"
);
},
{
closed = 1;
nodes = (
"577 572 OFFCURVE",
"482 711 OFFCURVE",
"300 711 CURVE SMOOTH",
"118 711 OFFCURVE",
"23 567 OFFCURVE",
"23 347 CURVE SMOOTH",
"23 122 OFFCURVE",
"118 -17 OFFCURVE",
"300 -17 CURVE SMOOTH",
"482 -17 OFFCURVE",
"577 127 OFFCURVE",
"577 347 CURVE SMOOTH"
);
},
{
closed = 1;
nodes = (
"409 179 OFFCURVE",
"380 103 OFFCURVE",
"300 103 CURVE SMOOTH",
"223 103 OFFCURVE",
"191 177 OFFCURVE",
"191 347 CURVE SMOOTH",
"191 517 OFFCURVE",
"222 591 OFFCURVE",
"300 591 CURVE SMOOTH",
"378 591 OFFCURVE",
"409 517 OFFCURVE",
"409 347 CURVE SMOOTH"
);
}
);
width = 600;
}
);
note = Odieresis;
unicode = 00D6;
},
{
glyphname = Ograve;
lastChange = "2016-11-29 10:57:25 +0000";
layers = (
{
layerId = "0CCF1926-DDDC-4230-AEA6-FDA11143D54E";
paths = (
{
closed = 1;
nodes = (
"222 953 LINE",
"162 835 LINE",
"400 751 LINE",
"437 831 LINE"
);
},
{
closed = 1;
nodes = (
"577 572 OFFCURVE",
"482 711 OFFCURVE",
"300 711 CURVE SMOOTH",
"118 711 OFFCURVE",
"23 567 OFFCURVE",
"23 347 CURVE SMOOTH",
"23 122 OFFCURVE",
"118 -17 OFFCURVE",
"300 -17 CURVE SMOOTH",
"482 -17 OFFCURVE",
"577 127 OFFCURVE",
"577 347 CURVE SMOOTH"
);
},
{
closed = 1;
nodes = (
"409 179 OFFCURVE",
"380 103 OFFCURVE",
"300 103 CURVE SMOOTH",
"223 103 OFFCURVE",
"191 177 OFFCURVE",
"191 347 CURVE SMOOTH",
"191 517 OFFCURVE",
"222 591 OFFCURVE",
"300 591 CURVE SMOOTH",
"378 591 OFFCURVE",
"409 517 OFFCURVE",
"409 347 CURVE SMOOTH"
);
}
);
width = 600;
}
);
note = Ograve;
unicode = 00D2;
},
{
glyphname = Ohungarumlaut;
lastChange = "2016-11-29 10:57:25 +0000";
layers = (
{
layerId = "0CCF1926-DDDC-4230-AEA6-FDA11143D54E";
paths = (
{
closed = 1;
nodes = (
"159 786 LINE",
"241 750 LINE",
"365 933 LINE",
"258 982 LINE"
);
},
{
closed = 1;
nodes = (
"322 788 LINE",
"403 749 LINE",
"528 931 LINE",
"422 982 LINE"
);
},
{
closed = 1;
nodes = (
"577 572 OFFCURVE",
"482 711 OFFCURVE",
"300 711 CURVE SMOOTH",
"118 711 OFFCURVE",
"23 567 OFFCURVE",
"23 347 CURVE SMOOTH",
"23 122 OFFCURVE",
"118 -17 OFFCURVE",
"300 -17 CURVE SMOOTH",
"482 -17 OFFCURVE",
"577 127 OFFCURVE",
"577 347 CURVE SMOOTH"
);
},
{
closed = 1;
nodes = (
"409 179 OFFCURVE",
"380 103 OFFCURVE",
"300 103 CURVE SMOOTH",
"223 103 OFFCURVE",
"191 177 OFFCURVE",
"191 347 CURVE SMOOTH",
"191 517 OFFCURVE",
"222 591 OFFCURVE",
"300 591 CURVE SMOOTH",
"378 591 OFFCURVE",
"409 517 OFFCURVE",
"409 347 CURVE SMOOTH"
);
}
);
width = 600;
}
);
note = Ohungarumlaut;
unicode = 0150;
},
{
glyphname = Omacron;
lastChange = "2016-11-29 10:57:25 +0000";
layers = (
{
layerId = "0CCF1926-DDDC-4230-AEA6-FDA11143D54E";
paths = (
{
closed = 1;
nodes = (
"453 783 LINE",
"453 892 LINE",
"147 892 LINE",
"147 783 LINE"
);
},
{
closed = 1;
nodes = (
"577 572 OFFCURVE",
"482 711 OFFCURVE",
"300 711 CURVE SMOOTH",
"118 711 OFFCURVE",
"23 567 OFFCURVE",
"23 347 CURVE SMOOTH",
"23 122 OFFCURVE",
"118 -17 OFFCURVE",
"300 -17 CURVE SMOOTH",
"482 -17 OFFCURVE",
"577 127 OFFCURVE",
"577 347 CURVE SMOOTH"
);
},
{
closed = 1;
nodes = (
"409 179 OFFCURVE",
"380 103 OFFCURVE",
"300 103 CURVE SMOOTH",
"223 103 OFFCURVE",
"191 177 OFFCURVE",
"191 347 CURVE SMOOTH",
"191 517 OFFCURVE",
"222 591 OFFCURVE",
"300 591 CURVE SMOOTH",
"378 591 OFFCURVE",
"409 517 OFFCURVE",
"409 347 CURVE SMOOTH"
);
}
);
width = 600;
}
);
note = Omacron;
unicode = 014C;
},
{
glyphname = Oslash;
lastChange = "2016-11-29 10:57:25 +0000";
layers = (
{
layerId = "0CCF1926-DDDC-4230-AEA6-FDA11143D54E";
paths = (
{
closed = 1;
nodes = (
"491 770 LINE",
"380 803 LINE",
"351 706 LINE",
"335 709 OFFCURVE",
"318 711 OFFCURVE",
"300 711 CURVE SMOOTH",
"118 711 OFFCURVE",
"23 567 OFFCURVE",
"23 347 CURVE SMOOTH",
"23 203 OFFCURVE",
"66 94 OFFCURVE",
"143 34 CURVE",
"109 -76 LINE",
"220 -109 LINE",
"248 -12 LINE",
"264 -15 OFFCURVE",
"282 -17 OFFCURVE",
"300 -17 CURVE SMOOTH",
"482 -17 OFFCURVE",
"577 127 OFFCURVE",
"577 347 CURVE SMOOTH",
"577 492 OFFCURVE",
"534 601 OFFCURVE",
"457 660 CURVE"
);
},
{
closed = 1;
nodes = (
"312 594 OFFCURVE",
"322 592 OFFCURVE",
"332 590 CURVE",
"208 166 LINE",
"192 206 OFFCURVE",
"185 266 OFFCURVE",
"185 347 CURVE SMOOTH",
"185 520 OFFCURVE",
"218 594 OFFCURVE",
"300 594 CURVE SMOOTH"
);
},
{
closed = 1;
nodes = (
"289 100 OFFCURVE",
"279 101 OFFCURVE",
"270 104 CURVE",
"393 526 LINE",
"409 486 OFFCURVE",
"415 427 OFFCURVE",
"415 347 CURVE SMOOTH",
"415 176 OFFCURVE",
"384 100 OFFCURVE",
"300 100 CURVE SMOOTH"
);
}
);
width = 600;
}
);
note = Oslash;
unicode = 00D8;
},
{
glyphname = Oslashacute;
lastChange = "2016-11-29 10:57:25 +0000";
layers = (
{
layerId = "0CCF1926-DDDC-4230-AEA6-FDA11143D54E";
paths = (
{
closed = 1;
nodes = (
"437 835 LINE",
"378 953 LINE",
"162 831 LINE",
"200 751 LINE"
);
},
{
closed = 1;
nodes = (
"491 770 LINE",
"380 803 LINE",
"351 706 LINE",
"335 709 OFFCURVE",
"318 711 OFFCURVE",
"300 711 CURVE SMOOTH",
"118 711 OFFCURVE",
"23 567 OFFCURVE",
"23 347 CURVE SMOOTH",
"23 203 OFFCURVE",
"66 94 OFFCURVE",
"143 34 CURVE",
"109 -76 LINE",
"220 -109 LINE",
"248 -12 LINE",
"264 -15 OFFCURVE",
"282 -17 OFFCURVE",
"300 -17 CURVE SMOOTH",
"482 -17 OFFCURVE",
"577 127 OFFCURVE",
"577 347 CURVE SMOOTH",
"577 492 OFFCURVE",
"534 601 OFFCURVE",
"457 660 CURVE"
);
},
{
closed = 1;
nodes = (
"312 594 OFFCURVE",
"322 592 OFFCURVE",
"332 590 CURVE",
"208 166 LINE",
"192 206 OFFCURVE",
"185 266 OFFCURVE",
"185 347 CURVE SMOOTH",
"185 520 OFFCURVE",
"218 594 OFFCURVE",
"300 594 CURVE SMOOTH"
);
},
{
closed = 1;
nodes = (
"289 100 OFFCURVE",
"279 101 OFFCURVE",
"270 104 CURVE",
"393 526 LINE",
"409 486 OFFCURVE",
"415 427 OFFCURVE",
"415 347 CURVE SMOOTH",
"415 176 OFFCURVE",
"384 100 OFFCURVE",
"300 100 CURVE SMOOTH"
);
}
);
width = 600;
}
);
note = Oslashacute;
unicode = 01FE;
},
{
glyphname = Otilde;
lastChange = "2016-11-29 10:57:25 +0000";
layers = (
{
layerId = "0CCF1926-DDDC-4230-AEA6-FDA11143D54E";
paths = (
{
closed = 1;
nodes = (
"416 760 OFFCURVE",
"460 810 OFFCURVE",
"486 877 CURVE",
"407 915 LINE",
"390 886 OFFCURVE",
"377 872 OFFCURVE",
"355 872 CURVE SMOOTH",
"321 872 OFFCURVE",
"300 917 OFFCURVE",
"239 917 CURVE SMOOTH",
"178 917 OFFCURVE",
"135 863 OFFCURVE",
"110 799 CURVE",
"189 761 LINE",
"205 790 OFFCURVE",
"217 805 OFFCURVE",
"242 805 CURVE SMOOTH",
"275 805 OFFCURVE",
"298 760 OFFCURVE",
"356 760 CURVE SMOOTH"
);
},
{
closed = 1;
nodes = (
"577 572 OFFCURVE",
"482 711 OFFCURVE",
"300 711 CURVE SMOOTH",
"118 711 OFFCURVE",
"23 567 OFFCURVE",
"23 347 CURVE SMOOTH",
"23 122 OFFCURVE",
"118 -17 OFFCURVE",
"300 -17 CURVE SMOOTH",
"482 -17 OFFCURVE",
"577 127 OFFCURVE",
"577 347 CURVE SMOOTH"
);
},
{
closed = 1;
nodes = (
"409 179 OFFCURVE",
"380 103 OFFCURVE",
"300 103 CURVE SMOOTH",
"223 103 OFFCURVE",
"191 177 OFFCURVE",
"191 347 CURVE SMOOTH",
"191 517 OFFCURVE",
"222 591 OFFCURVE",
"300 591 CURVE SMOOTH",
"378 591 OFFCURVE",
"409 517 OFFCURVE",
"409 347 CURVE SMOOTH"
);
}
);
width = 600;
}
);
note = Otilde;
unicode = 00D5;
},
{
glyphname = OE;
lastChange = "2016-11-29 10:57:25 +0000";
layers = (
{
layerId = "0CCF1926-DDDC-4230-AEA6-FDA11143D54E";
paths = (
{
closed = 1;
nodes = (
"72 711 OFFCURVE",
"10 574 OFFCURVE",
"10 347 CURVE SMOOTH",
"10 115 OFFCURVE",
"72 -17 OFFCURVE",
"225 -17 CURVE SMOOTH",
"261 -17 OFFCURVE",
"287 -9 OFFCURVE",
"316 0 CURVE",
"597 0 LINE",
"597 111 LINE",
"393 111 LINE",
"417 156 OFFCURVE",
"434 217 OFFCURVE",
"438 296 CURVE",
"558 296 LINE",
"558 406 LINE",
"437 406 LINE",
"433 481 OFFCURVE",
"419 540 OFFCURVE",
"398 582 CURVE",
"580 582 LINE",
"596 693 LINE",
"320 693 LINE",
"287 704 OFFCURVE",
"261 711 OFFCURVE",
"225 711 CURVE SMOOTH"
);
},
{
closed = 1;
nodes = (
"286 599 OFFCURVE",
"304 534 OFFCURVE",
"304 347 CURVE SMOOTH",
"304 164 OFFCURVE",
"283 94 OFFCURVE",
"226 94 CURVE SMOOTH",
"170 94 OFFCURVE",
"149 164 OFFCURVE",
"149 347 CURVE SMOOTH",
"149 529 OFFCURVE",
"166 599 OFFCURVE",
"226 599 CURVE SMOOTH"
);
}
);
width = 600;
}
);
note = OE;
unicode = 0152;
},
{
glyphname = P;
lastChange = "2016-11-29 10:57:25 +0000";
layers = (
{
layerId = "0CCF1926-DDDC-4230-AEA6-FDA11143D54E";
paths = (
{
closed = 1;
nodes = (
"576 619 OFFCURVE",
"469 693 OFFCURVE",
"280 693 CURVE SMOOTH",
"62 693 LINE",
"62 0 LINE",
"226 0 LINE",
"226 231 LINE",
"302 231 LINE SMOOTH",
"465 231 OFFCURVE",
"576 306 OFFCURVE",
"576 467 CURVE SMOOTH"
);
},
{
closed = 1;
nodes = (
"408 385 OFFCURVE",
"364 349 OFFCURVE",
"291 349 CURVE SMOOTH",
"226 349 LINE",
"226 576 LINE",
"283 576 LINE SMOOTH",
"366 576 OFFCURVE",
"408 541 OFFCURVE",
"408 467 CURVE SMOOTH"
);
}
);
width = 600;
}
);
note = P;
unicode = 0050;
},
{
glyphname = Thorn;
lastChange = "2016-11-29 10:57:25 +0000";
layers = (
{
layerId = "0CCF1926-DDDC-4230-AEA6-FDA11143D54E";
paths = (
{
closed = 1;
nodes = (
"224 693 LINE",
"59 693 LINE",
"59 0 LINE",
"224 0 LINE",
"224 116 LINE",
"301 116 LINE SMOOTH",
"472 116 OFFCURVE",
"576 191 OFFCURVE",
"576 354 CURVE SMOOTH",
"576 507 OFFCURVE",
"467 581 OFFCURVE",
"279 581 CURVE SMOOTH",
"224 581 LINE"
);
},
{
closed = 1;
nodes = (
"284 464 LINE SMOOTH",
"363 464 OFFCURVE",
"406 431 OFFCURVE",
"406 353 CURVE SMOOTH",
"406 266 OFFCURVE",
"362 235 OFFCURVE",
"290 235 CURVE SMOOTH",
"224 235 LINE",
"224 464 LINE"
);
}
);
width = 600;
}
);
note = Thorn;
unicode = 00DE;
},
{
glyphname = Q;
lastChange = "2016-11-29 10:57:25 +0000";
layers = (
{
layerId = "0CCF1926-DDDC-4230-AEA6-FDA11143D54E";
paths = (
{
closed = 1;
nodes = (
"574 572 OFFCURVE",
"485 711 OFFCURVE",
"303 711 CURVE SMOOTH",
"121 711 OFFCURVE",
"32 567 OFFCURVE",
"32 347 CURVE SMOOTH",
"32 122 OFFCURVE",
"116 -14 OFFCURVE",
"290 -14 CURVE SMOOTH",
"411 -14 OFFCURVE",
"456 -69 OFFCURVE",
"500 -173 CURVE",
"634 -127 LINE",
"596 -16 OFFCURVE",
"537 22 OFFCURVE",
"429 40 CURVE",
"538 96 OFFCURVE",
"574 211 OFFCURVE",
"574 347 CURVE SMOOTH"
);
},
{
closed = 1;
nodes = (
"404 179 OFFCURVE",
"383 103 OFFCURVE",
"303 103 CURVE SMOOTH",
"226 103 OFFCURVE",
"202 178 OFFCURVE",
"202 347 CURVE SMOOTH",
"202 515 OFFCURVE",
"225 590 OFFCURVE",
"303 590 CURVE SMOOTH",
"382 590 OFFCURVE",
"404 516 OFFCURVE",
"404 347 CURVE SMOOTH"
);
}
);
width = 600;
}
);
note = Q;
unicode = 0051;
},
{
glyphname = R;
lastChange = "2016-11-29 10:57:25 +0000";
layers = (
{
layerId = "0CCF1926-DDDC-4230-AEA6-FDA11143D54E";
paths = (
{
closed = 1;
nodes = (
"561 626 OFFCURVE",
"465 693 OFFCURVE",
"276 693 CURVE SMOOTH",
"58 693 LINE",
"58 0 LINE",
"222 0 LINE",
"222 265 LINE",
"268 265 LINE",
"418 0 LINE",
"604 0 LINE",
"423 292 LINE",
"500 323 OFFCURVE",
"561 383 OFFCURVE",
"561 482 CURVE SMOOTH"
);
},
{
closed = 1;
nodes = (
"392 409 OFFCURVE",
"354 378 OFFCURVE",
"283 378 CURVE SMOOTH",
"222 378 LINE",
"222 578 LINE",
"276 578 LINE SMOOTH",
"353 578 OFFCURVE",
"392 549 OFFCURVE",
"392 482 CURVE SMOOTH"
);
}
);
width = 600;
}
);
note = R;
unicode = 0052;
},
{
glyphname = Racute;
lastChange = "2016-11-29 10:57:25 +0000";
layers = (
{
layerId = "0CCF1926-DDDC-4230-AEA6-FDA11143D54E";
paths = (
{
closed = 1;
nodes = (
"378 953 LINE",
"162 831 LINE",
"200 751 LINE",
"437 835 LINE"
);
},
{
closed = 1;
nodes = (
"561 626 OFFCURVE",
"465 693 OFFCURVE",
"276 693 CURVE SMOOTH",
"58 693 LINE",
"58 0 LINE",
"222 0 LINE",
"222 265 LINE",
"268 265 LINE",
"418 0 LINE",
"604 0 LINE",
"423 292 LINE",
"500 323 OFFCURVE",
"561 383 OFFCURVE",
"561 482 CURVE SMOOTH"
);
},
{
closed = 1;
nodes = (
"392 409 OFFCURVE",
"354 378 OFFCURVE",
"283 378 CURVE SMOOTH",
"222 378 LINE",
"222 578 LINE",
"276 578 LINE SMOOTH",
"353 578 OFFCURVE",
"392 549 OFFCURVE",
"392 482 CURVE SMOOTH"
);
}
);
width = 600;
}
);
note = Racute;
unicode = 0154;
},
{
glyphname = Rcaron;
lastChange = "2016-11-29 10:57:25 +0000";
layers = (
{
layerId = "0CCF1926-DDDC-4230-AEA6-FDA11143D54E";
paths = (
{
closed = 1;
nodes = (
"433 946 LINE",
"300 861 LINE",
"167 946 LINE",
"110 881 LINE",
"252 751 LINE",
"348 751 LINE",
"489 881 LINE"
);
},
{
closed = 1;
nodes = (
"561 626 OFFCURVE",
"465 693 OFFCURVE",
"276 693 CURVE SMOOTH",
"58 693 LINE",
"58 0 LINE",
"222 0 LINE",
"222 265 LINE",
"268 265 LINE",
"418 0 LINE",
"604 0 LINE",
"423 292 LINE",
"500 323 OFFCURVE",
"561 383 OFFCURVE",
"561 482 CURVE SMOOTH"
);
},
{
closed = 1;
nodes = (
"392 409 OFFCURVE",
"354 378 OFFCURVE",
"283 378 CURVE SMOOTH",
"222 378 LINE",
"222 578 LINE",
"276 578 LINE SMOOTH",
"353 578 OFFCURVE",
"392 549 OFFCURVE",
"392 482 CURVE SMOOTH"
);
}
);
width = 600;
}
);
note = Rcaron;
unicode = 0158;
},
{
glyphname = Rcommaaccent;
lastChange = "2016-11-29 10:57:25 +0000";
layers = (
{
layerId = "0CCF1926-DDDC-4230-AEA6-FDA11143D54E";
paths = (
{
closed = 1;
nodes = (
"561 626 OFFCURVE",
"465 693 OFFCURVE",
"276 693 CURVE SMOOTH",
"58 693 LINE",
"58 0 LINE",
"222 0 LINE",
"222 265 LINE",
"268 265 LINE",
"418 0 LINE",
"604 0 LINE",
"423 292 LINE",
"500 323 OFFCURVE",
"561 383 OFFCURVE",
"561 482 CURVE SMOOTH"
);
},
{
closed = 1;
nodes = (
"392 409 OFFCURVE",
"354 378 OFFCURVE",
"283 378 CURVE SMOOTH",
"222 378 LINE",
"222 578 LINE",
"276 578 LINE SMOOTH",
"353 578 OFFCURVE",
"392 549 OFFCURVE",
"392 482 CURVE SMOOTH"
);
},
{
closed = 1;
nodes = (
"265 -65 OFFCURVE",
"232 -100 OFFCURVE",
"232 -143 CURVE SMOOTH",
"232 -171 OFFCURVE",
"246 -192 OFFCURVE",
"264 -207 CURVE",
"237 -322 LINE",
"317 -322 LINE",
"366 -225 LINE SMOOTH",
"381 -195 OFFCURVE",
"389 -166 OFFCURVE",
"389 -143 CURVE SMOOTH",
"389 -98 OFFCURVE",
"356 -65 OFFCURVE",
"311 -65 CURVE SMOOTH"
);
}
);
width = 600;
}
);
note = Rcommaaccent;
unicode = 0156;
},
{
glyphname = S;
lastChange = "2016-11-29 10:57:25 +0000";
layers = (
{
layerId = "0CCF1926-DDDC-4230-AEA6-FDA11143D54E";
paths = (
{
closed = 1;
nodes = (
"568 330 OFFCURVE",
"491 386 OFFCURVE",
"359 426 CURVE SMOOTH",
"249 460 OFFCURVE",
"218 478 OFFCURVE",
"218 522 CURVE SMOOTH",
"218 567 OFFCURVE",
"259 590 OFFCURVE",
"321 590 CURVE SMOOTH",
"377 590 OFFCURVE",
"433 571 OFFCURVE",
"480 532 CURVE",
"557 621 LINE",
"497 678 OFFCURVE",
"415 711 OFFCURVE",
"309 711 CURVE SMOOTH",
"165 711 OFFCURVE",
"48 637 OFFCURVE",
"48 509 CURVE SMOOTH",
"48 404 OFFCURVE",
"109 343 OFFCURVE",
"272 293 CURVE SMOOTH",
"368 264 OFFCURVE",
"397 240 OFFCURVE",
"397 190 CURVE SMOOTH",
"397 136 OFFCURVE",
"351 105 OFFCURVE",
"282 105 CURVE SMOOTH",
"208 105 OFFCURVE",
"146 130 OFFCURVE",
"95 175 CURVE",
"12 83 LINE",
"70 26 OFFCURVE",
"155 -17 OFFCURVE",
"286 -17 CURVE SMOOTH",
"463 -17 OFFCURVE",
"568 73 OFFCURVE",
"568 203 CURVE SMOOTH"
);
}
);
width = 600;
}
);
note = S;
unicode = 0053;
},
{
glyphname = Sacute;
lastChange = "2016-11-29 10:57:25 +0000";
layers = (
{
layerId = "0CCF1926-DDDC-4230-AEA6-FDA11143D54E";
paths = (
{
closed = 1;
nodes = (
"388 953 LINE",
"172 831 LINE",
"210 751 LINE",
"447 835 LINE"
);
},
{
closed = 1;
nodes = (
"568 330 OFFCURVE",
"491 386 OFFCURVE",
"359 426 CURVE SMOOTH",
"249 460 OFFCURVE",
"218 478 OFFCURVE",
"218 522 CURVE SMOOTH",
"218 567 OFFCURVE",
"259 590 OFFCURVE",
"321 590 CURVE SMOOTH",
"377 590 OFFCURVE",
"433 571 OFFCURVE",
"480 532 CURVE",
"557 621 LINE",
"497 678 OFFCURVE",
"415 711 OFFCURVE",
"309 711 CURVE SMOOTH",
"165 711 OFFCURVE",
"48 637 OFFCURVE",
"48 509 CURVE SMOOTH",
"48 404 OFFCURVE",
"109 343 OFFCURVE",
"272 293 CURVE SMOOTH",
"368 264 OFFCURVE",
"397 240 OFFCURVE",
"397 190 CURVE SMOOTH",
"397 136 OFFCURVE",
"351 105 OFFCURVE",
"282 105 CURVE SMOOTH",
"208 105 OFFCURVE",
"146 130 OFFCURVE",
"95 175 CURVE",
"12 83 LINE",
"70 26 OFFCURVE",
"155 -17 OFFCURVE",
"286 -17 CURVE SMOOTH",
"463 -17 OFFCURVE",
"568 73 OFFCURVE",
"568 203 CURVE SMOOTH"
);
}
);
width = 600;
}
);
note = Sacute;
unicode = 015A;
},
{
glyphname = Scaron;
lastChange = "2016-11-29 10:57:25 +0000";
layers = (
{
layerId = "0CCF1926-DDDC-4230-AEA6-FDA11143D54E";
paths = (
{
closed = 1;
nodes = (
"443 946 LINE",
"310 861 LINE",
"177 946 LINE",
"120 881 LINE",
"262 751 LINE",
"358 751 LINE",
"499 881 LINE"
);
},
{
closed = 1;
nodes = (
"568 330 OFFCURVE",
"491 386 OFFCURVE",
"359 426 CURVE SMOOTH",
"249 460 OFFCURVE",
"218 478 OFFCURVE",
"218 522 CURVE SMOOTH",
"218 567 OFFCURVE",
"259 590 OFFCURVE",
"321 590 CURVE SMOOTH",
"377 590 OFFCURVE",
"433 571 OFFCURVE",
"480 532 CURVE",
"557 621 LINE",
"497 678 OFFCURVE",
"415 711 OFFCURVE",
"309 711 CURVE SMOOTH",
"165 711 OFFCURVE",
"48 637 OFFCURVE",
"48 509 CURVE SMOOTH",
"48 404 OFFCURVE",
"109 343 OFFCURVE",
"272 293 CURVE SMOOTH",
"368 264 OFFCURVE",
"397 240 OFFCURVE",
"397 190 CURVE SMOOTH",
"397 136 OFFCURVE",
"351 105 OFFCURVE",
"282 105 CURVE SMOOTH",
"208 105 OFFCURVE",
"146 130 OFFCURVE",
"95 175 CURVE",
"12 83 LINE",
"70 26 OFFCURVE",
"155 -17 OFFCURVE",
"286 -17 CURVE SMOOTH",
"463 -17 OFFCURVE",
"568 73 OFFCURVE",
"568 203 CURVE SMOOTH"
);
}
);
width = 600;
}
);
note = Scaron;
unicode = 0160;
},
{
glyphname = Scedilla;
lastChange = "2016-11-29 10:57:25 +0000";
layers = (
{
layerId = "0CCF1926-DDDC-4230-AEA6-FDA11143D54E";
paths = (
{
closed = 1;
nodes = (
"568 330 OFFCURVE",
"491 386 OFFCURVE",
"359 426 CURVE SMOOTH",
"249 460 OFFCURVE",
"218 478 OFFCURVE",
"218 522 CURVE SMOOTH",
"218 567 OFFCURVE",
"259 590 OFFCURVE",
"321 590 CURVE SMOOTH",
"377 590 OFFCURVE",
"433 571 OFFCURVE",
"480 532 CURVE",
"557 621 LINE",
"497 678 OFFCURVE",
"415 711 OFFCURVE",
"309 711 CURVE SMOOTH",
"165 711 OFFCURVE",
"48 637 OFFCURVE",
"48 509 CURVE SMOOTH",
"48 404 OFFCURVE",
"109 343 OFFCURVE",
"272 293 CURVE SMOOTH",
"368 264 OFFCURVE",
"397 240 OFFCURVE",
"397 190 CURVE SMOOTH",
"397 136 OFFCURVE",
"351 105 OFFCURVE",
"282 105 CURVE SMOOTH",
"208 105 OFFCURVE",
"146 130 OFFCURVE",
"95 175 CURVE",
"12 83 LINE",
"62 33 OFFCURVE",
"134 -6 OFFCURVE",
"238 -15 CURVE",
"228 -112 LINE",
"289 -112 OFFCURVE",
"320 -119 OFFCURVE",
"320 -145 CURVE SMOOTH",
"320 -168 OFFCURVE",
"299 -176 OFFCURVE",
"267 -176 CURVE SMOOTH",
"245 -176 OFFCURVE",
"223 -169 OFFCURVE",
"203 -159 CURVE",
"167 -232 LINE",
"194 -248 OFFCURVE",
"236 -262 OFFCURVE",
"284 -262 CURVE SMOOTH",
"374 -262 OFFCURVE",
"433 -215 OFFCURVE",
"433 -147 CURVE SMOOTH",
"433 -93 OFFCURVE",
"400 -56 OFFCURVE",
"330 -48 CURVE",
"330 -15 LINE",
"480 -1 OFFCURVE",
"568 84 OFFCURVE",
"568 203 CURVE SMOOTH"
);
}
);
width = 600;
}
);
note = Scedilla;
unicode = 015E;
},
{
glyphname = Scircumflex;
lastChange = "2016-11-29 10:57:25 +0000";
layers = (
{
layerId = "0CCF1926-DDDC-4230-AEA6-FDA11143D54E";
paths = (
{
closed = 1;
nodes = (
"358 943 LINE",
"262 943 LINE",
"120 813 LINE",
"177 748 LINE",
"310 833 LINE",
"443 748 LINE",
"499 813 LINE"
);
},
{
closed = 1;
nodes = (
"568 330 OFFCURVE",
"491 386 OFFCURVE",
"359 426 CURVE SMOOTH",
"249 460 OFFCURVE",
"218 478 OFFCURVE",
"218 522 CURVE SMOOTH",
"218 567 OFFCURVE",
"259 590 OFFCURVE",
"321 590 CURVE SMOOTH",
"377 590 OFFCURVE",
"433 571 OFFCURVE",
"480 532 CURVE",
"557 621 LINE",
"497 678 OFFCURVE",
"415 711 OFFCURVE",
"309 711 CURVE SMOOTH",
"165 711 OFFCURVE",
"48 637 OFFCURVE",
"48 509 CURVE SMOOTH",
"48 404 OFFCURVE",
"109 343 OFFCURVE",
"272 293 CURVE SMOOTH",
"368 264 OFFCURVE",
"397 240 OFFCURVE",
"397 190 CURVE SMOOTH",
"397 136 OFFCURVE",
"351 105 OFFCURVE",
"282 105 CURVE SMOOTH",
"208 105 OFFCURVE",
"146 130 OFFCURVE",
"95 175 CURVE",
"12 83 LINE",
"70 26 OFFCURVE",
"155 -17 OFFCURVE",
"286 -17 CURVE SMOOTH",
"463 -17 OFFCURVE",
"568 73 OFFCURVE",
"568 203 CURVE SMOOTH"
);
}
);
width = 600;
}
);
note = Scircumflex;
unicode = 015C;
},
{
glyphname = Scommaaccent;
lastChange = "2016-11-29 10:57:25 +0000";
layers = (
{
layerId = "0CCF1926-DDDC-4230-AEA6-FDA11143D54E";
paths = (
{
closed = 1;
nodes = (
"568 330 OFFCURVE",
"491 386 OFFCURVE",
"359 426 CURVE SMOOTH",
"249 460 OFFCURVE",
"218 478 OFFCURVE",
"218 522 CURVE SMOOTH",
"218 567 OFFCURVE",
"259 590 OFFCURVE",
"321 590 CURVE SMOOTH",
"377 590 OFFCURVE",
"433 571 OFFCURVE",
"480 532 CURVE",
"557 621 LINE",
"497 678 OFFCURVE",
"415 711 OFFCURVE",
"309 711 CURVE SMOOTH",
"165 711 OFFCURVE",
"48 637 OFFCURVE",
"48 509 CURVE SMOOTH",
"48 404 OFFCURVE",
"109 343 OFFCURVE",
"272 293 CURVE SMOOTH",
"368 264 OFFCURVE",
"397 240 OFFCURVE",
"397 190 CURVE SMOOTH",
"397 136 OFFCURVE",
"351 105 OFFCURVE",
"282 105 CURVE SMOOTH",
"208 105 OFFCURVE",
"146 130 OFFCURVE",
"95 175 CURVE",
"12 83 LINE",
"70 26 OFFCURVE",
"155 -17 OFFCURVE",
"286 -17 CURVE SMOOTH",
"463 -17 OFFCURVE",
"568 73 OFFCURVE",
"568 203 CURVE SMOOTH"
);
},
{
closed = 1;
nodes = (
"255 -65 OFFCURVE",
"222 -100 OFFCURVE",
"222 -143 CURVE SMOOTH",
"222 -171 OFFCURVE",
"236 -192 OFFCURVE",
"254 -207 CURVE",
"227 -322 LINE",
"307 -322 LINE",
"356 -225 LINE SMOOTH",
"371 -195 OFFCURVE",
"379 -166 OFFCURVE",
"379 -143 CURVE SMOOTH",
"379 -98 OFFCURVE",
"346 -65 OFFCURVE",
"301 -65 CURVE SMOOTH"
);
}
);
width = 600;
}
);
note = Scommaaccent;
unicode = 0218;
},
{
glyphname = T;
lastChange = "2016-11-29 10:57:25 +0000";
layers = (
{
layerId = "0CCF1926-DDDC-4230-AEA6-FDA11143D54E";
paths = (
{
closed = 1;
nodes = (
"381 567 LINE",
"567 567 LINE",
"583 693 LINE",
"22 693 LINE",
"22 567 LINE",
"217 567 LINE",
"217 0 LINE",
"381 0 LINE"
);
}
);
width = 600;
}
);
note = T;
unicode = 0054;
},
{
glyphname = Tbar;
lastChange = "2016-11-29 10:57:25 +0000";
layers = (
{
layerId = "0CCF1926-DDDC-4230-AEA6-FDA11143D54E";
paths = (
{
closed = 1;
nodes = (
"567 567 LINE",
"583 693 LINE",
"22 693 LINE",
"22 567 LINE",
"217 567 LINE",
"217 406 LINE",
"101 406 LINE",
"101 314 LINE",
"217 314 LINE",
"217 0 LINE",
"381 0 LINE",
"381 314 LINE",
"498 314 LINE",
"498 406 LINE",
"381 406 LINE",
"381 567 LINE"
);
}
);
width = 600;
}
);
note = Tbar;
unicode = 0166;
},
{
glyphname = Tcaron;
lastChange = "2016-11-29 10:57:25 +0000";
layers = (
{
layerId = "0CCF1926-DDDC-4230-AEA6-FDA11143D54E";
paths = (
{
closed = 1;
nodes = (
"432 946 LINE",
"299 861 LINE",
"166 946 LINE",
"109 881 LINE",
"251 751 LINE",
"347 751 LINE",
"488 881 LINE"
);
},
{
closed = 1;
nodes = (
"381 567 LINE",
"567 567 LINE",
"583 693 LINE",
"22 693 LINE",
"22 567 LINE",
"217 567 LINE",
"217 0 LINE",
"381 0 LINE"
);
}
);
width = 600;
}
);
note = Tcaron;
unicode = 0164;
},
{
glyphname = uni0162;
lastChange = "2016-11-29 10:57:25 +0000";
layers = (
{
layerId = "0CCF1926-DDDC-4230-AEA6-FDA11143D54E";
paths = (
{
closed = 1;
nodes = (
"381 0 LINE",
"381 567 LINE",
"567 567 LINE",
"583 693 LINE",
"22 693 LINE",
"22 567 LINE",
"217 567 LINE",
"217 0 LINE",
"257 0 LINE",
"245 -112 LINE",
"306 -112 OFFCURVE",
"337 -119 OFFCURVE",
"337 -145 CURVE SMOOTH",
"337 -168 OFFCURVE",
"316 -176 OFFCURVE",
"284 -176 CURVE SMOOTH",
"262 -176 OFFCURVE",
"240 -169 OFFCURVE",
"220 -159 CURVE",
"184 -232 LINE",
"211 -248 OFFCURVE",
"253 -262 OFFCURVE",
"301 -262 CURVE SMOOTH",
"391 -262 OFFCURVE",
"450 -215 OFFCURVE",
"450 -147 CURVE SMOOTH",
"450 -93 OFFCURVE",
"417 -56 OFFCURVE",
"347 -48 CURVE",
"347 0 LINE"
);
}
);
width = 600;
}
);
note = uni0162;
unicode = 0162;
},
{
glyphname = uni021A;
lastChange = "2016-11-29 10:57:25 +0000";
layers = (
{
layerId = "0CCF1926-DDDC-4230-AEA6-FDA11143D54E";
paths = (
{
closed = 1;
nodes = (
"381 567 LINE",
"567 567 LINE",
"583 693 LINE",
"22 693 LINE",
"22 567 LINE",
"217 567 LINE",
"217 0 LINE",
"381 0 LINE"
);
},
{
closed = 1;
nodes = (
"254 -65 OFFCURVE",
"221 -100 OFFCURVE",
"221 -143 CURVE SMOOTH",
"221 -171 OFFCURVE",
"235 -192 OFFCURVE",
"253 -207 CURVE",
"226 -322 LINE",
"306 -322 LINE",
"355 -225 LINE SMOOTH",
"370 -195 OFFCURVE",
"378 -166 OFFCURVE",
"378 -143 CURVE SMOOTH",
"378 -98 OFFCURVE",
"345 -65 OFFCURVE",
"300 -65 CURVE SMOOTH"
);
}
);
width = 600;
}
);
note = uni021A;
unicode = 021A;
},
{
glyphname = U;
lastChange = "2016-11-29 10:57:25 +0000";
layers = (
{
layerId = "0CCF1926-DDDC-4230-AEA6-FDA11143D54E";
paths = (
{
closed = 1;
nodes = (
"558 693 LINE",
"393 693 LINE",
"393 293 LINE SMOOTH",
"393 169 OFFCURVE",
"379 105 OFFCURVE",
"300 105 CURVE SMOOTH",
"221 105 OFFCURVE",
"207 169 OFFCURVE",
"207 293 CURVE SMOOTH",
"207 693 LINE",
"42 693 LINE",
"42 232 LINE SMOOTH",
"42 84 OFFCURVE",
"127 -17 OFFCURVE",
"300 -17 CURVE SMOOTH",
"472 -17 OFFCURVE",
"558 90 OFFCURVE",
"558 232 CURVE SMOOTH"
);
}
);
width = 600;
}
);
note = U;
unicode = 0055;
},
{
glyphname = Uacute;
lastChange = "2016-11-29 10:57:25 +0000";
layers = (
{
layerId = "0CCF1926-DDDC-4230-AEA6-FDA11143D54E";
paths = (
{
closed = 1;
nodes = (
"378 953 LINE",
"162 831 LINE",
"200 751 LINE",
"437 835 LINE"
);
},
{
closed = 1;
nodes = (
"558 693 LINE",
"393 693 LINE",
"393 293 LINE SMOOTH",
"393 169 OFFCURVE",
"379 105 OFFCURVE",
"300 105 CURVE SMOOTH",
"221 105 OFFCURVE",
"207 169 OFFCURVE",
"207 293 CURVE SMOOTH",
"207 693 LINE",
"42 693 LINE",
"42 232 LINE SMOOTH",
"42 84 OFFCURVE",
"127 -17 OFFCURVE",
"300 -17 CURVE SMOOTH",
"472 -17 OFFCURVE",
"558 90 OFFCURVE",
"558 232 CURVE SMOOTH"
);
}
);
width = 600;
}
);
note = Uacute;
unicode = 00DA;
},
{
glyphname = Ubreve;
lastChange = "2016-11-29 10:57:25 +0000";
layers = (
{
layerId = "0CCF1926-DDDC-4230-AEA6-FDA11143D54E";
paths = (
{
closed = 1;
nodes = (
"410 751 OFFCURVE",
"463 820 OFFCURVE",
"472 905 CURVE",
"385 921 LINE",
"372 879 OFFCURVE",
"346 861 OFFCURVE",
"300 861 CURVE SMOOTH",
"254 861 OFFCURVE",
"228 879 OFFCURVE",
"215 921 CURVE",
"128 905 LINE",
"138 820 OFFCURVE",
"190 751 OFFCURVE",
"300 751 CURVE SMOOTH"
);
},
{
closed = 1;
nodes = (
"558 693 LINE",
"393 693 LINE",
"393 293 LINE SMOOTH",
"393 169 OFFCURVE",
"379 105 OFFCURVE",
"300 105 CURVE SMOOTH",
"221 105 OFFCURVE",
"207 169 OFFCURVE",
"207 293 CURVE SMOOTH",
"207 693 LINE",
"42 693 LINE",
"42 232 LINE SMOOTH",
"42 84 OFFCURVE",
"127 -17 OFFCURVE",
"300 -17 CURVE SMOOTH",
"472 -17 OFFCURVE",
"558 90 OFFCURVE",
"558 232 CURVE SMOOTH"
);
}
);
width = 600;
}
);
note = Ubreve;
unicode = 016C;
},
{
glyphname = Ucircumflex;
lastChange = "2016-11-29 10:57:25 +0000";
layers = (
{
layerId = "0CCF1926-DDDC-4230-AEA6-FDA11143D54E";
paths = (
{
closed = 1;
nodes = (
"348 943 LINE",
"252 943 LINE",
"110 813 LINE",
"167 748 LINE",
"300 833 LINE",
"433 748 LINE",
"489 813 LINE"
);
},
{
closed = 1;
nodes = (
"558 693 LINE",
"393 693 LINE",
"393 293 LINE SMOOTH",
"393 169 OFFCURVE",
"379 105 OFFCURVE",
"300 105 CURVE SMOOTH",
"221 105 OFFCURVE",
"207 169 OFFCURVE",
"207 293 CURVE SMOOTH",
"207 693 LINE",
"42 693 LINE",
"42 232 LINE SMOOTH",
"42 84 OFFCURVE",
"127 -17 OFFCURVE",
"300 -17 CURVE SMOOTH",
"472 -17 OFFCURVE",
"558 90 OFFCURVE",
"558 232 CURVE SMOOTH"
);
}
);
width = 600;
}
);
note = Ucircumflex;
unicode = 00DB;
},
{
glyphname = Udieresis;
lastChange = "2016-11-29 10:57:25 +0000";
layers = (
{
layerId = "0CCF1926-DDDC-4230-AEA6-FDA11143D54E";
paths = (
{
closed = 1;
nodes = (
"231 762 OFFCURVE",
"267 797 OFFCURVE",
"267 843 CURVE SMOOTH",
"267 887 OFFCURVE",
"231 922 OFFCURVE",
"184 922 CURVE SMOOTH",
"139 922 OFFCURVE",
"102 887 OFFCURVE",
"102 843 CURVE SMOOTH",
"102 797 OFFCURVE",
"139 762 OFFCURVE",
"184 762 CURVE SMOOTH"
);
},
{
closed = 1;
nodes = (
"462 762 OFFCURVE",
"498 797 OFFCURVE",
"498 843 CURVE SMOOTH",
"498 887 OFFCURVE",
"462 922 OFFCURVE",
"416 922 CURVE SMOOTH",
"371 922 OFFCURVE",
"333 887 OFFCURVE",
"333 843 CURVE SMOOTH",
"333 797 OFFCURVE",
"371 762 OFFCURVE",
"416 762 CURVE SMOOTH"
);
},
{
closed = 1;
nodes = (
"558 693 LINE",
"393 693 LINE",
"393 293 LINE SMOOTH",
"393 169 OFFCURVE",
"379 105 OFFCURVE",
"300 105 CURVE SMOOTH",
"221 105 OFFCURVE",
"207 169 OFFCURVE",
"207 293 CURVE SMOOTH",
"207 693 LINE",
"42 693 LINE",
"42 232 LINE SMOOTH",
"42 84 OFFCURVE",
"127 -17 OFFCURVE",
"300 -17 CURVE SMOOTH",
"472 -17 OFFCURVE",
"558 90 OFFCURVE",
"558 232 CURVE SMOOTH"
);
}
);
width = 600;
}
);
note = Udieresis;
unicode = 00DC;
},
{
glyphname = Ugrave;
lastChange = "2016-11-29 10:57:25 +0000";
layers = (
{
layerId = "0CCF1926-DDDC-4230-AEA6-FDA11143D54E";
paths = (
{
closed = 1;
nodes = (
"222 953 LINE",
"162 835 LINE",
"400 751 LINE",
"437 831 LINE"
);
},
{
closed = 1;
nodes = (
"558 693 LINE",
"393 693 LINE",
"393 293 LINE SMOOTH",
"393 169 OFFCURVE",
"379 105 OFFCURVE",
"300 105 CURVE SMOOTH",
"221 105 OFFCURVE",
"207 169 OFFCURVE",
"207 293 CURVE SMOOTH",
"207 693 LINE",
"42 693 LINE",
"42 232 LINE SMOOTH",
"42 84 OFFCURVE",
"127 -17 OFFCURVE",
"300 -17 CURVE SMOOTH",
"472 -17 OFFCURVE",
"558 90 OFFCURVE",
"558 232 CURVE SMOOTH"
);
}
);
width = 600;
}
);
note = Ugrave;
unicode = 00D9;
},
{
glyphname = Uhungarumlaut;
lastChange = "2016-11-29 10:57:25 +0000";
layers = (
{
layerId = "0CCF1926-DDDC-4230-AEA6-FDA11143D54E";
paths = (
{
closed = 1;
nodes = (
"159 786 LINE",
"241 750 LINE",
"365 933 LINE",
"258 982 LINE"
);
},
{
closed = 1;
nodes = (
"322 788 LINE",
"403 749 LINE",
"528 931 LINE",
"422 982 LINE"
);
},
{
closed = 1;
nodes = (
"558 693 LINE",
"393 693 LINE",
"393 293 LINE SMOOTH",
"393 169 OFFCURVE",
"379 105 OFFCURVE",
"300 105 CURVE SMOOTH",
"221 105 OFFCURVE",
"207 169 OFFCURVE",
"207 293 CURVE SMOOTH",
"207 693 LINE",
"42 693 LINE",
"42 232 LINE SMOOTH",
"42 84 OFFCURVE",
"127 -17 OFFCURVE",
"300 -17 CURVE SMOOTH",
"472 -17 OFFCURVE",
"558 90 OFFCURVE",
"558 232 CURVE SMOOTH"
);
}
);
width = 600;
}
);
note = Uhungarumlaut;
unicode = 0170;
},
{
glyphname = Umacron;
lastChange = "2016-11-29 10:57:25 +0000";
layers = (
{
layerId = "0CCF1926-DDDC-4230-AEA6-FDA11143D54E";
paths = (
{
closed = 1;
nodes = (
"453 783 LINE",
"453 892 LINE",
"147 892 LINE",
"147 783 LINE"
);
},
{
closed = 1;
nodes = (
"558 693 LINE",
"393 693 LINE",
"393 293 LINE SMOOTH",
"393 169 OFFCURVE",
"379 105 OFFCURVE",
"300 105 CURVE SMOOTH",
"221 105 OFFCURVE",
"207 169 OFFCURVE",
"207 293 CURVE SMOOTH",
"207 693 LINE",
"42 693 LINE",
"42 232 LINE SMOOTH",
"42 84 OFFCURVE",
"127 -17 OFFCURVE",
"300 -17 CURVE SMOOTH",
"472 -17 OFFCURVE",
"558 90 OFFCURVE",
"558 232 CURVE SMOOTH"
);
}
);
width = 600;
}
);
note = Umacron;
unicode = 016A;
},
{
glyphname = Uogonek;
lastChange = "2016-11-29 10:57:25 +0000";
layers = (
{
layerId = "0CCF1926-DDDC-4230-AEA6-FDA11143D54E";
paths = (
{
closed = 1;
nodes = (
"393 693 LINE",
"393 293 LINE SMOOTH",
"393 169 OFFCURVE",
"379 105 OFFCURVE",
"300 105 CURVE SMOOTH",
"221 105 OFFCURVE",
"207 169 OFFCURVE",
"207 293 CURVE SMOOTH",
"207 693 LINE",
"42 693 LINE",
"42 232 LINE SMOOTH",
"42 102 OFFCURVE",
"107 8 OFFCURVE",
"241 -13 CURVE",
"203 -40 OFFCURVE",
"180 -77 OFFCURVE",
"180 -130 CURVE SMOOTH",
"180 -209 OFFCURVE",
"246 -253 OFFCURVE",
"331 -253 CURVE SMOOTH",
"354 -253 OFFCURVE",
"372 -250 OFFCURVE",
"390 -245 CURVE",
"402 -152 LINE",
"385 -156 OFFCURVE",
"369 -159 OFFCURVE",
"348 -159 CURVE SMOOTH",
"313 -159 OFFCURVE",
"290 -143 OFFCURVE",
"290 -110 CURVE SMOOTH",
"290 -71 OFFCURVE",
"310 -36 OFFCURVE",
"390 -5 CURVE",
"502 26 OFFCURVE",
"558 117 OFFCURVE",
"558 232 CURVE SMOOTH",
"558 693 LINE"
);
}
);
width = 600;
}
);
note = Uogonek;
unicode = 0172;
},
{
glyphname = Uring;
lastChange = "2016-11-29 10:57:25 +0000";
layers = (
{
layerId = "0CCF1926-DDDC-4230-AEA6-FDA11143D54E";
paths = (
{
closed = 1;
nodes = (
"214 990 OFFCURVE",
"161 929 OFFCURVE",
"161 859 CURVE SMOOTH",
"161 788 OFFCURVE",
"214 726 OFFCURVE",
"299 726 CURVE SMOOTH",
"385 726 OFFCURVE",
"438 788 OFFCURVE",
"438 859 CURVE SMOOTH",
"438 929 OFFCURVE",
"385 990 OFFCURVE",
"299 990 CURVE SMOOTH"
);
},
{
closed = 1;
nodes = (
"326 908 OFFCURVE",
"344 892 OFFCURVE",
"344 859 CURVE SMOOTH",
"344 825 OFFCURVE",
"326 808 OFFCURVE",
"299 808 CURVE SMOOTH",
"273 808 OFFCURVE",
"255 825 OFFCURVE",
"255 859 CURVE SMOOTH",
"255 892 OFFCURVE",
"273 908 OFFCURVE",
"299 908 CURVE SMOOTH"
);
},
{
closed = 1;
nodes = (
"558 693 LINE",
"393 693 LINE",
"393 293 LINE SMOOTH",
"393 169 OFFCURVE",
"379 105 OFFCURVE",
"300 105 CURVE SMOOTH",
"221 105 OFFCURVE",
"207 169 OFFCURVE",
"207 293 CURVE SMOOTH",
"207 693 LINE",
"42 693 LINE",
"42 232 LINE SMOOTH",
"42 84 OFFCURVE",
"127 -17 OFFCURVE",
"300 -17 CURVE SMOOTH",
"472 -17 OFFCURVE",
"558 90 OFFCURVE",
"558 232 CURVE SMOOTH"
);
}
);
width = 600;
}
);
note = Uring;
unicode = 016E;
},
{
glyphname = Utilde;
lastChange = "2016-11-29 10:57:25 +0000";
layers = (
{
layerId = "0CCF1926-DDDC-4230-AEA6-FDA11143D54E";
paths = (
{
closed = 1;
nodes = (
"416 760 OFFCURVE",
"460 810 OFFCURVE",
"486 877 CURVE",
"407 915 LINE",
"390 886 OFFCURVE",
"377 872 OFFCURVE",
"355 872 CURVE SMOOTH",
"321 872 OFFCURVE",
"300 917 OFFCURVE",
"239 917 CURVE SMOOTH",
"178 917 OFFCURVE",
"135 863 OFFCURVE",
"110 799 CURVE",
"189 761 LINE",
"205 790 OFFCURVE",
"217 805 OFFCURVE",
"242 805 CURVE SMOOTH",
"275 805 OFFCURVE",
"298 760 OFFCURVE",
"356 760 CURVE SMOOTH"
);
},
{
closed = 1;
nodes = (
"558 693 LINE",
"393 693 LINE",
"393 293 LINE SMOOTH",
"393 169 OFFCURVE",
"379 105 OFFCURVE",
"300 105 CURVE SMOOTH",
"221 105 OFFCURVE",
"207 169 OFFCURVE",
"207 293 CURVE SMOOTH",
"207 693 LINE",
"42 693 LINE",
"42 232 LINE SMOOTH",
"42 84 OFFCURVE",
"127 -17 OFFCURVE",
"300 -17 CURVE SMOOTH",
"472 -17 OFFCURVE",
"558 90 OFFCURVE",
"558 232 CURVE SMOOTH"
);
}
);
width = 600;
}
);
note = Utilde;
unicode = 0168;
},
{
glyphname = V;
lastChange = "2016-11-29 10:57:25 +0000";
layers = (
{
layerId = "0CCF1926-DDDC-4230-AEA6-FDA11143D54E";
paths = (
{
closed = 1;
nodes = (
"303 128 LINE",
"174 693 LINE",
"0 693 LINE",
"199 0 LINE",
"401 0 LINE",
"601 693 LINE",
"433 693 LINE"
);
}
);
width = 600;
}
);
note = V;
unicode = 0056;
},
{
glyphname = W;
lastChange = "2016-11-29 10:57:25 +0000";
layers = (
{
layerId = "0CCF1926-DDDC-4230-AEA6-FDA11143D54E";
paths = (
{
closed = 1;
nodes = (
"603 693 LINE",
"460 693 LINE",
"426 140 LINE",
"373 613 LINE",
"231 613 LINE",
"174 140 LINE",
"150 693 LINE",
"-3 693 LINE",
"72 0 LINE",
"245 0 LINE",
"301 496 LINE",
"352 0 LINE",
"522 0 LINE"
);
}
);
width = 600;
}
);
note = W;
unicode = 0057;
},
{
glyphname = Wacute;
lastChange = "2016-11-29 10:57:25 +0000";
layers = (
{
layerId = "0CCF1926-DDDC-4230-AEA6-FDA11143D54E";
paths = (
{
closed = 1;
nodes = (
"378 953 LINE",
"162 831 LINE",
"200 751 LINE",
"437 835 LINE"
);
},
{
closed = 1;
nodes = (
"603 693 LINE",
"460 693 LINE",
"426 140 LINE",
"373 613 LINE",
"231 613 LINE",
"174 140 LINE",
"150 693 LINE",
"-3 693 LINE",
"72 0 LINE",
"245 0 LINE",
"301 496 LINE",
"352 0 LINE",
"522 0 LINE"
);
}
);
width = 600;
}
);
note = Wacute;
unicode = 1E82;
},
{
glyphname = Wcircumflex;
lastChange = "2016-11-29 10:57:25 +0000";
layers = (
{
layerId = "0CCF1926-DDDC-4230-AEA6-FDA11143D54E";
paths = (
{
closed = 1;
nodes = (
"348 943 LINE",
"252 943 LINE",
"110 813 LINE",
"167 748 LINE",
"300 833 LINE",
"433 748 LINE",
"489 813 LINE"
);
},
{
closed = 1;
nodes = (
"603 693 LINE",
"460 693 LINE",
"426 140 LINE",
"373 613 LINE",
"231 613 LINE",
"174 140 LINE",
"150 693 LINE",
"-3 693 LINE",
"72 0 LINE",
"245 0 LINE",
"301 496 LINE",
"352 0 LINE",
"522 0 LINE"
);
}
);
width = 600;
}
);
note = Wcircumflex;
unicode = 0174;
},
{
glyphname = Wdieresis;
lastChange = "2016-11-29 10:57:25 +0000";
layers = (
{
layerId = "0CCF1926-DDDC-4230-AEA6-FDA11143D54E";
paths = (
{
closed = 1;
nodes = (
"231 762 OFFCURVE",
"267 797 OFFCURVE",
"267 843 CURVE SMOOTH",
"267 887 OFFCURVE",
"231 922 OFFCURVE",
"184 922 CURVE SMOOTH",
"139 922 OFFCURVE",
"102 887 OFFCURVE",
"102 843 CURVE SMOOTH",
"102 797 OFFCURVE",
"139 762 OFFCURVE",
"184 762 CURVE SMOOTH"
);
},
{
closed = 1;
nodes = (
"462 762 OFFCURVE",
"498 797 OFFCURVE",
"498 843 CURVE SMOOTH",
"498 887 OFFCURVE",
"462 922 OFFCURVE",
"416 922 CURVE SMOOTH",
"371 922 OFFCURVE",
"333 887 OFFCURVE",
"333 843 CURVE SMOOTH",
"333 797 OFFCURVE",
"371 762 OFFCURVE",
"416 762 CURVE SMOOTH"
);
},
{
closed = 1;
nodes = (
"603 693 LINE",
"460 693 LINE",
"426 140 LINE",
"373 613 LINE",
"231 613 LINE",
"174 140 LINE",
"150 693 LINE",
"-3 693 LINE",
"72 0 LINE",
"245 0 LINE",
"301 496 LINE",
"352 0 LINE",
"522 0 LINE"
);
}
);
width = 600;
}
);
note = Wdieresis;
unicode = 1E84;
},
{
glyphname = Wgrave;
lastChange = "2016-11-29 10:57:25 +0000";
layers = (
{
layerId = "0CCF1926-DDDC-4230-AEA6-FDA11143D54E";
paths = (
{
closed = 1;
nodes = (
"222 953 LINE",
"162 835 LINE",
"400 751 LINE",
"437 831 LINE"
);
},
{
closed = 1;
nodes = (
"603 693 LINE",
"460 693 LINE",
"426 140 LINE",
"373 613 LINE",
"231 613 LINE",
"174 140 LINE",
"150 693 LINE",
"-3 693 LINE",
"72 0 LINE",
"245 0 LINE",
"301 496 LINE",
"352 0 LINE",
"522 0 LINE"
);
}
);
width = 600;
}
);
note = Wgrave;
unicode = 1E80;
},
{
glyphname = X;
lastChange = "2016-11-29 10:57:25 +0000";
layers = (
{
layerId = "0CCF1926-DDDC-4230-AEA6-FDA11143D54E";
paths = (
{
closed = 1;
nodes = (
"19 693 LINE",
"200 368 LINE",
"4 0 LINE",
"178 0 LINE",
"298 264 LINE",
"420 0 LINE",
"597 0 LINE",
"396 375 LINE",
"580 693 LINE",
"407 693 LINE",
"300 471 LINE",
"196 693 LINE"
);
}
);
width = 600;
}
);
note = X;
unicode = 0058;
},
{
glyphname = Y;
lastChange = "2016-11-29 10:57:25 +0000";
layers = (
{
layerId = "0CCF1926-DDDC-4230-AEA6-FDA11143D54E";
paths = (
{
closed = 1;
nodes = (
"382 260 LINE",
"608 693 LINE",
"435 693 LINE",
"303 395 LINE",
"172 693 LINE",
"-8 693 LINE",
"218 259 LINE",
"218 0 LINE",
"382 0 LINE"
);
}
);
width = 600;
}
);
note = Y;
unicode = 0059;
},
{
glyphname = Yacute;
lastChange = "2016-11-29 10:57:25 +0000";
layers = (
{
layerId = "0CCF1926-DDDC-4230-AEA6-FDA11143D54E";
paths = (
{
closed = 1;
nodes = (
"378 953 LINE",
"162 831 LINE",
"200 751 LINE",
"437 835 LINE"
);
},
{
closed = 1;
nodes = (
"382 260 LINE",
"608 693 LINE",
"435 693 LINE",
"303 395 LINE",
"172 693 LINE",
"-8 693 LINE",
"218 259 LINE",
"218 0 LINE",
"382 0 LINE"
);
}
);
width = 600;
}
);
note = Yacute;
unicode = 00DD;
},
{
glyphname = Ycircumflex;
lastChange = "2016-11-29 10:57:25 +0000";
layers = (
{
layerId = "0CCF1926-DDDC-4230-AEA6-FDA11143D54E";
paths = (
{
closed = 1;
nodes = (
"348 943 LINE",
"252 943 LINE",
"110 813 LINE",
"167 748 LINE",
"300 833 LINE",
"433 748 LINE",
"489 813 LINE"
);
},
{
closed = 1;
nodes = (
"382 260 LINE",
"608 693 LINE",
"435 693 LINE",
"303 395 LINE",
"172 693 LINE",
"-8 693 LINE",
"218 259 LINE",
"218 0 LINE",
"382 0 LINE"
);
}
);
width = 600;
}
);
note = Ycircumflex;
unicode = 0176;
},
{
glyphname = Ydieresis;
lastChange = "2016-11-29 10:57:25 +0000";
layers = (
{
layerId = "0CCF1926-DDDC-4230-AEA6-FDA11143D54E";
paths = (
{
closed = 1;
nodes = (
"231 762 OFFCURVE",
"267 797 OFFCURVE",
"267 843 CURVE SMOOTH",
"267 887 OFFCURVE",
"231 922 OFFCURVE",
"184 922 CURVE SMOOTH",
"139 922 OFFCURVE",
"102 887 OFFCURVE",
"102 843 CURVE SMOOTH",
"102 797 OFFCURVE",
"139 762 OFFCURVE",
"184 762 CURVE SMOOTH"
);
},
{
closed = 1;
nodes = (
"462 762 OFFCURVE",
"498 797 OFFCURVE",
"498 843 CURVE SMOOTH",
"498 887 OFFCURVE",
"462 922 OFFCURVE",
"416 922 CURVE SMOOTH",
"371 922 OFFCURVE",
"333 887 OFFCURVE",
"333 843 CURVE SMOOTH",
"333 797 OFFCURVE",
"371 762 OFFCURVE",
"416 762 CURVE SMOOTH"
);
},
{
closed = 1;
nodes = (
"382 260 LINE",
"608 693 LINE",
"435 693 LINE",
"303 395 LINE",
"172 693 LINE",
"-8 693 LINE",
"218 259 LINE",
"218 0 LINE",
"382 0 LINE"
);
}
);
width = 600;
}
);
note = Ydieresis;
unicode = 0178;
},
{
glyphname = Ygrave;
lastChange = "2016-11-29 10:57:25 +0000";
layers = (
{
layerId = "0CCF1926-DDDC-4230-AEA6-FDA11143D54E";
paths = (
{
closed = 1;
nodes = (
"222 953 LINE",
"162 835 LINE",
"400 751 LINE",
"437 831 LINE"
);
},
{
closed = 1;
nodes = (
"382 260 LINE",
"608 693 LINE",
"435 693 LINE",
"303 395 LINE",
"172 693 LINE",
"-8 693 LINE",
"218 259 LINE",
"218 0 LINE",
"382 0 LINE"
);
}
);
width = 600;
}
);
note = Ygrave;
unicode = 1EF2;
},
{
glyphname = Z;
lastChange = "2016-11-29 10:57:25 +0000";
layers = (
{
layerId = "0CCF1926-DDDC-4230-AEA6-FDA11143D54E";
paths = (
{
closed = 1;
nodes = (
"232 131 LINE",
"554 569 LINE",
"554 693 LINE",
"75 693 LINE",
"75 566 LINE",
"368 566 LINE",
"39 123 LINE",
"39 0 LINE",
"545 0 LINE",
"562 131 LINE"
);
}
);
width = 600;
}
);
note = Z;
unicode = 005A;
},
{
glyphname = Zacute;
lastChange = "2016-11-29 10:57:25 +0000";
layers = (
{
layerId = "0CCF1926-DDDC-4230-AEA6-FDA11143D54E";
paths = (
{
closed = 1;
nodes = (
"391 953 LINE",
"175 831 LINE",
"213 751 LINE",
"450 835 LINE"
);
},
{
closed = 1;
nodes = (
"232 131 LINE",
"554 569 LINE",
"554 693 LINE",
"75 693 LINE",
"75 566 LINE",
"368 566 LINE",
"39 123 LINE",
"39 0 LINE",
"545 0 LINE",
"562 131 LINE"
);
}
);
width = 600;
}
);
note = Zacute;
unicode = 0179;
},
{
glyphname = Zcaron;
lastChange = "2016-11-29 10:57:25 +0000";
layers = (
{
layerId = "0CCF1926-DDDC-4230-AEA6-FDA11143D54E";
paths = (
{
closed = 1;
nodes = (
"446 946 LINE",
"313 861 LINE",
"180 946 LINE",
"123 881 LINE",
"265 751 LINE",
"361 751 LINE",
"502 881 LINE"
);
},
{
closed = 1;
nodes = (
"232 131 LINE",
"554 569 LINE",
"554 693 LINE",
"75 693 LINE",
"75 566 LINE",
"368 566 LINE",
"39 123 LINE",
"39 0 LINE",
"545 0 LINE",
"562 131 LINE"
);
}
);
width = 600;
}
);
note = Zcaron;
unicode = 017D;
},
{
glyphname = Zdotaccent;
lastChange = "2016-11-29 10:57:25 +0000";
layers = (
{
layerId = "0CCF1926-DDDC-4230-AEA6-FDA11143D54E";
paths = (
{
closed = 1;
nodes = (
"258 934 OFFCURVE",
"219 895 OFFCURVE",
"219 845 CURVE SMOOTH",
"219 794 OFFCURVE",
"258 756 OFFCURVE",
"313 756 CURVE SMOOTH",
"368 756 OFFCURVE",
"406 794 OFFCURVE",
"406 845 CURVE SMOOTH",
"406 895 OFFCURVE",
"368 934 OFFCURVE",
"313 934 CURVE SMOOTH"
);
},
{
closed = 1;
nodes = (
"232 131 LINE",
"554 569 LINE",
"554 693 LINE",
"75 693 LINE",
"75 566 LINE",
"368 566 LINE",
"39 123 LINE",
"39 0 LINE",
"545 0 LINE",
"562 131 LINE"
);
}
);
width = 600;
}
);
note = Zdotaccent;
unicode = 017B;
},
{
glyphname = Cacute.loclPLK;
lastChange = "2016-11-29 10:57:25 +0000";
layers = (
{
layerId = "0CCF1926-DDDC-4230-AEA6-FDA11143D54E";
paths = (
{
closed = 1;
nodes = (
"389 972 LINE",
"288 787 LINE",
"364 739 LINE",
"511 895 LINE"
);
},
{
closed = 1;
nodes = (
"175 711 OFFCURVE",
"34 580 OFFCURVE",
"34 348 CURVE SMOOTH",
"34 110 OFFCURVE",
"168 -17 OFFCURVE",
"356 -17 CURVE SMOOTH",
"463 -17 OFFCURVE",
"538 25 OFFCURVE",
"589 77 CURVE",
"515 172 LINE",
"476 141 OFFCURVE",
"434 110 OFFCURVE",
"365 110 CURVE SMOOTH",
"270 110 OFFCURVE",
"204 181 OFFCURVE",
"204 348 CURVE SMOOTH",
"204 518 OFFCURVE",
"274 589 OFFCURVE",
"362 589 CURVE SMOOTH",
"416 589 OFFCURVE",
"462 569 OFFCURVE",
"500 538 CURVE",
"580 635 LINE",
"522 683 OFFCURVE",
"458 711 OFFCURVE",
"358 711 CURVE SMOOTH"
);
}
);
width = 600;
}
);
note = Cacute.loclPLK;
},
{
glyphname = Nacute.loclPLK;
lastChange = "2016-11-29 10:57:25 +0000";
layers = (
{
layerId = "0CCF1926-DDDC-4230-AEA6-FDA11143D54E";
paths = (
{
closed = 1;
nodes = (
"338 972 LINE",
"237 787 LINE",
"313 739 LINE",
"460 895 LINE"
);
},
{
closed = 1;
nodes = (
"349 0 LINE",
"548 0 LINE",
"548 693 LINE",
"409 693 LINE",
"409 428 LINE SMOOTH",
"409 303 OFFCURVE",
"423 202 OFFCURVE",
"433 138 CURVE",
"257 693 LINE",
"52 693 LINE",
"52 0 LINE",
"191 0 LINE",
"191 261 LINE SMOOTH",
"191 383 OFFCURVE",
"175 498 OFFCURVE",
"167 557 CURVE"
);
}
);
width = 600;
}
);
note = Nacute.loclPLK;
},
{
glyphname = Oacute.loclPLK;
lastChange = "2016-11-29 10:57:25 +0000";
layers = (
{
layerId = "0CCF1926-DDDC-4230-AEA6-FDA11143D54E";
paths = (
{
closed = 1;
nodes = (
"328 972 LINE",
"227 787 LINE",
"303 739 LINE",
"450 895 LINE"
);
},
{
closed = 1;
nodes = (
"577 572 OFFCURVE",
"482 711 OFFCURVE",
"300 711 CURVE SMOOTH",
"118 711 OFFCURVE",
"23 567 OFFCURVE",
"23 347 CURVE SMOOTH",
"23 122 OFFCURVE",
"118 -17 OFFCURVE",
"300 -17 CURVE SMOOTH",
"482 -17 OFFCURVE",
"577 127 OFFCURVE",
"577 347 CURVE SMOOTH"
);
},
{
closed = 1;
nodes = (
"409 179 OFFCURVE",
"380 103 OFFCURVE",
"300 103 CURVE SMOOTH",
"223 103 OFFCURVE",
"191 177 OFFCURVE",
"191 347 CURVE SMOOTH",
"191 517 OFFCURVE",
"222 591 OFFCURVE",
"300 591 CURVE SMOOTH",
"378 591 OFFCURVE",
"409 517 OFFCURVE",
"409 347 CURVE SMOOTH"
);
}
);
width = 600;
}
);
note = Oacute.loclPLK;
},
{
glyphname = Sacute.loclPLK;
lastChange = "2016-11-29 10:57:25 +0000";
layers = (
{
layerId = "0CCF1926-DDDC-4230-AEA6-FDA11143D54E";
paths = (
{
closed = 1;
nodes = (
"338 972 LINE",
"237 787 LINE",
"313 739 LINE",
"460 895 LINE"
);
},
{
closed = 1;
nodes = (
"568 330 OFFCURVE",
"491 386 OFFCURVE",
"359 426 CURVE SMOOTH",
"249 460 OFFCURVE",
"218 478 OFFCURVE",
"218 522 CURVE SMOOTH",
"218 567 OFFCURVE",
"259 590 OFFCURVE",
"321 590 CURVE SMOOTH",
"377 590 OFFCURVE",
"433 571 OFFCURVE",
"480 532 CURVE",
"557 621 LINE",
"497 678 OFFCURVE",
"415 711 OFFCURVE",
"309 711 CURVE SMOOTH",
"165 711 OFFCURVE",
"48 637 OFFCURVE",
"48 509 CURVE SMOOTH",
"48 404 OFFCURVE",
"109 343 OFFCURVE",
"272 293 CURVE SMOOTH",
"368 264 OFFCURVE",
"397 240 OFFCURVE",
"397 190 CURVE SMOOTH",
"397 136 OFFCURVE",
"351 105 OFFCURVE",
"282 105 CURVE SMOOTH",
"208 105 OFFCURVE",
"146 130 OFFCURVE",
"95 175 CURVE",
"12 83 LINE",
"70 26 OFFCURVE",
"155 -17 OFFCURVE",
"286 -17 CURVE SMOOTH",
"463 -17 OFFCURVE",
"568 73 OFFCURVE",
"568 203 CURVE SMOOTH"
);
}
);
width = 600;
}
);
note = Sacute.loclPLK;
},
{
glyphname = Zacute.loclPLK;
lastChange = "2016-11-29 10:57:25 +0000";
layers = (
{
layerId = "0CCF1926-DDDC-4230-AEA6-FDA11143D54E";
paths = (
{
closed = 1;
nodes = (
"341 972 LINE",
"240 787 LINE",
"316 739 LINE",
"463 895 LINE"
);
},
{
closed = 1;
nodes = (
"232 131 LINE",
"554 569 LINE",
"554 693 LINE",
"75 693 LINE",
"75 566 LINE",
"368 566 LINE",
"39 123 LINE",
"39 0 LINE",
"545 0 LINE",
"562 131 LINE"
);
}
);
width = 600;
}
);
note = Zacute.loclPLK;
},
{
glyphname = a;
lastChange = "2016-11-29 10:57:25 +0000";
layers = (
{
layerId = "0CCF1926-DDDC-4230-AEA6-FDA11143D54E";
paths = (
{
closed = 1;
nodes = (
"517 361 LINE SMOOTH",
"517 483 OFFCURVE",
"443 549 OFFCURVE",
"285 549 CURVE SMOOTH",
"226 549 OFFCURVE",
"147 535 OFFCURVE",
"78 509 CURVE",
"114 404 LINE",
"167 422 OFFCURVE",
"226 432 OFFCURVE",
"260 432 CURVE SMOOTH",
"328 432 OFFCURVE",
"365 406 OFFCURVE",
"365 350 CURVE SMOOTH",
"365 331 LINE",
"294 331 LINE SMOOTH",
"130 331 OFFCURVE",
"35 265 OFFCURVE",
"35 150 CURVE SMOOTH",
"35 52 OFFCURVE",
"105 -17 OFFCURVE",
"215 -17 CURVE SMOOTH",
"281 -17 OFFCURVE",
"348 6 OFFCURVE",
"389 55 CURVE",
"414 11 OFFCURVE",
"457 -9 OFFCURVE",
"519 -15 CURVE",
"552 89 LINE",
"527 98 OFFCURVE",
"517 113 OFFCURVE",
"517 153 CURVE SMOOTH"
);
},
{
closed = 1;
nodes = (
"224 96 OFFCURVE",
"198 120 OFFCURVE",
"198 161 CURVE SMOOTH",
"198 213 OFFCURVE",
"238 241 OFFCURVE",
"326 241 CURVE SMOOTH",
"365 241 LINE",
"365 154 LINE",
"345 117 OFFCURVE",
"303 96 OFFCURVE",
"269 96 CURVE SMOOTH"
);
}
);
width = 600;
}
);
note = a;
unicode = 0061;
},
{
glyphname = aacute;
lastChange = "2016-11-29 10:57:25 +0000";
layers = (
{
layerId = "0CCF1926-DDDC-4230-AEA6-FDA11143D54E";
paths = (
{
closed = 1;
nodes = (
"369 835 LINE",
"151 703 LINE",
"194 622 LINE",
"431 716 LINE"
);
},
{
closed = 1;
nodes = (
"517 361 LINE SMOOTH",
"517 483 OFFCURVE",
"443 549 OFFCURVE",
"285 549 CURVE SMOOTH",
"226 549 OFFCURVE",
"147 535 OFFCURVE",
"78 509 CURVE",
"114 404 LINE",
"167 422 OFFCURVE",
"226 432 OFFCURVE",
"260 432 CURVE SMOOTH",
"328 432 OFFCURVE",
"365 406 OFFCURVE",
"365 350 CURVE SMOOTH",
"365 331 LINE",
"294 331 LINE SMOOTH",
"130 331 OFFCURVE",
"35 265 OFFCURVE",
"35 150 CURVE SMOOTH",
"35 52 OFFCURVE",
"105 -17 OFFCURVE",
"215 -17 CURVE SMOOTH",
"281 -17 OFFCURVE",
"348 6 OFFCURVE",
"389 55 CURVE",
"414 11 OFFCURVE",
"457 -9 OFFCURVE",
"519 -15 CURVE",
"552 89 LINE",
"527 98 OFFCURVE",
"517 113 OFFCURVE",
"517 153 CURVE SMOOTH"
);
},
{
closed = 1;
nodes = (
"224 96 OFFCURVE",
"198 120 OFFCURVE",
"198 161 CURVE SMOOTH",
"198 213 OFFCURVE",
"238 241 OFFCURVE",
"326 241 CURVE SMOOTH",
"365 241 LINE",
"365 154 LINE",
"345 117 OFFCURVE",
"303 96 OFFCURVE",
"269 96 CURVE SMOOTH"
);
}
);
width = 600;
}
);
note = aacute;
unicode = 00E1;
},
{
glyphname = abreve;
lastChange = "2016-11-29 10:57:25 +0000";
layers = (
{
layerId = "0CCF1926-DDDC-4230-AEA6-FDA11143D54E";
paths = (
{
closed = 1;
nodes = (
"402 612 OFFCURVE",
"457 698 OFFCURVE",
"465 786 CURVE",
"378 801 LINE",
"366 753 OFFCURVE",
"339 720 OFFCURVE",
"293 720 CURVE SMOOTH",
"247 720 OFFCURVE",
"220 753 OFFCURVE",
"208 801 CURVE",
"121 786 LINE",
"129 698 OFFCURVE",
"182 612 OFFCURVE",
"293 612 CURVE SMOOTH"
);
},
{
closed = 1;
nodes = (
"517 361 LINE SMOOTH",
"517 483 OFFCURVE",
"443 549 OFFCURVE",
"285 549 CURVE SMOOTH",
"226 549 OFFCURVE",
"147 535 OFFCURVE",
"78 509 CURVE",
"114 404 LINE",
"167 422 OFFCURVE",
"226 432 OFFCURVE",
"260 432 CURVE SMOOTH",
"328 432 OFFCURVE",
"365 406 OFFCURVE",
"365 350 CURVE SMOOTH",
"365 331 LINE",
"294 331 LINE SMOOTH",
"130 331 OFFCURVE",
"35 265 OFFCURVE",
"35 150 CURVE SMOOTH",
"35 52 OFFCURVE",
"105 -17 OFFCURVE",
"215 -17 CURVE SMOOTH",
"281 -17 OFFCURVE",
"348 6 OFFCURVE",
"389 55 CURVE",
"414 11 OFFCURVE",
"457 -9 OFFCURVE",
"519 -15 CURVE",
"552 89 LINE",
"527 98 OFFCURVE",
"517 113 OFFCURVE",
"517 153 CURVE SMOOTH"
);
},
{
closed = 1;
nodes = (
"224 96 OFFCURVE",
"198 120 OFFCURVE",
"198 161 CURVE SMOOTH",
"198 213 OFFCURVE",
"238 241 OFFCURVE",
"326 241 CURVE SMOOTH",
"365 241 LINE",
"365 154 LINE",
"345 117 OFFCURVE",
"303 96 OFFCURVE",
"269 96 CURVE SMOOTH"
);
}
);
width = 600;
}
);
note = abreve;
unicode = 0103;
},
{
glyphname = acircumflex;
lastChange = "2016-11-29 10:57:25 +0000";
layers = (
{
layerId = "0CCF1926-DDDC-4230-AEA6-FDA11143D54E";
paths = (
{
closed = 1;
nodes = (
"160 611 LINE",
"293 705 LINE",
"426 611 LINE",
"482 676 LINE",
"341 815 LINE",
"245 815 LINE",
"103 676 LINE"
);
},
{
closed = 1;
nodes = (
"517 361 LINE SMOOTH",
"517 483 OFFCURVE",
"443 549 OFFCURVE",
"285 549 CURVE SMOOTH",
"226 549 OFFCURVE",
"147 535 OFFCURVE",
"78 509 CURVE",
"114 404 LINE",
"167 422 OFFCURVE",
"226 432 OFFCURVE",
"260 432 CURVE SMOOTH",
"328 432 OFFCURVE",
"365 406 OFFCURVE",
"365 350 CURVE SMOOTH",
"365 331 LINE",
"294 331 LINE SMOOTH",
"130 331 OFFCURVE",
"35 265 OFFCURVE",
"35 150 CURVE SMOOTH",
"35 52 OFFCURVE",
"105 -17 OFFCURVE",
"215 -17 CURVE SMOOTH",
"281 -17 OFFCURVE",
"348 6 OFFCURVE",
"389 55 CURVE",
"414 11 OFFCURVE",
"457 -9 OFFCURVE",
"519 -15 CURVE",
"552 89 LINE",
"527 98 OFFCURVE",
"517 113 OFFCURVE",
"517 153 CURVE SMOOTH"
);
},
{
closed = 1;
nodes = (
"224 96 OFFCURVE",
"198 120 OFFCURVE",
"198 161 CURVE SMOOTH",
"198 213 OFFCURVE",
"238 241 OFFCURVE",
"326 241 CURVE SMOOTH",
"365 241 LINE",
"365 154 LINE",
"345 117 OFFCURVE",
"303 96 OFFCURVE",
"269 96 CURVE SMOOTH"
);
}
);
width = 600;
}
);
note = acircumflex;
unicode = 00E2;
},
{
glyphname = adieresis;
lastChange = "2016-11-29 10:57:25 +0000";
layers = (
{
layerId = "0CCF1926-DDDC-4230-AEA6-FDA11143D54E";
paths = (
{
closed = 1;
nodes = (
"224 637 OFFCURVE",
"260 672 OFFCURVE",
"260 718 CURVE SMOOTH",
"260 762 OFFCURVE",
"224 797 OFFCURVE",
"177 797 CURVE SMOOTH",
"132 797 OFFCURVE",
"95 762 OFFCURVE",
"95 718 CURVE SMOOTH",
"95 672 OFFCURVE",
"132 637 OFFCURVE",
"177 637 CURVE SMOOTH"
);
},
{
closed = 1;
nodes = (
"455 637 OFFCURVE",
"491 672 OFFCURVE",
"491 718 CURVE SMOOTH",
"491 762 OFFCURVE",
"455 797 OFFCURVE",
"409 797 CURVE SMOOTH",
"364 797 OFFCURVE",
"326 762 OFFCURVE",
"326 718 CURVE SMOOTH",
"326 672 OFFCURVE",
"364 637 OFFCURVE",
"409 637 CURVE SMOOTH"
);
},
{
closed = 1;
nodes = (
"517 361 LINE SMOOTH",
"517 483 OFFCURVE",
"443 549 OFFCURVE",
"285 549 CURVE SMOOTH",
"226 549 OFFCURVE",
"147 535 OFFCURVE",
"78 509 CURVE",
"114 404 LINE",
"167 422 OFFCURVE",
"226 432 OFFCURVE",
"260 432 CURVE SMOOTH",
"328 432 OFFCURVE",
"365 406 OFFCURVE",
"365 350 CURVE SMOOTH",
"365 331 LINE",
"294 331 LINE SMOOTH",
"130 331 OFFCURVE",
"35 265 OFFCURVE",
"35 150 CURVE SMOOTH",
"35 52 OFFCURVE",
"105 -17 OFFCURVE",
"215 -17 CURVE SMOOTH",
"281 -17 OFFCURVE",
"348 6 OFFCURVE",
"389 55 CURVE",
"414 11 OFFCURVE",
"457 -9 OFFCURVE",
"519 -15 CURVE",
"552 89 LINE",
"527 98 OFFCURVE",
"517 113 OFFCURVE",
"517 153 CURVE SMOOTH"
);
},
{
closed = 1;
nodes = (
"224 96 OFFCURVE",
"198 120 OFFCURVE",
"198 161 CURVE SMOOTH",
"198 213 OFFCURVE",
"238 241 OFFCURVE",
"326 241 CURVE SMOOTH",
"365 241 LINE",
"365 154 LINE",
"345 117 OFFCURVE",
"303 96 OFFCURVE",
"269 96 CURVE SMOOTH"
);
}
);
width = 600;
}
);
note = adieresis;
unicode = 00E4;
},
{
glyphname = agrave;
lastChange = "2016-11-29 10:57:25 +0000";
layers = (
{
layerId = "0CCF1926-DDDC-4230-AEA6-FDA11143D54E";
paths = (
{
closed = 1;
nodes = (
"392 622 LINE",
"435 702 LINE",
"217 835 LINE",
"156 716 LINE"
);
},
{
closed = 1;
nodes = (
"517 361 LINE SMOOTH",
"517 483 OFFCURVE",
"443 549 OFFCURVE",
"285 549 CURVE SMOOTH",
"226 549 OFFCURVE",
"147 535 OFFCURVE",
"78 509 CURVE",
"114 404 LINE",
"167 422 OFFCURVE",
"226 432 OFFCURVE",
"260 432 CURVE SMOOTH",
"328 432 OFFCURVE",
"365 406 OFFCURVE",
"365 350 CURVE SMOOTH",
"365 331 LINE",
"294 331 LINE SMOOTH",
"130 331 OFFCURVE",
"35 265 OFFCURVE",
"35 150 CURVE SMOOTH",
"35 52 OFFCURVE",
"105 -17 OFFCURVE",
"215 -17 CURVE SMOOTH",
"281 -17 OFFCURVE",
"348 6 OFFCURVE",
"389 55 CURVE",
"414 11 OFFCURVE",
"457 -9 OFFCURVE",
"519 -15 CURVE",
"552 89 LINE",
"527 98 OFFCURVE",
"517 113 OFFCURVE",
"517 153 CURVE SMOOTH"
);
},
{
closed = 1;
nodes = (
"224 96 OFFCURVE",
"198 120 OFFCURVE",
"198 161 CURVE SMOOTH",
"198 213 OFFCURVE",
"238 241 OFFCURVE",
"326 241 CURVE SMOOTH",
"365 241 LINE",
"365 154 LINE",
"345 117 OFFCURVE",
"303 96 OFFCURVE",
"269 96 CURVE SMOOTH"
);
}
);
width = 600;
}
);
note = agrave;
unicode = 00E0;
},
{
glyphname = amacron;
lastChange = "2016-11-29 10:57:25 +0000";
layers = (
{
layerId = "0CCF1926-DDDC-4230-AEA6-FDA11143D54E";
paths = (
{
closed = 1;
nodes = (
"446 658 LINE",
"446 767 LINE",
"140 767 LINE",
"140 658 LINE"
);
},
{
closed = 1;
nodes = (
"517 361 LINE SMOOTH",
"517 483 OFFCURVE",
"443 549 OFFCURVE",
"285 549 CURVE SMOOTH",
"226 549 OFFCURVE",
"147 535 OFFCURVE",
"78 509 CURVE",
"114 404 LINE",
"167 422 OFFCURVE",
"226 432 OFFCURVE",
"260 432 CURVE SMOOTH",
"328 432 OFFCURVE",
"365 406 OFFCURVE",
"365 350 CURVE SMOOTH",
"365 331 LINE",
"294 331 LINE SMOOTH",
"130 331 OFFCURVE",
"35 265 OFFCURVE",
"35 150 CURVE SMOOTH",
"35 52 OFFCURVE",
"105 -17 OFFCURVE",
"215 -17 CURVE SMOOTH",
"281 -17 OFFCURVE",
"348 6 OFFCURVE",
"389 55 CURVE",
"414 11 OFFCURVE",
"457 -9 OFFCURVE",
"519 -15 CURVE",
"552 89 LINE",
"527 98 OFFCURVE",
"517 113 OFFCURVE",
"517 153 CURVE SMOOTH"
);
},
{
closed = 1;
nodes = (
"224 96 OFFCURVE",
"198 120 OFFCURVE",
"198 161 CURVE SMOOTH",
"198 213 OFFCURVE",
"238 241 OFFCURVE",
"326 241 CURVE SMOOTH",
"365 241 LINE",
"365 154 LINE",
"345 117 OFFCURVE",
"303 96 OFFCURVE",
"269 96 CURVE SMOOTH"
);
}
);
width = 600;
}
);
note = amacron;
unicode = 0101;
},
{
glyphname = aogonek;
lastChange = "2016-11-29 10:57:25 +0000";
layers = (
{
layerId = "0CCF1926-DDDC-4230-AEA6-FDA11143D54E";
paths = (
{
closed = 1;
nodes = (
"552 89 LINE",
"527 98 OFFCURVE",
"517 113 OFFCURVE",
"517 153 CURVE SMOOTH",
"517 361 LINE SMOOTH",
"517 483 OFFCURVE",
"443 549 OFFCURVE",
"285 549 CURVE SMOOTH",
"226 549 OFFCURVE",
"147 535 OFFCURVE",
"78 509 CURVE",
"114 404 LINE",
"167 422 OFFCURVE",
"226 432 OFFCURVE",
"260 432 CURVE SMOOTH",
"328 432 OFFCURVE",
"365 406 OFFCURVE",
"365 350 CURVE SMOOTH",
"365 331 LINE",
"294 331 LINE SMOOTH",
"130 331 OFFCURVE",
"35 265 OFFCURVE",
"35 150 CURVE SMOOTH",
"35 52 OFFCURVE",
"105 -17 OFFCURVE",
"215 -17 CURVE SMOOTH",
"281 -17 OFFCURVE",
"348 6 OFFCURVE",
"389 55 CURVE",
"400 37 OFFCURVE",
"413 23 OFFCURVE",
"430 12 CURVE",
"350 -20 OFFCURVE",
"294 -63 OFFCURVE",
"294 -145 CURVE SMOOTH",
"294 -224 OFFCURVE",
"360 -268 OFFCURVE",
"445 -268 CURVE SMOOTH",
"468 -268 OFFCURVE",
"486 -265 OFFCURVE",
"504 -260 CURVE",
"516 -167 LINE",
"499 -171 OFFCURVE",
"483 -174 OFFCURVE",
"462 -174 CURVE SMOOTH",
"427 -174 OFFCURVE",
"404 -158 OFFCURVE",
"404 -125 CURVE SMOOTH",
"404 -84 OFFCURVE",
"426 -47 OFFCURVE",
"519 -15 CURVE"
);
},
{
closed = 1;
nodes = (
"365 154 LINE",
"345 117 OFFCURVE",
"303 96 OFFCURVE",
"269 96 CURVE SMOOTH",
"224 96 OFFCURVE",
"198 120 OFFCURVE",
"198 161 CURVE SMOOTH",
"198 213 OFFCURVE",
"238 241 OFFCURVE",
"326 241 CURVE SMOOTH",
"365 241 LINE"
);
}
);
width = 600;
}
);
note = aogonek;
unicode = 0105;
},
{
glyphname = aring;
lastChange = "2016-11-29 10:57:25 +0000";
layers = (
{
layerId = "0CCF1926-DDDC-4230-AEA6-FDA11143D54E";
paths = (
{
closed = 1;
nodes = (
"207 865 OFFCURVE",
"154 804 OFFCURVE",
"154 734 CURVE SMOOTH",
"154 663 OFFCURVE",
"207 601 OFFCURVE",
"292 601 CURVE SMOOTH",
"378 601 OFFCURVE",
"431 663 OFFCURVE",
"431 734 CURVE SMOOTH",
"431 804 OFFCURVE",
"378 865 OFFCURVE",
"292 865 CURVE SMOOTH"
);
},
{
closed = 1;
nodes = (
"319 783 OFFCURVE",
"337 767 OFFCURVE",
"337 734 CURVE SMOOTH",
"337 700 OFFCURVE",
"319 683 OFFCURVE",
"292 683 CURVE SMOOTH",
"266 683 OFFCURVE",
"248 700 OFFCURVE",
"248 734 CURVE SMOOTH",
"248 767 OFFCURVE",
"266 783 OFFCURVE",
"292 783 CURVE SMOOTH"
);
},
{
closed = 1;
nodes = (
"517 361 LINE SMOOTH",
"517 483 OFFCURVE",
"443 549 OFFCURVE",
"285 549 CURVE SMOOTH",
"226 549 OFFCURVE",
"147 535 OFFCURVE",
"78 509 CURVE",
"114 404 LINE",
"167 422 OFFCURVE",
"226 432 OFFCURVE",
"260 432 CURVE SMOOTH",
"328 432 OFFCURVE",
"365 406 OFFCURVE",
"365 350 CURVE SMOOTH",
"365 331 LINE",
"294 331 LINE SMOOTH",
"130 331 OFFCURVE",
"35 265 OFFCURVE",
"35 150 CURVE SMOOTH",
"35 52 OFFCURVE",
"105 -17 OFFCURVE",
"215 -17 CURVE SMOOTH",
"281 -17 OFFCURVE",
"348 6 OFFCURVE",
"389 55 CURVE",
"414 11 OFFCURVE",
"457 -9 OFFCURVE",
"519 -15 CURVE",
"552 89 LINE",
"527 98 OFFCURVE",
"517 113 OFFCURVE",
"517 153 CURVE SMOOTH"
);
},
{
closed = 1;
nodes = (
"224 96 OFFCURVE",
"198 120 OFFCURVE",
"198 161 CURVE SMOOTH",
"198 213 OFFCURVE",
"238 241 OFFCURVE",
"326 241 CURVE SMOOTH",
"365 241 LINE",
"365 154 LINE",
"345 117 OFFCURVE",
"303 96 OFFCURVE",
"269 96 CURVE SMOOTH"
);
}
);
width = 600;
}
);
note = aring;
unicode = 00E5;
},
{
glyphname = atilde;
lastChange = "2016-11-29 10:57:25 +0000";
layers = (
{
layerId = "0CCF1926-DDDC-4230-AEA6-FDA11143D54E";
paths = (
{
closed = 1;
nodes = (
"409 635 OFFCURVE",
"453 685 OFFCURVE",
"479 752 CURVE",
"400 790 LINE",
"383 761 OFFCURVE",
"370 747 OFFCURVE",
"348 747 CURVE SMOOTH",
"314 747 OFFCURVE",
"293 792 OFFCURVE",
"232 792 CURVE SMOOTH",
"171 792 OFFCURVE",
"128 738 OFFCURVE",
"103 674 CURVE",
"182 636 LINE",
"198 665 OFFCURVE",
"210 680 OFFCURVE",
"235 680 CURVE SMOOTH",
"268 680 OFFCURVE",
"291 635 OFFCURVE",
"349 635 CURVE SMOOTH"
);
},
{
closed = 1;
nodes = (
"517 361 LINE SMOOTH",
"517 483 OFFCURVE",
"443 549 OFFCURVE",
"285 549 CURVE SMOOTH",
"226 549 OFFCURVE",
"147 535 OFFCURVE",
"78 509 CURVE",
"114 404 LINE",
"167 422 OFFCURVE",
"226 432 OFFCURVE",
"260 432 CURVE SMOOTH",
"328 432 OFFCURVE",
"365 406 OFFCURVE",
"365 350 CURVE SMOOTH",
"365 331 LINE",
"294 331 LINE SMOOTH",
"130 331 OFFCURVE",
"35 265 OFFCURVE",
"35 150 CURVE SMOOTH",
"35 52 OFFCURVE",
"105 -17 OFFCURVE",
"215 -17 CURVE SMOOTH",
"281 -17 OFFCURVE",
"348 6 OFFCURVE",
"389 55 CURVE",
"414 11 OFFCURVE",
"457 -9 OFFCURVE",
"519 -15 CURVE",
"552 89 LINE",
"527 98 OFFCURVE",
"517 113 OFFCURVE",
"517 153 CURVE SMOOTH"
);
},
{
closed = 1;
nodes = (
"224 96 OFFCURVE",
"198 120 OFFCURVE",
"198 161 CURVE SMOOTH",
"198 213 OFFCURVE",
"238 241 OFFCURVE",
"326 241 CURVE SMOOTH",
"365 241 LINE",
"365 154 LINE",
"345 117 OFFCURVE",
"303 96 OFFCURVE",
"269 96 CURVE SMOOTH"
);
}
);
width = 600;
}
);
note = atilde;
unicode = 00E3;
},
{
glyphname = ae;
lastChange = "2016-11-29 10:57:25 +0000";
layers = (
{
layerId = "0CCF1926-DDDC-4230-AEA6-FDA11143D54E";
paths = (
{
closed = 1;
nodes = (
"368 549 OFFCURVE",
"326 521 OFFCURVE",
"302 478 CURVE",
"277 521 OFFCURVE",
"237 549 OFFCURVE",
"164 549 CURVE SMOOTH",
"111 549 OFFCURVE",
"71 536 OFFCURVE",
"19 513 CURVE",
"55 426 LINE",
"95 445 OFFCURVE",
"116 451 OFFCURVE",
"148 451 CURVE SMOOTH",
"205 451 OFFCURVE",
"237 419 OFFCURVE",
"237 350 CURVE SMOOTH",
"237 327 LINE",
"196 327 LINE SMOOTH",
"59 327 OFFCURVE",
"-6 265 OFFCURVE",
"-6 152 CURVE SMOOTH",
"-6 53 OFFCURVE",
"50 -17 OFFCURVE",
"143 -17 CURVE SMOOTH",
"211 -17 OFFCURVE",
"246 10 OFFCURVE",
"284 67 CURVE",
"318 14 OFFCURVE",
"370 -17 OFFCURVE",
"444 -17 CURVE SMOOTH",
"511 -17 OFFCURVE",
"561 7 OFFCURVE",
"600 40 CURVE",
"540 119 LINE",
"511 98 OFFCURVE",
"485 87 OFFCURVE",
"453 87 CURVE SMOOTH",
"397 87 OFFCURVE",
"365 132 OFFCURVE",
"356 226 CURVE",
"597 226 LINE",
"599 242 OFFCURVE",
"600 258 OFFCURVE",
"600 276 CURVE SMOOTH",
"600 452 OFFCURVE",
"553 549 OFFCURVE",
"428 549 CURVE SMOOTH"
);
},
{
closed = 1;
nodes = (
"469 450 OFFCURVE",
"480 406 OFFCURVE",
"481 312 CURVE",
"356 312 LINE",
"361 416 OFFCURVE",
"381 450 OFFCURVE",
"422 450 CURVE SMOOTH"
);
},
{
closed = 1;
nodes = (
"237 242 LINE",
"237 211 OFFCURVE",
"239 178 OFFCURVE",
"242 148 CURVE",
"221 107 OFFCURVE",
"200 86 OFFCURVE",
"172 86 CURVE SMOOTH",
"142 86 OFFCURVE",
"126 113 OFFCURVE",
"126 159 CURVE SMOOTH",
"126 211 OFFCURVE",
"150 242 OFFCURVE",
"216 242 CURVE SMOOTH"
);
}
);
width = 600;
}
);
note = ae;
unicode = 00E6;
},
{
glyphname = aeacute;
lastChange = "2016-11-29 10:57:25 +0000";
layers = (
{
layerId = "0CCF1926-DDDC-4230-AEA6-FDA11143D54E";
paths = (
{
closed = 1;
nodes = (
"378 835 LINE",
"160 703 LINE",
"203 622 LINE",
"440 716 LINE"
);
},
{
closed = 1;
nodes = (
"368 549 OFFCURVE",
"326 521 OFFCURVE",
"302 478 CURVE",
"277 521 OFFCURVE",
"237 549 OFFCURVE",
"164 549 CURVE SMOOTH",
"111 549 OFFCURVE",
"71 536 OFFCURVE",
"19 513 CURVE",
"55 426 LINE",
"95 445 OFFCURVE",
"116 451 OFFCURVE",
"148 451 CURVE SMOOTH",
"205 451 OFFCURVE",
"237 419 OFFCURVE",
"237 350 CURVE SMOOTH",
"237 327 LINE",
"196 327 LINE SMOOTH",
"59 327 OFFCURVE",
"-6 265 OFFCURVE",
"-6 152 CURVE SMOOTH",
"-6 53 OFFCURVE",
"50 -17 OFFCURVE",
"143 -17 CURVE SMOOTH",
"211 -17 OFFCURVE",
"246 10 OFFCURVE",
"284 67 CURVE",
"318 14 OFFCURVE",
"370 -17 OFFCURVE",
"444 -17 CURVE SMOOTH",
"511 -17 OFFCURVE",
"561 7 OFFCURVE",
"600 40 CURVE",
"540 119 LINE",
"511 98 OFFCURVE",
"485 87 OFFCURVE",
"453 87 CURVE SMOOTH",
"397 87 OFFCURVE",
"365 132 OFFCURVE",
"356 226 CURVE",
"597 226 LINE",
"599 242 OFFCURVE",
"600 258 OFFCURVE",
"600 276 CURVE SMOOTH",
"600 452 OFFCURVE",
"553 549 OFFCURVE",
"428 549 CURVE SMOOTH"
);
},
{
closed = 1;
nodes = (
"469 450 OFFCURVE",
"480 406 OFFCURVE",
"481 312 CURVE",
"356 312 LINE",
"361 416 OFFCURVE",
"381 450 OFFCURVE",
"422 450 CURVE SMOOTH"
);
},
{
closed = 1;
nodes = (
"237 242 LINE",
"237 211 OFFCURVE",
"239 178 OFFCURVE",
"242 148 CURVE",
"221 107 OFFCURVE",
"200 86 OFFCURVE",
"172 86 CURVE SMOOTH",
"142 86 OFFCURVE",
"126 113 OFFCURVE",
"126 159 CURVE SMOOTH",
"126 211 OFFCURVE",
"150 242 OFFCURVE",
"216 242 CURVE SMOOTH"
);
}
);
width = 600;
}
);
note = aeacute;
unicode = 01FD;
},
{
glyphname = b;
lastChange = "2016-11-29 10:57:25 +0000";
layers = (
{
layerId = "0CCF1926-DDDC-4230-AEA6-FDA11143D54E";
paths = (
{
closed = 1;
nodes = (
"228 759 LINE",
"70 742 LINE",
"70 0 LINE",
"210 0 LINE",
"216 48 LINE",
"247 6 OFFCURVE",
"294 -17 OFFCURVE",
"347 -17 CURVE SMOOTH",
"485 -17 OFFCURVE",
"560 103 OFFCURVE",
"560 267 CURVE SMOOTH",
"560 440 OFFCURVE",
"500 549 OFFCURVE",
"364 549 CURVE SMOOTH",
"310 549 OFFCURVE",
"261 521 OFFCURVE",
"228 477 CURVE"
);
},
{
closed = 1;
nodes = (
"272 98 OFFCURVE",
"248 115 OFFCURVE",
"228 146 CURVE",
"228 370 LINE",
"251 409 OFFCURVE",
"278 432 OFFCURVE",
"314 432 CURVE SMOOTH",
"364 432 OFFCURVE",
"397 397 OFFCURVE",
"397 265 CURVE SMOOTH",
"397 145 OFFCURVE",
"362 98 OFFCURVE",
"306 98 CURVE SMOOTH"
);
}
);
width = 600;
}
);
note = b;
unicode = 0062;
},
{
glyphname = c;
lastChange = "2016-11-29 10:57:25 +0000";
layers = (
{
layerId = "0CCF1926-DDDC-4230-AEA6-FDA11143D54E";
paths = (
{
closed = 1;
nodes = (
"284 108 OFFCURVE",
"234 144 OFFCURVE",
"234 262 CURVE SMOOTH",
"234 382 OFFCURVE",
"281 427 OFFCURVE",
"353 427 CURVE SMOOTH",
"396 427 OFFCURVE",
"436 412 OFFCURVE",
"472 387 CURVE",
"540 482 LINE",
"487 526 OFFCURVE",
"426 549 OFFCURVE",
"346 549 CURVE SMOOTH",
"175 549 OFFCURVE",
"69 428 OFFCURVE",
"69 262 CURVE SMOOTH",
"69 96 OFFCURVE",
"171 -17 OFFCURVE",
"343 -17 CURVE SMOOTH",
"425 -17 OFFCURVE",
"493 13 OFFCURVE",
"540 53 CURVE",
"470 153 LINE",
"432 127 OFFCURVE",
"395 108 OFFCURVE",
"352 108 CURVE SMOOTH"
);
}
);
width = 600;
}
);
note = c;
unicode = 0063;
},
{
glyphname = cacute;
lastChange = "2016-11-29 10:57:25 +0000";
layers = (
{
layerId = "0CCF1926-DDDC-4230-AEA6-FDA11143D54E";
paths = (
{
closed = 1;
nodes = (
"420 822 LINE",
"202 690 LINE",
"245 609 LINE",
"482 703 LINE"
);
},
{
closed = 1;
nodes = (
"284 108 OFFCURVE",
"234 144 OFFCURVE",
"234 262 CURVE SMOOTH",
"234 382 OFFCURVE",
"281 427 OFFCURVE",
"353 427 CURVE SMOOTH",
"396 427 OFFCURVE",
"436 412 OFFCURVE",
"472 387 CURVE",
"540 482 LINE",
"487 526 OFFCURVE",
"426 549 OFFCURVE",
"346 549 CURVE SMOOTH",
"175 549 OFFCURVE",
"69 428 OFFCURVE",
"69 262 CURVE SMOOTH",
"69 96 OFFCURVE",
"171 -17 OFFCURVE",
"343 -17 CURVE SMOOTH",
"425 -17 OFFCURVE",
"493 13 OFFCURVE",
"540 53 CURVE",
"470 153 LINE",
"432 127 OFFCURVE",
"395 108 OFFCURVE",
"352 108 CURVE SMOOTH"
);
}
);
width = 600;
}
);
note = cacute;
unicode = 0107;
},
{
glyphname = ccaron;
lastChange = "2016-11-29 10:57:25 +0000";
layers = (
{
layerId = "0CCF1926-DDDC-4230-AEA6-FDA11143D54E";
paths = (
{
closed = 1;
nodes = (
"477 802 LINE",
"344 708 LINE",
"211 802 LINE",
"154 738 LINE",
"296 598 LINE",
"392 598 LINE",
"533 738 LINE"
);
},
{
closed = 1;
nodes = (
"284 108 OFFCURVE",
"234 144 OFFCURVE",
"234 262 CURVE SMOOTH",
"234 382 OFFCURVE",
"281 427 OFFCURVE",
"353 427 CURVE SMOOTH",
"396 427 OFFCURVE",
"436 412 OFFCURVE",
"472 387 CURVE",
"540 482 LINE",
"487 526 OFFCURVE",
"426 549 OFFCURVE",
"346 549 CURVE SMOOTH",
"175 549 OFFCURVE",
"69 428 OFFCURVE",
"69 262 CURVE SMOOTH",
"69 96 OFFCURVE",
"171 -17 OFFCURVE",
"343 -17 CURVE SMOOTH",
"425 -17 OFFCURVE",
"493 13 OFFCURVE",
"540 53 CURVE",
"470 153 LINE",
"432 127 OFFCURVE",
"395 108 OFFCURVE",
"352 108 CURVE SMOOTH"
);
}
);
width = 600;
}
);
note = ccaron;
unicode = 010D;
},
{
glyphname = ccedilla;
lastChange = "2016-11-29 10:57:25 +0000";
layers = (
{
layerId = "0CCF1926-DDDC-4230-AEA6-FDA11143D54E";
paths = (
{
closed = 1;
nodes = (
"369 -16 LINE",
"440 -10 OFFCURVE",
"498 17 OFFCURVE",
"540 53 CURVE",
"470 153 LINE",
"432 127 OFFCURVE",
"395 108 OFFCURVE",
"352 108 CURVE SMOOTH",
"284 108 OFFCURVE",
"234 144 OFFCURVE",
"234 262 CURVE SMOOTH",
"234 382 OFFCURVE",
"281 427 OFFCURVE",
"353 427 CURVE SMOOTH",
"396 427 OFFCURVE",
"436 412 OFFCURVE",
"472 387 CURVE",
"540 482 LINE",
"487 526 OFFCURVE",
"426 549 OFFCURVE",
"346 549 CURVE SMOOTH",
"175 549 OFFCURVE",
"69 428 OFFCURVE",
"69 262 CURVE SMOOTH",
"69 118 OFFCURVE",
"146 14 OFFCURVE",
"278 -11 CURVE",
"267 -112 LINE",
"328 -112 OFFCURVE",
"359 -119 OFFCURVE",
"359 -145 CURVE SMOOTH",
"359 -168 OFFCURVE",
"338 -176 OFFCURVE",
"306 -176 CURVE SMOOTH",
"284 -176 OFFCURVE",
"262 -169 OFFCURVE",
"242 -159 CURVE",
"206 -232 LINE",
"233 -248 OFFCURVE",
"275 -262 OFFCURVE",
"323 -262 CURVE SMOOTH",
"413 -262 OFFCURVE",
"472 -215 OFFCURVE",
"472 -147 CURVE SMOOTH",
"472 -93 OFFCURVE",
"439 -56 OFFCURVE",
"369 -48 CURVE"
);
}
);
width = 600;
}
);
note = ccedilla;
unicode = 00E7;
},
{
glyphname = ccircumflex;
lastChange = "2016-11-29 10:57:25 +0000";
layers = (
{
layerId = "0CCF1926-DDDC-4230-AEA6-FDA11143D54E";
paths = (
{
closed = 1;
nodes = (
"211 598 LINE",
"344 692 LINE",
"477 598 LINE",
"533 663 LINE",
"392 802 LINE",
"296 802 LINE",
"154 663 LINE"
);
},
{
closed = 1;
nodes = (
"284 108 OFFCURVE",
"234 144 OFFCURVE",
"234 262 CURVE SMOOTH",
"234 382 OFFCURVE",
"281 427 OFFCURVE",
"353 427 CURVE SMOOTH",
"396 427 OFFCURVE",
"436 412 OFFCURVE",
"472 387 CURVE",
"540 482 LINE",
"487 526 OFFCURVE",
"426 549 OFFCURVE",
"346 549 CURVE SMOOTH",
"175 549 OFFCURVE",
"69 428 OFFCURVE",
"69 262 CURVE SMOOTH",
"69 96 OFFCURVE",
"171 -17 OFFCURVE",
"343 -17 CURVE SMOOTH",
"425 -17 OFFCURVE",
"493 13 OFFCURVE",
"540 53 CURVE",
"470 153 LINE",
"432 127 OFFCURVE",
"395 108 OFFCURVE",
"352 108 CURVE SMOOTH"
);
}
);
width = 600;
}
);
note = ccircumflex;
unicode = 0109;
},
{
glyphname = cdotaccent;
lastChange = "2016-11-29 10:57:25 +0000";
layers = (
{
layerId = "0CCF1926-DDDC-4230-AEA6-FDA11143D54E";
paths = (
{
closed = 1;
nodes = (
"289 796 OFFCURVE",
"250 757 OFFCURVE",
"250 707 CURVE SMOOTH",
"250 656 OFFCURVE",
"289 618 OFFCURVE",
"344 618 CURVE SMOOTH",
"399 618 OFFCURVE",
"437 656 OFFCURVE",
"437 707 CURVE SMOOTH",
"437 757 OFFCURVE",
"399 796 OFFCURVE",
"344 796 CURVE SMOOTH"
);
},
{
closed = 1;
nodes = (
"284 108 OFFCURVE",
"234 144 OFFCURVE",
"234 262 CURVE SMOOTH",
"234 382 OFFCURVE",
"281 427 OFFCURVE",
"353 427 CURVE SMOOTH",
"396 427 OFFCURVE",
"436 412 OFFCURVE",
"472 387 CURVE",
"540 482 LINE",
"487 526 OFFCURVE",
"426 549 OFFCURVE",
"346 549 CURVE SMOOTH",
"175 549 OFFCURVE",
"69 428 OFFCURVE",
"69 262 CURVE SMOOTH",
"69 96 OFFCURVE",
"171 -17 OFFCURVE",
"343 -17 CURVE SMOOTH",
"425 -17 OFFCURVE",
"493 13 OFFCURVE",
"540 53 CURVE",
"470 153 LINE",
"432 127 OFFCURVE",
"395 108 OFFCURVE",
"352 108 CURVE SMOOTH"
);
}
);
width = 600;
}
);
note = cdotaccent;
unicode = 010B;
},
{
glyphname = d;
lastChange = "2016-11-29 10:57:25 +0000";
layers = (
{
layerId = "0CCF1926-DDDC-4230-AEA6-FDA11143D54E";
paths = (
{
closed = 1;
nodes = (
"372 759 LINE",
"372 499 LINE",
"340 532 OFFCURVE",
"299 549 OFFCURVE",
"252 549 CURVE SMOOTH",
"121 549 OFFCURVE",
"40 431 OFFCURVE",
"40 267 CURVE SMOOTH",
"40 96 OFFCURVE",
"103 -17 OFFCURVE",
"235 -17 CURVE SMOOTH",
"305 -17 OFFCURVE",
"353 17 OFFCURVE",
"382 58 CURVE",
"390 0 LINE",
"530 0 LINE",
"530 742 LINE"
);
},
{
closed = 1;
nodes = (
"327 433 OFFCURVE",
"350 417 OFFCURVE",
"372 389 CURVE",
"372 160 LINE",
"349 122 OFFCURVE",
"321 99 OFFCURVE",
"285 99 CURVE SMOOTH",
"237 99 OFFCURVE",
"203 135 OFFCURVE",
"203 266 CURVE SMOOTH",
"203 385 OFFCURVE",
"239 433 OFFCURVE",
"294 433 CURVE SMOOTH"
);
}
);
width = 600;
}
);
note = d;
unicode = 0064;
},
{
glyphname = eth;
lastChange = "2016-11-29 10:57:25 +0000";
layers = (
{
layerId = "0CCF1926-DDDC-4230-AEA6-FDA11143D54E";
paths = (
{
closed = 1;
nodes = (
"126 571 LINE",
"226 525 LINE",
"282 582 LINE",
"329 548 OFFCURVE",
"365 500 OFFCURVE",
"388 431 CURVE",
"352 465 OFFCURVE",
"314 482 OFFCURVE",
"255 482 CURVE SMOOTH",
"140 482 OFFCURVE",
"40 382 OFFCURVE",
"40 234 CURVE SMOOTH",
"40 75 OFFCURVE",
"151 -17 OFFCURVE",
"294 -17 CURVE SMOOTH",
"463 -17 OFFCURVE",
"556 113 OFFCURVE",
"556 277 CURVE SMOOTH",
"556 456 OFFCURVE",
"500 590 OFFCURVE",
"371 673 CURVE",
"424 727 LINE",
"343 797 LINE",
"270 721 LINE",
"228 738 OFFCURVE",
"179 750 OFFCURVE",
"124 758 CURVE",
"93 655 LINE",
"126 649 OFFCURVE",
"157 641 OFFCURVE",
"184 631 CURVE"
);
},
{
closed = 1;
nodes = (
"396 149 OFFCURVE",
"366 98 OFFCURVE",
"297 98 CURVE SMOOTH",
"238 98 OFFCURVE",
"201 139 OFFCURVE",
"201 236 CURVE SMOOTH",
"201 328 OFFCURVE",
"238 371 OFFCURVE",
"296 371 CURVE SMOOTH",
"336 371 OFFCURVE",
"370 356 OFFCURVE",
"395 328 CURVE",
"396 305 OFFCURVE",
"396 281 OFFCURVE",
"396 256 CURVE SMOOTH"
);
}
);
width = 600;
}
);
note = eth;
unicode = 00F0;
},
{
glyphname = dcaron;
lastChange = "2016-11-29 10:57:25 +0000";
layers = (
{
layerId = "0CCF1926-DDDC-4230-AEA6-FDA11143D54E";
paths = (
{
closed = 1;
nodes = (
"555 764 LINE",
"517 531 LINE",
"616 515 LINE",
"693 747 LINE"
);
},
{
closed = 1;
nodes = (
"333 759 LINE",
"333 499 LINE",
"301 532 OFFCURVE",
"260 549 OFFCURVE",
"213 549 CURVE SMOOTH",
"82 549 OFFCURVE",
"1 431 OFFCURVE",
"1 267 CURVE SMOOTH",
"1 96 OFFCURVE",
"64 -17 OFFCURVE",
"196 -17 CURVE SMOOTH",
"266 -17 OFFCURVE",
"314 17 OFFCURVE",
"343 58 CURVE",
"351 0 LINE",
"491 0 LINE",
"491 742 LINE"
);
},
{
closed = 1;
nodes = (
"288 433 OFFCURVE",
"311 417 OFFCURVE",
"333 389 CURVE",
"333 160 LINE",
"310 122 OFFCURVE",
"282 99 OFFCURVE",
"246 99 CURVE SMOOTH",
"198 99 OFFCURVE",
"164 135 OFFCURVE",
"164 266 CURVE SMOOTH",
"164 385 OFFCURVE",
"200 433 OFFCURVE",
"255 433 CURVE SMOOTH"
);
}
);
width = 600;
}
);
note = dcaron;
unicode = 010F;
},
{
glyphname = dcroat;
lastChange = "2016-11-29 10:57:25 +0000";
layers = (
{
layerId = "0CCF1926-DDDC-4230-AEA6-FDA11143D54E";
paths = (
{
closed = 1;
nodes = (
"592 685 LINE",
"512 685 LINE",
"512 742 LINE",
"354 759 LINE",
"354 685 LINE",
"231 685 LINE",
"231 593 LINE",
"354 593 LINE",
"354 499 LINE",
"322 532 OFFCURVE",
"281 549 OFFCURVE",
"233 549 CURVE SMOOTH",
"102 549 OFFCURVE",
"21 431 OFFCURVE",
"21 267 CURVE SMOOTH",
"21 96 OFFCURVE",
"84 -17 OFFCURVE",
"216 -17 CURVE SMOOTH",
"286 -17 OFFCURVE",
"334 17 OFFCURVE",
"364 58 CURVE",
"372 0 LINE",
"512 0 LINE",
"512 593 LINE",
"592 593 LINE"
);
},
{
closed = 1;
nodes = (
"354 160 LINE",
"331 122 OFFCURVE",
"302 99 OFFCURVE",
"267 99 CURVE SMOOTH",
"219 99 OFFCURVE",
"184 135 OFFCURVE",
"184 266 CURVE SMOOTH",
"184 385 OFFCURVE",
"221 433 OFFCURVE",
"276 433 CURVE SMOOTH",
"308 433 OFFCURVE",
"332 417 OFFCURVE",
"354 389 CURVE"
);
}
);
width = 600;
}
);
note = dcroat;
unicode = 0111;
},
{
glyphname = e;
lastChange = "2016-11-29 10:57:25 +0000";
layers = (
{
layerId = "0CCF1926-DDDC-4230-AEA6-FDA11143D54E";
paths = (
{
closed = 1;
nodes = (
"551 219 LINE",
"553 235 OFFCURVE",
"554 258 OFFCURVE",
"554 276 CURVE SMOOTH",
"554 447 OFFCURVE",
"457 549 OFFCURVE",
"305 549 CURVE SMOOTH",
"138 549 OFFCURVE",
"46 422 OFFCURVE",
"46 265 CURVE SMOOTH",
"46 100 OFFCURVE",
"140 -17 OFFCURVE",
"322 -17 CURVE SMOOTH",
"412 -17 OFFCURVE",
"484 13 OFFCURVE",
"534 56 CURVE",
"471 142 LINE",
"429 115 OFFCURVE",
"383 98 OFFCURVE",
"335 98 CURVE SMOOTH",
"267 98 OFFCURVE",
"218 132 OFFCURVE",
"207 219 CURVE"
);
},
{
closed = 1;
nodes = (
"372 443 OFFCURVE",
"399 392 OFFCURVE",
"400 315 CURVE",
"205 315 LINE",
"212 403 OFFCURVE",
"249 443 OFFCURVE",
"305 443 CURVE SMOOTH"
);
}
);
width = 600;
}
);
note = e;
unicode = 0065;
},
{
glyphname = eacute;
lastChange = "2016-11-29 10:57:25 +0000";
layers = (
{
layerId = "0CCF1926-DDDC-4230-AEA6-FDA11143D54E";
paths = (
{
closed = 1;
nodes = (
"383 835 LINE",
"165 703 LINE",
"208 622 LINE",
"445 716 LINE"
);
},
{
closed = 1;
nodes = (
"551 219 LINE",
"553 235 OFFCURVE",
"554 258 OFFCURVE",
"554 276 CURVE SMOOTH",
"554 447 OFFCURVE",
"457 549 OFFCURVE",
"305 549 CURVE SMOOTH",
"138 549 OFFCURVE",
"46 422 OFFCURVE",
"46 265 CURVE SMOOTH",
"46 100 OFFCURVE",
"140 -17 OFFCURVE",
"322 -17 CURVE SMOOTH",
"412 -17 OFFCURVE",
"484 13 OFFCURVE",
"534 56 CURVE",
"471 142 LINE",
"429 115 OFFCURVE",
"383 98 OFFCURVE",
"335 98 CURVE SMOOTH",
"267 98 OFFCURVE",
"218 132 OFFCURVE",
"207 219 CURVE"
);
},
{
closed = 1;
nodes = (
"372 443 OFFCURVE",
"399 392 OFFCURVE",
"400 315 CURVE",
"205 315 LINE",
"212 403 OFFCURVE",
"249 443 OFFCURVE",
"305 443 CURVE SMOOTH"
);
}
);
width = 600;
}
);
note = eacute;
unicode = 00E9;
},
{
glyphname = ebreve;
lastChange = "2016-11-29 10:57:25 +0000";
layers = (
{
layerId = "0CCF1926-DDDC-4230-AEA6-FDA11143D54E";
paths = (
{
closed = 1;
nodes = (
"416 612 OFFCURVE",
"471 698 OFFCURVE",
"479 786 CURVE",
"392 801 LINE",
"380 753 OFFCURVE",
"353 720 OFFCURVE",
"307 720 CURVE SMOOTH",
"261 720 OFFCURVE",
"234 753 OFFCURVE",
"222 801 CURVE",
"135 786 LINE",
"143 698 OFFCURVE",
"196 612 OFFCURVE",
"307 612 CURVE SMOOTH"
);
},
{
closed = 1;
nodes = (
"551 219 LINE",
"553 235 OFFCURVE",
"554 258 OFFCURVE",
"554 276 CURVE SMOOTH",
"554 447 OFFCURVE",
"457 549 OFFCURVE",
"305 549 CURVE SMOOTH",
"138 549 OFFCURVE",
"46 422 OFFCURVE",
"46 265 CURVE SMOOTH",
"46 100 OFFCURVE",
"140 -17 OFFCURVE",
"322 -17 CURVE SMOOTH",
"412 -17 OFFCURVE",
"484 13 OFFCURVE",
"534 56 CURVE",
"471 142 LINE",
"429 115 OFFCURVE",
"383 98 OFFCURVE",
"335 98 CURVE SMOOTH",
"267 98 OFFCURVE",
"218 132 OFFCURVE",
"207 219 CURVE"
);
},
{
closed = 1;
nodes = (
"372 443 OFFCURVE",
"399 392 OFFCURVE",
"400 315 CURVE",
"205 315 LINE",
"212 403 OFFCURVE",
"249 443 OFFCURVE",
"305 443 CURVE SMOOTH"
);
}
);
width = 600;
}
);
note = ebreve;
unicode = 0115;
},
{
glyphname = ecaron;
lastChange = "2016-11-29 10:57:25 +0000";
layers = (
{
layerId = "0CCF1926-DDDC-4230-AEA6-FDA11143D54E";
paths = (
{
closed = 1;
nodes = (
"440 815 LINE",
"307 721 LINE",
"174 815 LINE",
"117 751 LINE",
"259 611 LINE",
"355 611 LINE",
"496 751 LINE"
);
},
{
closed = 1;
nodes = (
"551 219 LINE",
"553 235 OFFCURVE",
"554 258 OFFCURVE",
"554 276 CURVE SMOOTH",
"554 447 OFFCURVE",
"457 549 OFFCURVE",
"305 549 CURVE SMOOTH",
"138 549 OFFCURVE",
"46 422 OFFCURVE",
"46 265 CURVE SMOOTH",
"46 100 OFFCURVE",
"140 -17 OFFCURVE",
"322 -17 CURVE SMOOTH",
"412 -17 OFFCURVE",
"484 13 OFFCURVE",
"534 56 CURVE",
"471 142 LINE",
"429 115 OFFCURVE",
"383 98 OFFCURVE",
"335 98 CURVE SMOOTH",
"267 98 OFFCURVE",
"218 132 OFFCURVE",
"207 219 CURVE"
);
},
{
closed = 1;
nodes = (
"372 443 OFFCURVE",
"399 392 OFFCURVE",
"400 315 CURVE",
"205 315 LINE",
"212 403 OFFCURVE",
"249 443 OFFCURVE",
"305 443 CURVE SMOOTH"
);
}
);
width = 600;
}
);
note = ecaron;
unicode = 011B;
},
{
glyphname = ecircumflex;
lastChange = "2016-11-29 10:57:25 +0000";
layers = (
{
layerId = "0CCF1926-DDDC-4230-AEA6-FDA11143D54E";
paths = (
{
closed = 1;
nodes = (
"174 611 LINE",
"307 705 LINE",
"440 611 LINE",
"496 676 LINE",
"355 815 LINE",
"259 815 LINE",
"117 676 LINE"
);
},
{
closed = 1;
nodes = (
"551 219 LINE",
"553 235 OFFCURVE",
"554 258 OFFCURVE",
"554 276 CURVE SMOOTH",
"554 447 OFFCURVE",
"457 549 OFFCURVE",
"305 549 CURVE SMOOTH",
"138 549 OFFCURVE",
"46 422 OFFCURVE",
"46 265 CURVE SMOOTH",
"46 100 OFFCURVE",
"140 -17 OFFCURVE",
"322 -17 CURVE SMOOTH",
"412 -17 OFFCURVE",
"484 13 OFFCURVE",
"534 56 CURVE",
"471 142 LINE",
"429 115 OFFCURVE",
"383 98 OFFCURVE",
"335 98 CURVE SMOOTH",
"267 98 OFFCURVE",
"218 132 OFFCURVE",
"207 219 CURVE"
);
},
{
closed = 1;
nodes = (
"372 443 OFFCURVE",
"399 392 OFFCURVE",
"400 315 CURVE",
"205 315 LINE",
"212 403 OFFCURVE",
"249 443 OFFCURVE",
"305 443 CURVE SMOOTH"
);
}
);
width = 600;
}
);
note = ecircumflex;
unicode = 00EA;
},
{
glyphname = edieresis;
lastChange = "2016-11-29 10:57:25 +0000";
layers = (
{
layerId = "0CCF1926-DDDC-4230-AEA6-FDA11143D54E";
paths = (
{
closed = 1;
nodes = (
"238 637 OFFCURVE",
"274 672 OFFCURVE",
"274 718 CURVE SMOOTH",
"274 762 OFFCURVE",
"238 797 OFFCURVE",
"191 797 CURVE SMOOTH",
"146 797 OFFCURVE",
"109 762 OFFCURVE",
"109 718 CURVE SMOOTH",
"109 672 OFFCURVE",
"146 637 OFFCURVE",
"191 637 CURVE SMOOTH"
);
},
{
closed = 1;
nodes = (
"469 637 OFFCURVE",
"505 672 OFFCURVE",
"505 718 CURVE SMOOTH",
"505 762 OFFCURVE",
"469 797 OFFCURVE",
"423 797 CURVE SMOOTH",
"378 797 OFFCURVE",
"340 762 OFFCURVE",
"340 718 CURVE SMOOTH",
"340 672 OFFCURVE",
"378 637 OFFCURVE",
"423 637 CURVE SMOOTH"
);
},
{
closed = 1;
nodes = (
"551 219 LINE",
"553 235 OFFCURVE",
"554 258 OFFCURVE",
"554 276 CURVE SMOOTH",
"554 447 OFFCURVE",
"457 549 OFFCURVE",
"305 549 CURVE SMOOTH",
"138 549 OFFCURVE",
"46 422 OFFCURVE",
"46 265 CURVE SMOOTH",
"46 100 OFFCURVE",
"140 -17 OFFCURVE",
"322 -17 CURVE SMOOTH",
"412 -17 OFFCURVE",
"484 13 OFFCURVE",
"534 56 CURVE",
"471 142 LINE",
"429 115 OFFCURVE",
"383 98 OFFCURVE",
"335 98 CURVE SMOOTH",
"267 98 OFFCURVE",
"218 132 OFFCURVE",
"207 219 CURVE"
);
},
{
closed = 1;
nodes = (
"372 443 OFFCURVE",
"399 392 OFFCURVE",
"400 315 CURVE",
"205 315 LINE",
"212 403 OFFCURVE",
"249 443 OFFCURVE",
"305 443 CURVE SMOOTH"
);
}
);
width = 600;
}
);
note = edieresis;
unicode = 00EB;
},
{
glyphname = edotaccent;
lastChange = "2016-11-29 10:57:25 +0000";
layers = (
{
layerId = "0CCF1926-DDDC-4230-AEA6-FDA11143D54E";
paths = (
{
closed = 1;
nodes = (
"252 809 OFFCURVE",
"213 770 OFFCURVE",
"213 720 CURVE SMOOTH",
"213 669 OFFCURVE",
"252 631 OFFCURVE",
"307 631 CURVE SMOOTH",
"362 631 OFFCURVE",
"400 669 OFFCURVE",
"400 720 CURVE SMOOTH",
"400 770 OFFCURVE",
"362 809 OFFCURVE",
"307 809 CURVE SMOOTH"
);
},
{
closed = 1;
nodes = (
"551 219 LINE",
"553 235 OFFCURVE",
"554 258 OFFCURVE",
"554 276 CURVE SMOOTH",
"554 447 OFFCURVE",
"457 549 OFFCURVE",
"305 549 CURVE SMOOTH",
"138 549 OFFCURVE",
"46 422 OFFCURVE",
"46 265 CURVE SMOOTH",
"46 100 OFFCURVE",
"140 -17 OFFCURVE",
"322 -17 CURVE SMOOTH",
"412 -17 OFFCURVE",
"484 13 OFFCURVE",
"534 56 CURVE",
"471 142 LINE",
"429 115 OFFCURVE",
"383 98 OFFCURVE",
"335 98 CURVE SMOOTH",
"267 98 OFFCURVE",
"218 132 OFFCURVE",
"207 219 CURVE"
);
},
{
closed = 1;
nodes = (
"372 443 OFFCURVE",
"399 392 OFFCURVE",
"400 315 CURVE",
"205 315 LINE",
"212 403 OFFCURVE",
"249 443 OFFCURVE",
"305 443 CURVE SMOOTH"
);
}
);
width = 600;
}
);
note = edotaccent;
unicode = 0117;
},
{
glyphname = egrave;
lastChange = "2016-11-29 10:57:25 +0000";
layers = (
{
layerId = "0CCF1926-DDDC-4230-AEA6-FDA11143D54E";
paths = (
{
closed = 1;
nodes = (
"406 622 LINE",
"449 702 LINE",
"231 835 LINE",
"170 716 LINE"
);
},
{
closed = 1;
nodes = (
"551 219 LINE",
"553 235 OFFCURVE",
"554 258 OFFCURVE",
"554 276 CURVE SMOOTH",
"554 447 OFFCURVE",
"457 549 OFFCURVE",
"305 549 CURVE SMOOTH",
"138 549 OFFCURVE",
"46 422 OFFCURVE",
"46 265 CURVE SMOOTH",
"46 100 OFFCURVE",
"140 -17 OFFCURVE",
"322 -17 CURVE SMOOTH",
"412 -17 OFFCURVE",
"484 13 OFFCURVE",
"534 56 CURVE",
"471 142 LINE",
"429 115 OFFCURVE",
"383 98 OFFCURVE",
"335 98 CURVE SMOOTH",
"267 98 OFFCURVE",
"218 132 OFFCURVE",
"207 219 CURVE"
);
},
{
closed = 1;
nodes = (
"372 443 OFFCURVE",
"399 392 OFFCURVE",
"400 315 CURVE",
"205 315 LINE",
"212 403 OFFCURVE",
"249 443 OFFCURVE",
"305 443 CURVE SMOOTH"
);
}
);
width = 600;
}
);
note = egrave;
unicode = 00E8;
},
{
glyphname = emacron;
lastChange = "2016-11-29 10:57:25 +0000";
layers = (
{
layerId = "0CCF1926-DDDC-4230-AEA6-FDA11143D54E";
paths = (
{
closed = 1;
nodes = (
"460 658 LINE",
"460 767 LINE",
"154 767 LINE",
"154 658 LINE"
);
},
{
closed = 1;
nodes = (
"551 219 LINE",
"553 235 OFFCURVE",
"554 258 OFFCURVE",
"554 276 CURVE SMOOTH",
"554 447 OFFCURVE",
"457 549 OFFCURVE",
"305 549 CURVE SMOOTH",
"138 549 OFFCURVE",
"46 422 OFFCURVE",
"46 265 CURVE SMOOTH",
"46 100 OFFCURVE",
"140 -17 OFFCURVE",
"322 -17 CURVE SMOOTH",
"412 -17 OFFCURVE",
"484 13 OFFCURVE",
"534 56 CURVE",
"471 142 LINE",
"429 115 OFFCURVE",
"383 98 OFFCURVE",
"335 98 CURVE SMOOTH",
"267 98 OFFCURVE",
"218 132 OFFCURVE",
"207 219 CURVE"
);
},
{
closed = 1;
nodes = (
"372 443 OFFCURVE",
"399 392 OFFCURVE",
"400 315 CURVE",
"205 315 LINE",
"212 403 OFFCURVE",
"249 443 OFFCURVE",
"305 443 CURVE SMOOTH"
);
}
);
width = 600;
}
);
note = emacron;
unicode = 0113;
},
{
glyphname = eogonek;
lastChange = "2016-11-29 10:57:25 +0000";
layers = (
{
layerId = "0CCF1926-DDDC-4230-AEA6-FDA11143D54E";
paths = (
{
closed = 1;
nodes = (
"554 447 OFFCURVE",
"457 549 OFFCURVE",
"305 549 CURVE SMOOTH",
"138 549 OFFCURVE",
"46 422 OFFCURVE",
"46 265 CURVE SMOOTH",
"46 113 OFFCURVE",
"125 2 OFFCURVE",
"279 -15 CURVE",
"236 -43 OFFCURVE",
"210 -79 OFFCURVE",
"210 -130 CURVE SMOOTH",
"210 -209 OFFCURVE",
"276 -253 OFFCURVE",
"361 -253 CURVE SMOOTH",
"384 -253 OFFCURVE",
"402 -250 OFFCURVE",
"420 -245 CURVE",
"432 -152 LINE",
"415 -156 OFFCURVE",
"399 -159 OFFCURVE",
"378 -159 CURVE SMOOTH",
"343 -159 OFFCURVE",
"320 -143 OFFCURVE",
"320 -110 CURVE SMOOTH",
"320 -69 OFFCURVE",
"342 -32 OFFCURVE",
"435 0 CURVE",
"435 1 LINE",
"474 13 OFFCURVE",
"507 33 OFFCURVE",
"534 56 CURVE",
"471 142 LINE",
"429 115 OFFCURVE",
"383 98 OFFCURVE",
"335 98 CURVE SMOOTH",
"267 98 OFFCURVE",
"218 132 OFFCURVE",
"207 219 CURVE",
"551 219 LINE",
"553 235 OFFCURVE",
"554 258 OFFCURVE",
"554 276 CURVE SMOOTH"
);
},
{
closed = 1;
nodes = (
"205 315 LINE",
"212 403 OFFCURVE",
"249 443 OFFCURVE",
"305 443 CURVE SMOOTH",
"372 443 OFFCURVE",
"399 392 OFFCURVE",
"400 315 CURVE"
);
}
);
width = 600;
}
);
note = eogonek;
unicode = 0119;
},
{
glyphname = f;
lastChange = "2016-11-29 10:57:25 +0000";
layers = (
{
layerId = "0CCF1926-DDDC-4230-AEA6-FDA11143D54E";
paths = (
{
closed = 1;
nodes = (
"264 759 OFFCURVE",
"188 679 OFFCURVE",
"188 574 CURVE SMOOTH",
"188 498 LINE",
"76 498 LINE",
"76 388 LINE",
"188 388 LINE",
"188 0 LINE",
"345 0 LINE",
"345 388 LINE",
"500 388 LINE",
"518 498 LINE",
"345 498 LINE",
"345 569 LINE SMOOTH",
"345 621 OFFCURVE",
"370 642 OFFCURVE",
"433 642 CURVE SMOOTH",
"471 642 OFFCURVE",
"510 636 OFFCURVE",
"546 622 CURVE",
"590 725 LINE",
"543 745 OFFCURVE",
"486 759 OFFCURVE",
"408 759 CURVE SMOOTH"
);
}
);
width = 600;
}
);
note = f;
unicode = 0066;
},
{
glyphname = g;
lastChange = "2016-11-29 10:57:25 +0000";
layers = (
{
layerId = "0CCF1926-DDDC-4230-AEA6-FDA11143D54E";
paths = (
{
closed = 1;
nodes = (
"542 616 LINE",
"478 578 OFFCURVE",
"410 545 OFFCURVE",
"292 548 CURVE SMOOTH",
"153 548 OFFCURVE",
"55 474 OFFCURVE",
"55 354 CURVE SMOOTH",
"55 285 OFFCURVE",
"82 238 OFFCURVE",
"149 202 CURVE",
"111 178 OFFCURVE",
"90 140 OFFCURVE",
"90 101 CURVE SMOOTH",
"90 45 OFFCURVE",
"138 -4 OFFCURVE",
"254 -4 CURVE SMOOTH",
"338 -4 LINE SMOOTH",
"391 -4 OFFCURVE",
"415 -26 OFFCURVE",
"415 -57 CURVE SMOOTH",
"415 -92 OFFCURVE",
"392 -118 OFFCURVE",
"292 -118 CURVE SMOOTH",
"191 -118 OFFCURVE",
"171 -97 OFFCURVE",
"171 -51 CURVE",
"31 -51 LINE",
"31 -156 OFFCURVE",
"84 -222 OFFCURVE",
"288 -222 CURVE SMOOTH",
"476 -222 OFFCURVE",
"572 -155 OFFCURVE",
"572 -46 CURVE SMOOTH",
"572 43 OFFCURVE",
"493 108 OFFCURVE",
"370 108 CURVE SMOOTH",
"282 108 LINE SMOOTH",
"231 108 OFFCURVE",
"224 124 OFFCURVE",
"224 140 CURVE SMOOTH",
"224 152 OFFCURVE",
"230 164 OFFCURVE",
"241 170 CURVE",
"260 166 OFFCURVE",
"280 164 OFFCURVE",
"303 164 CURVE SMOOTH",
"440 164 OFFCURVE",
"528 239 OFFCURVE",
"528 342 CURVE SMOOTH",
"528 411 OFFCURVE",
"492 450 OFFCURVE",
"425 479 CURVE",
"492 479 OFFCURVE",
"541 485 OFFCURVE",
"578 500 CURVE"
);
},
{
closed = 1;
nodes = (
"349 445 OFFCURVE",
"377 417 OFFCURVE",
"377 358 CURVE SMOOTH",
"377 297 OFFCURVE",
"348 265 OFFCURVE",
"296 265 CURVE SMOOTH",
"247 265 OFFCURVE",
"215 298 OFFCURVE",
"215 356 CURVE SMOOTH",
"215 411 OFFCURVE",
"246 445 OFFCURVE",
"296 445 CURVE SMOOTH"
);
}
);
width = 600;
}
);
note = g;
unicode = 0067;
},
{
glyphname = gbreve;
lastChange = "2016-11-29 10:57:25 +0000";
layers = (
{
layerId = "0CCF1926-DDDC-4230-AEA6-FDA11143D54E";
paths = (
{
closed = 1;
nodes = (
"410 612 OFFCURVE",
"465 698 OFFCURVE",
"473 786 CURVE",
"386 801 LINE",
"374 753 OFFCURVE",
"347 720 OFFCURVE",
"301 720 CURVE SMOOTH",
"255 720 OFFCURVE",
"228 753 OFFCURVE",
"216 801 CURVE",
"129 786 LINE",
"137 698 OFFCURVE",
"190 612 OFFCURVE",
"301 612 CURVE SMOOTH"
);
},
{
closed = 1;
nodes = (
"542 616 LINE",
"478 578 OFFCURVE",
"410 545 OFFCURVE",
"292 548 CURVE SMOOTH",
"153 548 OFFCURVE",
"55 474 OFFCURVE",
"55 354 CURVE SMOOTH",
"55 285 OFFCURVE",
"82 238 OFFCURVE",
"149 202 CURVE",
"111 178 OFFCURVE",
"90 140 OFFCURVE",
"90 101 CURVE SMOOTH",
"90 45 OFFCURVE",
"138 -4 OFFCURVE",
"254 -4 CURVE SMOOTH",
"338 -4 LINE SMOOTH",
"391 -4 OFFCURVE",
"415 -26 OFFCURVE",
"415 -57 CURVE SMOOTH",
"415 -92 OFFCURVE",
"392 -118 OFFCURVE",
"292 -118 CURVE SMOOTH",
"191 -118 OFFCURVE",
"171 -97 OFFCURVE",
"171 -51 CURVE",
"31 -51 LINE",
"31 -156 OFFCURVE",
"84 -222 OFFCURVE",
"288 -222 CURVE SMOOTH",
"476 -222 OFFCURVE",
"572 -155 OFFCURVE",
"572 -46 CURVE SMOOTH",
"572 43 OFFCURVE",
"493 108 OFFCURVE",
"370 108 CURVE SMOOTH",
"282 108 LINE SMOOTH",
"231 108 OFFCURVE",
"224 124 OFFCURVE",
"224 140 CURVE SMOOTH",
"224 152 OFFCURVE",
"230 164 OFFCURVE",
"241 170 CURVE",
"260 166 OFFCURVE",
"280 164 OFFCURVE",
"303 164 CURVE SMOOTH",
"440 164 OFFCURVE",
"528 239 OFFCURVE",
"528 342 CURVE SMOOTH",
"528 411 OFFCURVE",
"492 450 OFFCURVE",
"425 479 CURVE",
"492 479 OFFCURVE",
"541 485 OFFCURVE",
"578 500 CURVE"
);
},
{
closed = 1;
nodes = (
"349 445 OFFCURVE",
"377 417 OFFCURVE",
"377 358 CURVE SMOOTH",
"377 297 OFFCURVE",
"348 265 OFFCURVE",
"296 265 CURVE SMOOTH",
"247 265 OFFCURVE",
"215 298 OFFCURVE",
"215 356 CURVE SMOOTH",
"215 411 OFFCURVE",
"246 445 OFFCURVE",
"296 445 CURVE SMOOTH"
);
}
);
width = 600;
}
);
note = gbreve;
unicode = 011F;
},
{
glyphname = gcircumflex;
lastChange = "2016-11-29 10:57:25 +0000";
layers = (
{
layerId = "0CCF1926-DDDC-4230-AEA6-FDA11143D54E";
paths = (
{
closed = 1;
nodes = (
"168 611 LINE",
"301 705 LINE",
"434 611 LINE",
"490 676 LINE",
"349 815 LINE",
"253 815 LINE",
"111 676 LINE"
);
},
{
closed = 1;
nodes = (
"542 616 LINE",
"478 578 OFFCURVE",
"410 545 OFFCURVE",
"292 548 CURVE SMOOTH",
"153 548 OFFCURVE",
"55 474 OFFCURVE",
"55 354 CURVE SMOOTH",
"55 285 OFFCURVE",
"82 238 OFFCURVE",
"149 202 CURVE",
"111 178 OFFCURVE",
"90 140 OFFCURVE",
"90 101 CURVE SMOOTH",
"90 45 OFFCURVE",
"138 -4 OFFCURVE",
"254 -4 CURVE SMOOTH",
"338 -4 LINE SMOOTH",
"391 -4 OFFCURVE",
"415 -26 OFFCURVE",
"415 -57 CURVE SMOOTH",
"415 -92 OFFCURVE",
"392 -118 OFFCURVE",
"292 -118 CURVE SMOOTH",
"191 -118 OFFCURVE",
"171 -97 OFFCURVE",
"171 -51 CURVE",
"31 -51 LINE",
"31 -156 OFFCURVE",
"84 -222 OFFCURVE",
"288 -222 CURVE SMOOTH",
"476 -222 OFFCURVE",
"572 -155 OFFCURVE",
"572 -46 CURVE SMOOTH",
"572 43 OFFCURVE",
"493 108 OFFCURVE",
"370 108 CURVE SMOOTH",
"282 108 LINE SMOOTH",
"231 108 OFFCURVE",
"224 124 OFFCURVE",
"224 140 CURVE SMOOTH",
"224 152 OFFCURVE",
"230 164 OFFCURVE",
"241 170 CURVE",
"260 166 OFFCURVE",
"280 164 OFFCURVE",
"303 164 CURVE SMOOTH",
"440 164 OFFCURVE",
"528 239 OFFCURVE",
"528 342 CURVE SMOOTH",
"528 411 OFFCURVE",
"492 450 OFFCURVE",
"425 479 CURVE",
"492 479 OFFCURVE",
"541 485 OFFCURVE",
"578 500 CURVE"
);
},
{
closed = 1;
nodes = (
"349 445 OFFCURVE",
"377 417 OFFCURVE",
"377 358 CURVE SMOOTH",
"377 297 OFFCURVE",
"348 265 OFFCURVE",
"296 265 CURVE SMOOTH",
"247 265 OFFCURVE",
"215 298 OFFCURVE",
"215 356 CURVE SMOOTH",
"215 411 OFFCURVE",
"246 445 OFFCURVE",
"296 445 CURVE SMOOTH"
);
}
);
width = 600;
}
);
note = gcircumflex;
unicode = 011D;
},
{
glyphname = gcommaaccent;
lastChange = "2016-11-29 10:57:25 +0000";
layers = (
{
layerId = "0CCF1926-DDDC-4230-AEA6-FDA11143D54E";
paths = (
{
closed = 1;
nodes = (
"347 596 OFFCURVE",
"380 631 OFFCURVE",
"380 674 CURVE SMOOTH",
"380 702 OFFCURVE",
"366 723 OFFCURVE",
"348 738 CURVE",
"375 853 LINE",
"295 853 LINE",
"246 756 LINE SMOOTH",
"231 726 OFFCURVE",
"223 697 OFFCURVE",
"223 674 CURVE SMOOTH",
"223 629 OFFCURVE",
"256 596 OFFCURVE",
"301 596 CURVE SMOOTH"
);
},
{
closed = 1;
nodes = (
"542 616 LINE",
"478 578 OFFCURVE",
"410 545 OFFCURVE",
"292 548 CURVE SMOOTH",
"153 548 OFFCURVE",
"55 474 OFFCURVE",
"55 354 CURVE SMOOTH",
"55 285 OFFCURVE",
"82 238 OFFCURVE",
"149 202 CURVE",
"111 178 OFFCURVE",
"90 140 OFFCURVE",
"90 101 CURVE SMOOTH",
"90 45 OFFCURVE",
"138 -4 OFFCURVE",
"254 -4 CURVE SMOOTH",
"338 -4 LINE SMOOTH",
"391 -4 OFFCURVE",
"415 -26 OFFCURVE",
"415 -57 CURVE SMOOTH",
"415 -92 OFFCURVE",
"392 -118 OFFCURVE",
"292 -118 CURVE SMOOTH",
"191 -118 OFFCURVE",
"171 -97 OFFCURVE",
"171 -51 CURVE",
"31 -51 LINE",
"31 -156 OFFCURVE",
"84 -222 OFFCURVE",
"288 -222 CURVE SMOOTH",
"476 -222 OFFCURVE",
"572 -155 OFFCURVE",
"572 -46 CURVE SMOOTH",
"572 43 OFFCURVE",
"493 108 OFFCURVE",
"370 108 CURVE SMOOTH",
"282 108 LINE SMOOTH",
"231 108 OFFCURVE",
"224 124 OFFCURVE",
"224 140 CURVE SMOOTH",
"224 152 OFFCURVE",
"230 164 OFFCURVE",
"241 170 CURVE",
"260 166 OFFCURVE",
"280 164 OFFCURVE",
"303 164 CURVE SMOOTH",
"440 164 OFFCURVE",
"528 239 OFFCURVE",
"528 342 CURVE SMOOTH",
"528 411 OFFCURVE",
"492 450 OFFCURVE",
"425 479 CURVE",
"492 479 OFFCURVE",
"541 485 OFFCURVE",
"578 500 CURVE"
);
},
{
closed = 1;
nodes = (
"349 445 OFFCURVE",
"377 417 OFFCURVE",
"377 358 CURVE SMOOTH",
"377 297 OFFCURVE",
"348 265 OFFCURVE",
"296 265 CURVE SMOOTH",
"247 265 OFFCURVE",
"215 298 OFFCURVE",
"215 356 CURVE SMOOTH",
"215 411 OFFCURVE",
"246 445 OFFCURVE",
"296 445 CURVE SMOOTH"
);
}
);
width = 600;
}
);
note = gcommaaccent;
unicode = 0123;
},
{
glyphname = gdotaccent;
lastChange = "2016-11-29 10:57:25 +0000";
layers = (
{
layerId = "0CCF1926-DDDC-4230-AEA6-FDA11143D54E";
paths = (
{
closed = 1;
nodes = (
"246 809 OFFCURVE",
"207 770 OFFCURVE",
"207 720 CURVE SMOOTH",
"207 669 OFFCURVE",
"246 631 OFFCURVE",
"301 631 CURVE SMOOTH",
"356 631 OFFCURVE",
"394 669 OFFCURVE",
"394 720 CURVE SMOOTH",
"394 770 OFFCURVE",
"356 809 OFFCURVE",
"301 809 CURVE SMOOTH"
);
},
{
closed = 1;
nodes = (
"542 616 LINE",
"478 578 OFFCURVE",
"410 545 OFFCURVE",
"292 548 CURVE SMOOTH",
"153 548 OFFCURVE",
"55 474 OFFCURVE",
"55 354 CURVE SMOOTH",
"55 285 OFFCURVE",
"82 238 OFFCURVE",
"149 202 CURVE",
"111 178 OFFCURVE",
"90 140 OFFCURVE",
"90 101 CURVE SMOOTH",
"90 45 OFFCURVE",
"138 -4 OFFCURVE",
"254 -4 CURVE SMOOTH",
"338 -4 LINE SMOOTH",
"391 -4 OFFCURVE",
"415 -26 OFFCURVE",
"415 -57 CURVE SMOOTH",
"415 -92 OFFCURVE",
"392 -118 OFFCURVE",
"292 -118 CURVE SMOOTH",
"191 -118 OFFCURVE",
"171 -97 OFFCURVE",
"171 -51 CURVE",
"31 -51 LINE",
"31 -156 OFFCURVE",
"84 -222 OFFCURVE",
"288 -222 CURVE SMOOTH",
"476 -222 OFFCURVE",
"572 -155 OFFCURVE",
"572 -46 CURVE SMOOTH",
"572 43 OFFCURVE",
"493 108 OFFCURVE",
"370 108 CURVE SMOOTH",
"282 108 LINE SMOOTH",
"231 108 OFFCURVE",
"224 124 OFFCURVE",
"224 140 CURVE SMOOTH",
"224 152 OFFCURVE",
"230 164 OFFCURVE",
"241 170 CURVE",
"260 166 OFFCURVE",
"280 164 OFFCURVE",
"303 164 CURVE SMOOTH",
"440 164 OFFCURVE",
"528 239 OFFCURVE",
"528 342 CURVE SMOOTH",
"528 411 OFFCURVE",
"492 450 OFFCURVE",
"425 479 CURVE",
"492 479 OFFCURVE",
"541 485 OFFCURVE",
"578 500 CURVE"
);
},
{
closed = 1;
nodes = (
"349 445 OFFCURVE",
"377 417 OFFCURVE",
"377 358 CURVE SMOOTH",
"377 297 OFFCURVE",
"348 265 OFFCURVE",
"296 265 CURVE SMOOTH",
"247 265 OFFCURVE",
"215 298 OFFCURVE",
"215 356 CURVE SMOOTH",
"215 411 OFFCURVE",
"246 445 OFFCURVE",
"296 445 CURVE SMOOTH"
);
}
);
width = 600;
}
);
note = gdotaccent;
unicode = 0121;
},
{
glyphname = h;
lastChange = "2016-11-29 10:57:25 +0000";
layers = (
{
layerId = "0CCF1926-DDDC-4230-AEA6-FDA11143D54E";
paths = (
{
closed = 1;
nodes = (
"228 758 LINE",
"70 742 LINE",
"70 0 LINE",
"228 0 LINE",
"228 367 LINE",
"258 407 OFFCURVE",
"287 432 OFFCURVE",
"321 432 CURVE SMOOTH",
"360 432 OFFCURVE",
"372 410 OFFCURVE",
"372 346 CURVE SMOOTH",
"372 0 LINE",
"530 0 LINE",
"530 390 LINE SMOOTH",
"530 491 OFFCURVE",
"478 549 OFFCURVE",
"384 549 CURVE SMOOTH",
"325 549 OFFCURVE",
"273 526 OFFCURVE",
"228 478 CURVE"
);
}
);
width = 600;
}
);
note = h;
unicode = 0068;
},
{
glyphname = hbar;
lastChange = "2016-11-29 10:57:25 +0000";
layers = (
{
layerId = "0CCF1926-DDDC-4230-AEA6-FDA11143D54E";
paths = (
{
closed = 1;
nodes = (
"325 549 OFFCURVE",
"273 526 OFFCURVE",
"228 478 CURVE",
"228 593 LINE",
"369 593 LINE",
"369 685 LINE",
"228 685 LINE",
"228 758 LINE",
"70 742 LINE",
"70 685 LINE",
"8 685 LINE",
"8 593 LINE",
"70 593 LINE",
"70 0 LINE",
"228 0 LINE",
"228 367 LINE",
"258 407 OFFCURVE",
"287 432 OFFCURVE",
"321 432 CURVE SMOOTH",
"360 432 OFFCURVE",
"372 410 OFFCURVE",
"372 346 CURVE SMOOTH",
"372 0 LINE",
"530 0 LINE",
"530 390 LINE SMOOTH",
"530 491 OFFCURVE",
"478 549 OFFCURVE",
"384 549 CURVE SMOOTH"
);
}
);
width = 600;
}
);
note = hbar;
unicode = 0127;
},
{
glyphname = hcircumflex;
lastChange = "2016-11-29 10:57:25 +0000";
layers = (
{
layerId = "0CCF1926-DDDC-4230-AEA6-FDA11143D54E";
paths = (
{
closed = 1;
nodes = (
"348 992 LINE",
"252 992 LINE",
"110 862 LINE",
"167 797 LINE",
"300 882 LINE",
"433 797 LINE",
"489 862 LINE"
);
},
{
closed = 1;
nodes = (
"228 758 LINE",
"70 742 LINE",
"70 0 LINE",
"228 0 LINE",
"228 367 LINE",
"258 407 OFFCURVE",
"287 432 OFFCURVE",
"321 432 CURVE SMOOTH",
"360 432 OFFCURVE",
"372 410 OFFCURVE",
"372 346 CURVE SMOOTH",
"372 0 LINE",
"530 0 LINE",
"530 390 LINE SMOOTH",
"530 491 OFFCURVE",
"478 549 OFFCURVE",
"384 549 CURVE SMOOTH",
"325 549 OFFCURVE",
"273 526 OFFCURVE",
"228 478 CURVE"
);
}
);
width = 600;
}
);
note = hcircumflex;
unicode = 0125;
},
{
glyphname = i;
lastChange = "2016-11-29 10:57:25 +0000";
layers = (
{
layerId = "0CCF1926-DDDC-4230-AEA6-FDA11143D54E";
paths = (
{
closed = 1;
nodes = (
"244 809 OFFCURVE",
"205 770 OFFCURVE",
"205 720 CURVE SMOOTH",
"205 669 OFFCURVE",
"244 631 OFFCURVE",
"299 631 CURVE SMOOTH",
"354 631 OFFCURVE",
"392 669 OFFCURVE",
"392 720 CURVE SMOOTH",
"392 770 OFFCURVE",
"354 809 OFFCURVE",
"299 809 CURVE SMOOTH"
);
},
{
closed = 1;
nodes = (
"394 531 LINE",
"91 531 LINE",
"91 423 LINE",
"236 423 LINE",
"236 108 LINE",
"86 108 LINE",
"86 0 LINE",
"530 0 LINE",
"530 108 LINE",
"394 108 LINE"
);
}
);
width = 600;
}
);
note = i;
unicode = 0069;
},
{
glyphname = dotlessi;
lastChange = "2016-11-29 10:57:25 +0000";
layers = (
{
layerId = "0CCF1926-DDDC-4230-AEA6-FDA11143D54E";
paths = (
{
closed = 1;
nodes = (
"394 531 LINE",
"91 531 LINE",
"91 423 LINE",
"236 423 LINE",
"236 108 LINE",
"86 108 LINE",
"86 0 LINE",
"530 0 LINE",
"530 108 LINE",
"394 108 LINE"
);
}
);
width = 600;
}
);
note = dotlessi;
unicode = 0131;
},
{
glyphname = iacute;
lastChange = "2016-11-29 10:57:25 +0000";
layers = (
{
layerId = "0CCF1926-DDDC-4230-AEA6-FDA11143D54E";
paths = (
{
closed = 1;
nodes = (
"375 835 LINE",
"157 703 LINE",
"200 622 LINE",
"437 716 LINE"
);
},
{
closed = 1;
nodes = (
"394 531 LINE",
"91 531 LINE",
"91 423 LINE",
"236 423 LINE",
"236 108 LINE",
"86 108 LINE",
"86 0 LINE",
"530 0 LINE",
"530 108 LINE",
"394 108 LINE"
);
}
);
width = 600;
}
);
note = iacute;
unicode = 00ED;
},
{
glyphname = ibreve;
lastChange = "2016-11-29 10:57:25 +0000";
layers = (
{
layerId = "0CCF1926-DDDC-4230-AEA6-FDA11143D54E";
paths = (
{
closed = 1;
nodes = (
"408 612 OFFCURVE",
"463 698 OFFCURVE",
"471 786 CURVE",
"384 801 LINE",
"372 753 OFFCURVE",
"345 720 OFFCURVE",
"299 720 CURVE SMOOTH",
"253 720 OFFCURVE",
"226 753 OFFCURVE",
"214 801 CURVE",
"127 786 LINE",
"135 698 OFFCURVE",
"188 612 OFFCURVE",
"299 612 CURVE SMOOTH"
);
},
{
closed = 1;
nodes = (
"394 531 LINE",
"91 531 LINE",
"91 423 LINE",
"236 423 LINE",
"236 108 LINE",
"86 108 LINE",
"86 0 LINE",
"530 0 LINE",
"530 108 LINE",
"394 108 LINE"
);
}
);
width = 600;
}
);
note = ibreve;
unicode = 012D;
},
{
glyphname = icircumflex;
lastChange = "2016-11-29 10:57:25 +0000";
layers = (
{
layerId = "0CCF1926-DDDC-4230-AEA6-FDA11143D54E";
paths = (
{
closed = 1;
nodes = (
"166 611 LINE",
"299 705 LINE",
"432 611 LINE",
"488 676 LINE",
"347 815 LINE",
"251 815 LINE",
"109 676 LINE"
);
},
{
closed = 1;
nodes = (
"394 531 LINE",
"91 531 LINE",
"91 423 LINE",
"236 423 LINE",
"236 108 LINE",
"86 108 LINE",
"86 0 LINE",
"530 0 LINE",
"530 108 LINE",
"394 108 LINE"
);
}
);
width = 600;
}
);
note = icircumflex;
unicode = 00EE;
},
{
glyphname = idieresis;
lastChange = "2016-11-29 10:57:25 +0000";
layers = (
{
layerId = "0CCF1926-DDDC-4230-AEA6-FDA11143D54E";
paths = (
{
closed = 1;
nodes = (
"230 637 OFFCURVE",
"266 672 OFFCURVE",
"266 718 CURVE SMOOTH",
"266 762 OFFCURVE",
"230 797 OFFCURVE",
"183 797 CURVE SMOOTH",
"138 797 OFFCURVE",
"101 762 OFFCURVE",
"101 718 CURVE SMOOTH",
"101 672 OFFCURVE",
"138 637 OFFCURVE",
"183 637 CURVE SMOOTH"
);
},
{
closed = 1;
nodes = (
"461 637 OFFCURVE",
"497 672 OFFCURVE",
"497 718 CURVE SMOOTH",
"497 762 OFFCURVE",
"461 797 OFFCURVE",
"415 797 CURVE SMOOTH",
"370 797 OFFCURVE",
"332 762 OFFCURVE",
"332 718 CURVE SMOOTH",
"332 672 OFFCURVE",
"370 637 OFFCURVE",
"415 637 CURVE SMOOTH"
);
},
{
closed = 1;
nodes = (
"394 531 LINE",
"91 531 LINE",
"91 423 LINE",
"236 423 LINE",
"236 108 LINE",
"86 108 LINE",
"86 0 LINE",
"530 0 LINE",
"530 108 LINE",
"394 108 LINE"
);
}
);
width = 600;
}
);
note = idieresis;
unicode = 00EF;
},
{
glyphname = i.loclTRK;
lastChange = "2016-11-29 10:57:25 +0000";
layers = (
{
layerId = "0CCF1926-DDDC-4230-AEA6-FDA11143D54E";
paths = (
{
closed = 1;
nodes = (
"244 809 OFFCURVE",
"205 770 OFFCURVE",
"205 720 CURVE SMOOTH",
"205 669 OFFCURVE",
"244 631 OFFCURVE",
"299 631 CURVE SMOOTH",
"354 631 OFFCURVE",
"392 669 OFFCURVE",
"392 720 CURVE SMOOTH",
"392 770 OFFCURVE",
"354 809 OFFCURVE",
"299 809 CURVE SMOOTH"
);
},
{
closed = 1;
nodes = (
"394 531 LINE",
"91 531 LINE",
"91 423 LINE",
"236 423 LINE",
"236 108 LINE",
"86 108 LINE",
"86 0 LINE",
"530 0 LINE",
"530 108 LINE",
"394 108 LINE"
);
}
);
width = 600;
}
);
note = i.loclTRK;
},
{
glyphname = igrave;
lastChange = "2016-11-29 10:57:25 +0000";
layers = (
{
layerId = "0CCF1926-DDDC-4230-AEA6-FDA11143D54E";
paths = (
{
closed = 1;
nodes = (
"398 622 LINE",
"441 702 LINE",
"223 835 LINE",
"162 716 LINE"
);
},
{
closed = 1;
nodes = (
"394 531 LINE",
"91 531 LINE",
"91 423 LINE",
"236 423 LINE",
"236 108 LINE",
"86 108 LINE",
"86 0 LINE",
"530 0 LINE",
"530 108 LINE",
"394 108 LINE"
);
}
);
width = 600;
}
);
note = igrave;
unicode = 00EC;
},
{
glyphname = ij;
lastChange = "2016-11-29 10:57:25 +0000";
layers = (
{
layerId = "0CCF1926-DDDC-4230-AEA6-FDA11143D54E";
paths = (
{
closed = 1;
nodes = (
"128 809 OFFCURVE",
"89 770 OFFCURVE",
"89 720 CURVE SMOOTH",
"89 669 OFFCURVE",
"128 631 OFFCURVE",
"182 631 CURVE SMOOTH",
"238 631 OFFCURVE",
"277 669 OFFCURVE",
"277 720 CURVE SMOOTH",
"277 770 OFFCURVE",
"238 809 OFFCURVE",
"182 809 CURVE SMOOTH"
);
},
{
closed = 1;
nodes = (
"401 809 OFFCURVE",
"362 770 OFFCURVE",
"362 720 CURVE SMOOTH",
"362 669 OFFCURVE",
"401 631 OFFCURVE",
"456 631 CURVE SMOOTH",
"510 631 OFFCURVE",
"550 669 OFFCURVE",
"550 720 CURVE SMOOTH",
"550 770 OFFCURVE",
"510 809 OFFCURVE",
"456 809 CURVE SMOOTH"
);
},
{
closed = 1;
nodes = (
"545 531 LINE",
"40 531 LINE",
"40 424 LINE",
"104 424 LINE",
"104 108 LINE",
"35 108 LINE",
"35 0 LINE",
"312 0 LINE",
"312 108 LINE",
"260 108 LINE",
"260 424 LINE",
"388 424 LINE",
"388 108 LINE SMOOTH",
"388 -24 OFFCURVE",
"323 -65 OFFCURVE",
"193 -105 CURVE",
"245 -222 LINE",
"436 -164 OFFCURVE",
"545 -86 OFFCURVE",
"545 122 CURVE SMOOTH"
);
}
);
width = 600;
}
);
note = ij;
unicode = 0133;
},
{
glyphname = imacron;
lastChange = "2016-11-29 10:57:25 +0000";
layers = (
{
layerId = "0CCF1926-DDDC-4230-AEA6-FDA11143D54E";
paths = (
{
closed = 1;
nodes = (
"452 658 LINE",
"452 767 LINE",
"146 767 LINE",
"146 658 LINE"
);
},
{
closed = 1;
nodes = (
"394 531 LINE",
"91 531 LINE",
"91 423 LINE",
"236 423 LINE",
"236 108 LINE",
"86 108 LINE",
"86 0 LINE",
"530 0 LINE",
"530 108 LINE",
"394 108 LINE"
);
}
);
width = 600;
}
);
note = imacron;
unicode = 012B;
},
{
glyphname = iogonek;
lastChange = "2016-11-29 10:57:25 +0000";
layers = (
{
layerId = "0CCF1926-DDDC-4230-AEA6-FDA11143D54E";
paths = (
{
closed = 1;
nodes = (
"354 631 OFFCURVE",
"392 669 OFFCURVE",
"392 720 CURVE SMOOTH",
"392 770 OFFCURVE",
"354 809 OFFCURVE",
"299 809 CURVE SMOOTH",
"244 809 OFFCURVE",
"205 770 OFFCURVE",
"205 720 CURVE SMOOTH",
"205 669 OFFCURVE",
"244 631 OFFCURVE",
"299 631 CURVE SMOOTH"
);
},
{
closed = 1;
nodes = (
"394 108 LINE",
"394 531 LINE",
"91 531 LINE",
"91 423 LINE",
"236 423 LINE",
"236 108 LINE",
"86 108 LINE",
"86 0 LINE",
"249 0 LINE",
"200 -29 OFFCURVE",
"169 -69 OFFCURVE",
"169 -130 CURVE SMOOTH",
"169 -209 OFFCURVE",
"235 -253 OFFCURVE",
"320 -253 CURVE SMOOTH",
"343 -253 OFFCURVE",
"361 -250 OFFCURVE",
"379 -245 CURVE",
"391 -152 LINE",
"374 -156 OFFCURVE",
"358 -159 OFFCURVE",
"337 -159 CURVE SMOOTH",
"302 -159 OFFCURVE",
"279 -143 OFFCURVE",
"279 -110 CURVE SMOOTH",
"279 -69 OFFCURVE",
"301 -32 OFFCURVE",
"394 0 CURVE",
"530 0 LINE",
"530 108 LINE"
);
}
);
width = 600;
}
);
note = iogonek;
unicode = 012F;
},
{
glyphname = itilde;
lastChange = "2016-11-29 10:57:25 +0000";
layers = (
{
layerId = "0CCF1926-DDDC-4230-AEA6-FDA11143D54E";
paths = (
{
closed = 1;
nodes = (
"415 635 OFFCURVE",
"459 685 OFFCURVE",
"485 752 CURVE",
"406 790 LINE",
"389 761 OFFCURVE",
"376 747 OFFCURVE",
"354 747 CURVE SMOOTH",
"320 747 OFFCURVE",
"299 792 OFFCURVE",
"238 792 CURVE SMOOTH",
"177 792 OFFCURVE",
"134 738 OFFCURVE",
"109 674 CURVE",
"188 636 LINE",
"204 665 OFFCURVE",
"216 680 OFFCURVE",
"241 680 CURVE SMOOTH",
"274 680 OFFCURVE",
"297 635 OFFCURVE",
"355 635 CURVE SMOOTH"
);
},
{
closed = 1;
nodes = (
"394 531 LINE",
"91 531 LINE",
"91 423 LINE",
"236 423 LINE",
"236 108 LINE",
"86 108 LINE",
"86 0 LINE",
"530 0 LINE",
"530 108 LINE",
"394 108 LINE"
);
}
);
width = 600;
}
);
note = itilde;
unicode = 0129;
},
{
glyphname = j;
lastChange = "2016-11-29 10:57:25 +0000";
layers = (
{
layerId = "0CCF1926-DDDC-4230-AEA6-FDA11143D54E";
paths = (
{
closed = 1;
nodes = (
"314 809 OFFCURVE",
"276 770 OFFCURVE",
"276 720 CURVE SMOOTH",
"276 669 OFFCURVE",
"314 631 OFFCURVE",
"370 631 CURVE SMOOTH",
"424 631 OFFCURVE",
"463 669 OFFCURVE",
"463 720 CURVE SMOOTH",
"463 770 OFFCURVE",
"424 809 OFFCURVE",
"370 809 CURVE SMOOTH"
);
},
{
closed = 1;
nodes = (
"472 531 LINE",
"124 531 LINE",
"124 423 LINE",
"314 423 LINE",
"314 144 LINE SMOOTH",
"314 -10 OFFCURVE",
"231 -65 OFFCURVE",
"70 -101 CURVE",
"94 -222 LINE",
"342 -173 OFFCURVE",
"472 -76 OFFCURVE",
"472 154 CURVE SMOOTH"
);
}
);
width = 600;
}
);
note = j;
unicode = 006A;
},
{
glyphname = uni0237;
lastChange = "2016-11-29 10:57:25 +0000";
layers = (
{
layerId = "0CCF1926-DDDC-4230-AEA6-FDA11143D54E";
paths = (
{
closed = 1;
nodes = (
"472 531 LINE",
"124 531 LINE",
"124 423 LINE",
"314 423 LINE",
"314 144 LINE SMOOTH",
"314 -10 OFFCURVE",
"231 -65 OFFCURVE",
"70 -101 CURVE",
"94 -222 LINE",
"342 -173 OFFCURVE",
"472 -76 OFFCURVE",
"472 154 CURVE SMOOTH"
);
}
);
width = 600;
}
);
note = uni0237;
unicode = 0237;
},
{
glyphname = jcircumflex;
lastChange = "2016-11-29 10:57:25 +0000";
layers = (
{
layerId = "0CCF1926-DDDC-4230-AEA6-FDA11143D54E";
paths = (
{
closed = 1;
nodes = (
"237 611 LINE",
"370 705 LINE",
"503 611 LINE",
"559 676 LINE",
"418 815 LINE",
"322 815 LINE",
"180 676 LINE"
);
},
{
closed = 1;
nodes = (
"472 531 LINE",
"124 531 LINE",
"124 423 LINE",
"314 423 LINE",
"314 144 LINE SMOOTH",
"314 -10 OFFCURVE",
"231 -65 OFFCURVE",
"70 -101 CURVE",
"94 -222 LINE",
"342 -173 OFFCURVE",
"472 -76 OFFCURVE",
"472 154 CURVE SMOOTH"
);
}
);
width = 600;
}
);
note = jcircumflex;
unicode = 0135;
},
{
glyphname = k;
lastChange = "2016-11-29 10:57:25 +0000";
layers = (
{
layerId = "0CCF1926-DDDC-4230-AEA6-FDA11143D54E";
paths = (
{
closed = 1;
nodes = (
"228 759 LINE",
"70 742 LINE",
"70 0 LINE",
"228 0 LINE"
);
},
{
closed = 1;
nodes = (
"574 531 LINE",
"409 531 LINE",
"234 291 LINE",
"408 0 LINE",
"588 0 LINE",
"399 296 LINE"
);
}
);
width = 600;
}
);
note = k;
unicode = 006B;
},
{
glyphname = kcommaaccent;
lastChange = "2016-11-29 10:57:25 +0000";
layers = (
{
layerId = "0CCF1926-DDDC-4230-AEA6-FDA11143D54E";
paths = (
{
closed = 1;
nodes = (
"228 759 LINE",
"70 742 LINE",
"70 0 LINE",
"228 0 LINE"
);
},
{
closed = 1;
nodes = (
"574 531 LINE",
"409 531 LINE",
"234 291 LINE",
"408 0 LINE",
"588 0 LINE",
"399 296 LINE"
);
},
{
closed = 1;
nodes = (
"254 -65 OFFCURVE",
"221 -100 OFFCURVE",
"221 -143 CURVE SMOOTH",
"221 -171 OFFCURVE",
"235 -192 OFFCURVE",
"253 -207 CURVE",
"226 -322 LINE",
"306 -322 LINE",
"355 -225 LINE SMOOTH",
"370 -195 OFFCURVE",
"378 -166 OFFCURVE",
"378 -143 CURVE SMOOTH",
"378 -98 OFFCURVE",
"345 -65 OFFCURVE",
"300 -65 CURVE SMOOTH"
);
}
);
width = 600;
}
);
note = kcommaaccent;
unicode = 0137;
},
{
glyphname = kgreenlandic;
lastChange = "2016-11-29 10:57:25 +0000";
layers = (
{
layerId = "0CCF1926-DDDC-4230-AEA6-FDA11143D54E";
paths = (
{
closed = 1;
nodes = (
"228 531 LINE",
"70 531 LINE",
"70 0 LINE",
"228 0 LINE"
);
},
{
closed = 1;
nodes = (
"574 531 LINE",
"409 531 LINE",
"234 276 LINE",
"408 0 LINE",
"588 0 LINE",
"398 287 LINE"
);
}
);
width = 600;
}
);
note = kgreenlandic;
unicode = 0138;
},
{
glyphname = l;
lastChange = "2016-11-29 10:57:25 +0000";
layers = (
{
layerId = "0CCF1926-DDDC-4230-AEA6-FDA11143D54E";
paths = (
{
closed = 1;
nodes = (
"347 742 LINE",
"33 742 LINE",
"33 634 LINE",
"189 634 LINE",
"189 187 LINE SMOOTH",
"189 62 OFFCURVE",
"247 -17 OFFCURVE",
"375 -17 CURVE SMOOTH",
"443 -17 OFFCURVE",
"493 -1 OFFCURVE",
"528 18 CURVE",
"491 124 LINE",
"469 115 OFFCURVE",
"443 108 OFFCURVE",
"415 108 CURVE SMOOTH",
"373 108 OFFCURVE",
"347 124 OFFCURVE",
"347 167 CURVE SMOOTH"
);
}
);
width = 600;
}
);
note = l;
unicode = 006C;
},
{
glyphname = lacute;
lastChange = "2016-11-29 10:57:25 +0000";
layers = (
{
layerId = "0CCF1926-DDDC-4230-AEA6-FDA11143D54E";
paths = (
{
closed = 1;
nodes = (
"332 1046 LINE",
"114 914 LINE",
"157 833 LINE",
"394 927 LINE"
);
},
{
closed = 1;
nodes = (
"347 742 LINE",
"33 742 LINE",
"33 634 LINE",
"189 634 LINE",
"189 187 LINE SMOOTH",
"189 62 OFFCURVE",
"247 -17 OFFCURVE",
"375 -17 CURVE SMOOTH",
"443 -17 OFFCURVE",
"493 -1 OFFCURVE",
"528 18 CURVE",
"491 124 LINE",
"469 115 OFFCURVE",
"443 108 OFFCURVE",
"415 108 CURVE SMOOTH",
"373 108 OFFCURVE",
"347 124 OFFCURVE",
"347 167 CURVE SMOOTH"
);
}
);
width = 600;
}
);
note = lacute;
unicode = 013A;
},
{
glyphname = lcaron;
lastChange = "2016-11-29 10:57:25 +0000";
layers = (
{
layerId = "0CCF1926-DDDC-4230-AEA6-FDA11143D54E";
paths = (
{
closed = 1;
nodes = (
"420 764 LINE",
"383 531 LINE",
"481 515 LINE",
"559 747 LINE"
);
},
{
closed = 1;
nodes = (
"347 742 LINE",
"33 742 LINE",
"33 634 LINE",
"189 634 LINE",
"189 187 LINE SMOOTH",
"189 62 OFFCURVE",
"247 -17 OFFCURVE",
"375 -17 CURVE SMOOTH",
"443 -17 OFFCURVE",
"493 -1 OFFCURVE",
"528 18 CURVE",
"491 124 LINE",
"469 115 OFFCURVE",
"443 108 OFFCURVE",
"415 108 CURVE SMOOTH",
"373 108 OFFCURVE",
"347 124 OFFCURVE",
"347 167 CURVE SMOOTH"
);
}
);
width = 600;
}
);
note = lcaron;
unicode = 013E;
},
{
glyphname = lcommaaccent;
lastChange = "2016-11-29 10:57:25 +0000";
layers = (
{
layerId = "0CCF1926-DDDC-4230-AEA6-FDA11143D54E";
paths = (
{
closed = 1;
nodes = (
"347 742 LINE",
"33 742 LINE",
"33 634 LINE",
"189 634 LINE",
"189 187 LINE SMOOTH",
"189 62 OFFCURVE",
"247 -17 OFFCURVE",
"375 -17 CURVE SMOOTH",
"443 -17 OFFCURVE",
"493 -1 OFFCURVE",
"528 18 CURVE",
"491 124 LINE",
"469 115 OFFCURVE",
"443 108 OFFCURVE",
"415 108 CURVE SMOOTH",
"373 108 OFFCURVE",
"347 124 OFFCURVE",
"347 167 CURVE SMOOTH"
);
},
{
closed = 1;
nodes = (
"309 -65 OFFCURVE",
"276 -100 OFFCURVE",
"276 -143 CURVE SMOOTH",
"276 -171 OFFCURVE",
"290 -192 OFFCURVE",
"308 -207 CURVE",
"281 -322 LINE",
"361 -322 LINE",
"410 -225 LINE SMOOTH",
"425 -195 OFFCURVE",
"433 -166 OFFCURVE",
"433 -143 CURVE SMOOTH",
"433 -98 OFFCURVE",
"400 -65 OFFCURVE",
"355 -65 CURVE SMOOTH"
);
}
);
width = 600;
}
);
note = lcommaaccent;
unicode = 013C;
},
{
glyphname = ldot;
lastChange = "2016-11-29 10:57:25 +0000";
layers = (
{
layerId = "0CCF1926-DDDC-4230-AEA6-FDA11143D54E";
paths = (
{
closed = 1;
nodes = (
"347 742 LINE",
"33 742 LINE",
"33 634 LINE",
"189 634 LINE",
"189 187 LINE SMOOTH",
"189 62 OFFCURVE",
"247 -17 OFFCURVE",
"375 -17 CURVE SMOOTH",
"443 -17 OFFCURVE",
"493 -1 OFFCURVE",
"528 18 CURVE",
"491 124 LINE",
"469 115 OFFCURVE",
"443 108 OFFCURVE",
"415 108 CURVE SMOOTH",
"373 108 OFFCURVE",
"347 124 OFFCURVE",
"347 167 CURVE SMOOTH"
);
},
{
closed = 1;
nodes = (
"513 472 OFFCURVE",
"474 433 OFFCURVE",
"474 383 CURVE SMOOTH",
"474 332 OFFCURVE",
"513 294 OFFCURVE",
"568 294 CURVE SMOOTH",
"623 294 OFFCURVE",
"661 332 OFFCURVE",
"661 383 CURVE SMOOTH",
"661 433 OFFCURVE",
"623 472 OFFCURVE",
"568 472 CURVE SMOOTH"
);
}
);
width = 600;
}
);
note = ldot;
unicode = 0140;
},
{
glyphname = lslash;
lastChange = "2016-11-29 10:57:25 +0000";
layers = (
{
layerId = "0CCF1926-DDDC-4230-AEA6-FDA11143D54E";
paths = (
{
closed = 1;
nodes = (
"491 124 LINE",
"469 115 OFFCURVE",
"443 108 OFFCURVE",
"415 108 CURVE SMOOTH",
"373 108 OFFCURVE",
"347 124 OFFCURVE",
"347 167 CURVE SMOOTH",
"347 354 LINE",
"468 428 LINE",
"412 517 LINE",
"347 477 LINE",
"347 742 LINE",
"33 742 LINE",
"33 634 LINE",
"189 634 LINE",
"189 380 LINE",
"89 319 LINE",
"144 231 LINE",
"189 258 LINE",
"189 187 LINE SMOOTH",
"189 62 OFFCURVE",
"247 -17 OFFCURVE",
"375 -17 CURVE SMOOTH",
"443 -17 OFFCURVE",
"493 -1 OFFCURVE",
"528 18 CURVE"
);
}
);
width = 600;
}
);
note = lslash;
unicode = 0142;
},
{
glyphname = m;
lastChange = "2016-11-29 10:57:25 +0000";
layers = (
{
layerId = "0CCF1926-DDDC-4230-AEA6-FDA11143D54E";
paths = (
{
closed = 1;
nodes = (
"415 549 OFFCURVE",
"378 523 OFFCURVE",
"346 486 CURVE",
"334 529 OFFCURVE",
"304 549 OFFCURVE",
"264 549 CURVE SMOOTH",
"217 549 OFFCURVE",
"186 525 OFFCURVE",
"153 480 CURVE",
"142 531 LINE",
"27 531 LINE",
"27 0 LINE",
"164 0 LINE",
"164 391 LINE",
"185 418 OFFCURVE",
"203 426 OFFCURVE",
"219 426 CURVE SMOOTH",
"240 426 OFFCURVE",
"245 412 OFFCURVE",
"245 375 CURVE SMOOTH",
"245 0 LINE",
"357 0 LINE",
"357 391 LINE",
"378 418 OFFCURVE",
"395 426 OFFCURVE",
"412 426 CURVE SMOOTH",
"433 426 OFFCURVE",
"438 412 OFFCURVE",
"438 375 CURVE SMOOTH",
"438 0 LINE",
"573 0 LINE",
"573 393 LINE SMOOTH",
"573 502 OFFCURVE",
"538 549 OFFCURVE",
"463 549 CURVE SMOOTH"
);
}
);
width = 600;
}
);
note = m;
unicode = 006D;
},
{
glyphname = n;
lastChange = "2016-11-29 10:57:25 +0000";
layers = (
{
layerId = "0CCF1926-DDDC-4230-AEA6-FDA11143D54E";
paths = (
{
closed = 1;
nodes = (
"70 0 LINE",
"228 0 LINE",
"228 371 LINE",
"258 409 OFFCURVE",
"287 432 OFFCURVE",
"321 432 CURVE SMOOTH",
"360 432 OFFCURVE",
"372 410 OFFCURVE",
"372 344 CURVE SMOOTH",
"372 0 LINE",
"530 0 LINE",
"530 390 LINE SMOOTH",
"530 491 OFFCURVE",
"475 549 OFFCURVE",
"384 549 CURVE SMOOTH",
"316 549 OFFCURVE",
"266 523 OFFCURVE",
"219 470 CURVE",
"208 531 LINE",
"70 531 LINE"
);
}
);
width = 600;
}
);
note = n;
unicode = 006E;
},
{
glyphname = nacute;
lastChange = "2016-11-29 10:57:25 +0000";
layers = (
{
layerId = "0CCF1926-DDDC-4230-AEA6-FDA11143D54E";
paths = (
{
closed = 1;
nodes = (
"377 835 LINE",
"159 703 LINE",
"202 622 LINE",
"439 716 LINE"
);
},
{
closed = 1;
nodes = (
"70 0 LINE",
"228 0 LINE",
"228 371 LINE",
"258 409 OFFCURVE",
"287 432 OFFCURVE",
"321 432 CURVE SMOOTH",
"360 432 OFFCURVE",
"372 410 OFFCURVE",
"372 344 CURVE SMOOTH",
"372 0 LINE",
"530 0 LINE",
"530 390 LINE SMOOTH",
"530 491 OFFCURVE",
"475 549 OFFCURVE",
"384 549 CURVE SMOOTH",
"316 549 OFFCURVE",
"266 523 OFFCURVE",
"219 470 CURVE",
"208 531 LINE",
"70 531 LINE"
);
}
);
width = 600;
}
);
note = nacute;
unicode = 0144;
},
{
glyphname = napostrophe;
lastChange = "2016-11-29 10:57:25 +0000";
layers = (
{
layerId = "0CCF1926-DDDC-4230-AEA6-FDA11143D54E";
paths = (
{
closed = 1;
nodes = (
"15 764 OFFCURVE",
"-17 729 OFFCURVE",
"-17 689 CURVE SMOOTH",
"-17 661 OFFCURVE",
"-3 641 OFFCURVE",
"14 627 CURVE",
"-7 535 LINE",
"71 535 LINE",
"112 615 LINE SMOOTH",
"128 645 OFFCURVE",
"136 664 OFFCURVE",
"136 689 CURVE SMOOTH",
"136 732 OFFCURVE",
"103 764 OFFCURVE",
"59 764 CURVE SMOOTH"
);
},
{
closed = 1;
nodes = (
"90 0 LINE",
"248 0 LINE",
"248 371 LINE",
"277 409 OFFCURVE",
"307 432 OFFCURVE",
"341 432 CURVE SMOOTH",
"380 432 OFFCURVE",
"392 409 OFFCURVE",
"392 344 CURVE SMOOTH",
"392 0 LINE",
"550 0 LINE",
"550 390 LINE SMOOTH",
"550 491 OFFCURVE",
"494 549 OFFCURVE",
"404 549 CURVE SMOOTH",
"336 549 OFFCURVE",
"285 523 OFFCURVE",
"239 470 CURVE",
"228 531 LINE",
"90 531 LINE"
);
}
);
width = 600;
}
);
note = napostrophe;
unicode = 0149;
},
{
glyphname = ncaron;
lastChange = "2016-11-29 10:57:25 +0000";
layers = (
{
layerId = "0CCF1926-DDDC-4230-AEA6-FDA11143D54E";
paths = (
{
closed = 1;
nodes = (
"434 815 LINE",
"301 721 LINE",
"168 815 LINE",
"111 751 LINE",
"253 611 LINE",
"349 611 LINE",
"490 751 LINE"
);
},
{
closed = 1;
nodes = (
"70 0 LINE",
"228 0 LINE",
"228 371 LINE",
"258 409 OFFCURVE",
"287 432 OFFCURVE",
"321 432 CURVE SMOOTH",
"360 432 OFFCURVE",
"372 410 OFFCURVE",
"372 344 CURVE SMOOTH",
"372 0 LINE",
"530 0 LINE",
"530 390 LINE SMOOTH",
"530 491 OFFCURVE",
"475 549 OFFCURVE",
"384 549 CURVE SMOOTH",
"316 549 OFFCURVE",
"266 523 OFFCURVE",
"219 470 CURVE",
"208 531 LINE",
"70 531 LINE"
);
}
);
width = 600;
}
);
note = ncaron;
unicode = 0148;
},
{
glyphname = ncommaaccent;
lastChange = "2016-11-29 10:57:25 +0000";
layers = (
{
layerId = "0CCF1926-DDDC-4230-AEA6-FDA11143D54E";
paths = (
{
closed = 1;
nodes = (
"70 0 LINE",
"228 0 LINE",
"228 371 LINE",
"258 409 OFFCURVE",
"287 432 OFFCURVE",
"321 432 CURVE SMOOTH",
"360 432 OFFCURVE",
"372 410 OFFCURVE",
"372 344 CURVE SMOOTH",
"372 0 LINE",
"530 0 LINE",
"530 390 LINE SMOOTH",
"530 491 OFFCURVE",
"475 549 OFFCURVE",
"384 549 CURVE SMOOTH",
"316 549 OFFCURVE",
"266 523 OFFCURVE",
"219 470 CURVE",
"208 531 LINE",
"70 531 LINE"
);
},
{
closed = 1;
nodes = (
"255 -65 OFFCURVE",
"222 -100 OFFCURVE",
"222 -143 CURVE SMOOTH",
"222 -171 OFFCURVE",
"236 -192 OFFCURVE",
"254 -207 CURVE",
"227 -322 LINE",
"307 -322 LINE",
"356 -225 LINE SMOOTH",
"371 -195 OFFCURVE",
"379 -166 OFFCURVE",
"379 -143 CURVE SMOOTH",
"379 -98 OFFCURVE",
"346 -65 OFFCURVE",
"301 -65 CURVE SMOOTH"
);
}
);
width = 600;
}
);
note = ncommaaccent;
unicode = 0146;
},
{
glyphname = eng;
lastChange = "2016-11-29 10:57:25 +0000";
layers = (
{
layerId = "0CCF1926-DDDC-4230-AEA6-FDA11143D54E";
paths = (
{
closed = 1;
nodes = (
"530 390 LINE SMOOTH",
"530 491 OFFCURVE",
"478 549 OFFCURVE",
"384 549 CURVE SMOOTH",
"321 549 OFFCURVE",
"266 523 OFFCURVE",
"219 470 CURVE",
"208 531 LINE",
"70 531 LINE",
"70 0 LINE",
"228 0 LINE",
"228 367 LINE",
"258 407 OFFCURVE",
"287 432 OFFCURVE",
"321 432 CURVE SMOOTH",
"361 432 OFFCURVE",
"372 410 OFFCURVE",
"372 344 CURVE SMOOTH",
"372 50 LINE SMOOTH",
"372 -46 OFFCURVE",
"332 -76 OFFCURVE",
"263 -106 CURVE",
"319 -222 LINE",
"446 -170 OFFCURVE",
"530 -114 OFFCURVE",
"530 60 CURVE SMOOTH"
);
}
);
width = 600;
}
);
note = eng;
unicode = 014B;
},
{
glyphname = ntilde;
lastChange = "2016-11-29 10:57:25 +0000";
layers = (
{
layerId = "0CCF1926-DDDC-4230-AEA6-FDA11143D54E";
paths = (
{
closed = 1;
nodes = (
"417 635 OFFCURVE",
"461 685 OFFCURVE",
"487 752 CURVE",
"408 790 LINE",
"391 761 OFFCURVE",
"378 747 OFFCURVE",
"356 747 CURVE SMOOTH",
"322 747 OFFCURVE",
"301 792 OFFCURVE",
"240 792 CURVE SMOOTH",
"179 792 OFFCURVE",
"136 738 OFFCURVE",
"111 674 CURVE",
"190 636 LINE",
"206 665 OFFCURVE",
"218 680 OFFCURVE",
"243 680 CURVE SMOOTH",
"276 680 OFFCURVE",
"299 635 OFFCURVE",
"357 635 CURVE SMOOTH"
);
},
{
closed = 1;
nodes = (
"70 0 LINE",
"228 0 LINE",
"228 371 LINE",
"258 409 OFFCURVE",
"287 432 OFFCURVE",
"321 432 CURVE SMOOTH",
"360 432 OFFCURVE",
"372 410 OFFCURVE",
"372 344 CURVE SMOOTH",
"372 0 LINE",
"530 0 LINE",
"530 390 LINE SMOOTH",
"530 491 OFFCURVE",
"475 549 OFFCURVE",
"384 549 CURVE SMOOTH",
"316 549 OFFCURVE",
"266 523 OFFCURVE",
"219 470 CURVE",
"208 531 LINE",
"70 531 LINE"
);
}
);
width = 600;
}
);
note = ntilde;
unicode = 00F1;
},
{
glyphname = o;
lastChange = "2016-11-29 10:57:25 +0000";
layers = (
{
layerId = "0CCF1926-DDDC-4230-AEA6-FDA11143D54E";
paths = (
{
closed = 1;
nodes = (
"137 549 OFFCURVE",
"42 435 OFFCURVE",
"42 266 CURVE SMOOTH",
"42 87 OFFCURVE",
"137 -17 OFFCURVE",
"300 -17 CURVE SMOOTH",
"463 -17 OFFCURVE",
"558 89 OFFCURVE",
"558 267 CURVE SMOOTH",
"558 437 OFFCURVE",
"464 549 OFFCURVE",
"300 549 CURVE SMOOTH"
);
},
{
closed = 1;
nodes = (
"365 432 OFFCURVE",
"395 382 OFFCURVE",
"395 267 CURVE SMOOTH",
"395 148 OFFCURVE",
"365 99 OFFCURVE",
"300 99 CURVE SMOOTH",
"235 99 OFFCURVE",
"205 148 OFFCURVE",
"205 266 CURVE SMOOTH",
"205 382 OFFCURVE",
"235 432 OFFCURVE",
"300 432 CURVE SMOOTH"
);
}
);
width = 600;
}
);
note = o;
unicode = 006F;
},
{
glyphname = oacute;
lastChange = "2016-11-29 10:57:25 +0000";
layers = (
{
layerId = "0CCF1926-DDDC-4230-AEA6-FDA11143D54E";
paths = (
{
closed = 1;
nodes = (
"376 835 LINE",
"158 703 LINE",
"201 622 LINE",
"438 716 LINE"
);
},
{
closed = 1;
nodes = (
"137 549 OFFCURVE",
"42 435 OFFCURVE",
"42 266 CURVE SMOOTH",
"42 87 OFFCURVE",
"137 -17 OFFCURVE",
"300 -17 CURVE SMOOTH",
"463 -17 OFFCURVE",
"558 89 OFFCURVE",
"558 267 CURVE SMOOTH",
"558 437 OFFCURVE",
"464 549 OFFCURVE",
"300 549 CURVE SMOOTH"
);
},
{
closed = 1;
nodes = (
"365 432 OFFCURVE",
"395 382 OFFCURVE",
"395 267 CURVE SMOOTH",
"395 148 OFFCURVE",
"365 99 OFFCURVE",
"300 99 CURVE SMOOTH",
"235 99 OFFCURVE",
"205 148 OFFCURVE",
"205 266 CURVE SMOOTH",
"205 382 OFFCURVE",
"235 432 OFFCURVE",
"300 432 CURVE SMOOTH"
);
}
);
width = 600;
}
);
note = oacute;
unicode = 00F3;
},
{
glyphname = obreve;
lastChange = "2016-11-29 10:57:25 +0000";
layers = (
{
layerId = "0CCF1926-DDDC-4230-AEA6-FDA11143D54E";
paths = (
{
closed = 1;
nodes = (
"409 612 OFFCURVE",
"464 698 OFFCURVE",
"472 786 CURVE",
"385 801 LINE",
"373 753 OFFCURVE",
"346 720 OFFCURVE",
"300 720 CURVE SMOOTH",
"254 720 OFFCURVE",
"227 753 OFFCURVE",
"215 801 CURVE",
"128 786 LINE",
"136 698 OFFCURVE",
"189 612 OFFCURVE",
"300 612 CURVE SMOOTH"
);
},
{
closed = 1;
nodes = (
"137 549 OFFCURVE",
"42 435 OFFCURVE",
"42 266 CURVE SMOOTH",
"42 87 OFFCURVE",
"137 -17 OFFCURVE",
"300 -17 CURVE SMOOTH",
"463 -17 OFFCURVE",
"558 89 OFFCURVE",
"558 267 CURVE SMOOTH",
"558 437 OFFCURVE",
"464 549 OFFCURVE",
"300 549 CURVE SMOOTH"
);
},
{
closed = 1;
nodes = (
"365 432 OFFCURVE",
"395 382 OFFCURVE",
"395 267 CURVE SMOOTH",
"395 148 OFFCURVE",
"365 99 OFFCURVE",
"300 99 CURVE SMOOTH",
"235 99 OFFCURVE",
"205 148 OFFCURVE",
"205 266 CURVE SMOOTH",
"205 382 OFFCURVE",
"235 432 OFFCURVE",
"300 432 CURVE SMOOTH"
);
}
);
width = 600;
}
);
note = obreve;
unicode = 014F;
},
{
glyphname = ocircumflex;
lastChange = "2016-11-29 10:57:25 +0000";
layers = (
{
layerId = "0CCF1926-DDDC-4230-AEA6-FDA11143D54E";
paths = (
{
closed = 1;
nodes = (
"167 611 LINE",
"300 705 LINE",
"433 611 LINE",
"489 676 LINE",
"348 815 LINE",
"252 815 LINE",
"110 676 LINE"
);
},
{
closed = 1;
nodes = (
"137 549 OFFCURVE",
"42 435 OFFCURVE",
"42 266 CURVE SMOOTH",
"42 87 OFFCURVE",
"137 -17 OFFCURVE",
"300 -17 CURVE SMOOTH",
"463 -17 OFFCURVE",
"558 89 OFFCURVE",
"558 267 CURVE SMOOTH",
"558 437 OFFCURVE",
"464 549 OFFCURVE",
"300 549 CURVE SMOOTH"
);
},
{
closed = 1;
nodes = (
"365 432 OFFCURVE",
"395 382 OFFCURVE",
"395 267 CURVE SMOOTH",
"395 148 OFFCURVE",
"365 99 OFFCURVE",
"300 99 CURVE SMOOTH",
"235 99 OFFCURVE",
"205 148 OFFCURVE",
"205 266 CURVE SMOOTH",
"205 382 OFFCURVE",
"235 432 OFFCURVE",
"300 432 CURVE SMOOTH"
);
}
);
width = 600;
}
);
note = ocircumflex;
unicode = 00F4;
},
{
glyphname = odieresis;
lastChange = "2016-11-29 10:57:25 +0000";
layers = (
{
layerId = "0CCF1926-DDDC-4230-AEA6-FDA11143D54E";
paths = (
{
closed = 1;
nodes = (
"231 637 OFFCURVE",
"267 672 OFFCURVE",
"267 718 CURVE SMOOTH",
"267 762 OFFCURVE",
"231 797 OFFCURVE",
"184 797 CURVE SMOOTH",
"139 797 OFFCURVE",
"102 762 OFFCURVE",
"102 718 CURVE SMOOTH",
"102 672 OFFCURVE",
"139 637 OFFCURVE",
"184 637 CURVE SMOOTH"
);
},
{
closed = 1;
nodes = (
"462 637 OFFCURVE",
"498 672 OFFCURVE",
"498 718 CURVE SMOOTH",
"498 762 OFFCURVE",
"462 797 OFFCURVE",
"416 797 CURVE SMOOTH",
"371 797 OFFCURVE",
"333 762 OFFCURVE",
"333 718 CURVE SMOOTH",
"333 672 OFFCURVE",
"371 637 OFFCURVE",
"416 637 CURVE SMOOTH"
);
},
{
closed = 1;
nodes = (
"137 549 OFFCURVE",
"42 435 OFFCURVE",
"42 266 CURVE SMOOTH",
"42 87 OFFCURVE",
"137 -17 OFFCURVE",
"300 -17 CURVE SMOOTH",
"463 -17 OFFCURVE",
"558 89 OFFCURVE",
"558 267 CURVE SMOOTH",
"558 437 OFFCURVE",
"464 549 OFFCURVE",
"300 549 CURVE SMOOTH"
);
},
{
closed = 1;
nodes = (
"365 432 OFFCURVE",
"395 382 OFFCURVE",
"395 267 CURVE SMOOTH",
"395 148 OFFCURVE",
"365 99 OFFCURVE",
"300 99 CURVE SMOOTH",
"235 99 OFFCURVE",
"205 148 OFFCURVE",
"205 266 CURVE SMOOTH",
"205 382 OFFCURVE",
"235 432 OFFCURVE",
"300 432 CURVE SMOOTH"
);
}
);
width = 600;
}
);
note = odieresis;
unicode = 00F6;
},
{
glyphname = ograve;
lastChange = "2016-11-29 10:57:25 +0000";
layers = (
{
layerId = "0CCF1926-DDDC-4230-AEA6-FDA11143D54E";
paths = (
{
closed = 1;
nodes = (
"399 622 LINE",
"442 702 LINE",
"224 835 LINE",
"163 716 LINE"
);
},
{
closed = 1;
nodes = (
"137 549 OFFCURVE",
"42 435 OFFCURVE",
"42 266 CURVE SMOOTH",
"42 87 OFFCURVE",
"137 -17 OFFCURVE",
"300 -17 CURVE SMOOTH",
"463 -17 OFFCURVE",
"558 89 OFFCURVE",
"558 267 CURVE SMOOTH",
"558 437 OFFCURVE",
"464 549 OFFCURVE",
"300 549 CURVE SMOOTH"
);
},
{
closed = 1;
nodes = (
"365 432 OFFCURVE",
"395 382 OFFCURVE",
"395 267 CURVE SMOOTH",
"395 148 OFFCURVE",
"365 99 OFFCURVE",
"300 99 CURVE SMOOTH",
"235 99 OFFCURVE",
"205 148 OFFCURVE",
"205 266 CURVE SMOOTH",
"205 382 OFFCURVE",
"235 432 OFFCURVE",
"300 432 CURVE SMOOTH"
);
}
);
width = 600;
}
);
note = ograve;
unicode = 00F2;
},
{
glyphname = ohungarumlaut;
lastChange = "2016-11-29 10:57:25 +0000";
layers = (
{
layerId = "0CCF1926-DDDC-4230-AEA6-FDA11143D54E";
paths = (
{
closed = 1;
nodes = (
"160 661 LINE",
"242 625 LINE",
"366 808 LINE",
"259 857 LINE"
);
},
{
closed = 1;
nodes = (
"323 663 LINE",
"404 624 LINE",
"529 806 LINE",
"423 857 LINE"
);
},
{
closed = 1;
nodes = (
"137 549 OFFCURVE",
"42 435 OFFCURVE",
"42 266 CURVE SMOOTH",
"42 87 OFFCURVE",
"137 -17 OFFCURVE",
"300 -17 CURVE SMOOTH",
"463 -17 OFFCURVE",
"558 89 OFFCURVE",
"558 267 CURVE SMOOTH",
"558 437 OFFCURVE",
"464 549 OFFCURVE",
"300 549 CURVE SMOOTH"
);
},
{
closed = 1;
nodes = (
"365 432 OFFCURVE",
"395 382 OFFCURVE",
"395 267 CURVE SMOOTH",
"395 148 OFFCURVE",
"365 99 OFFCURVE",
"300 99 CURVE SMOOTH",
"235 99 OFFCURVE",
"205 148 OFFCURVE",
"205 266 CURVE SMOOTH",
"205 382 OFFCURVE",
"235 432 OFFCURVE",
"300 432 CURVE SMOOTH"
);
}
);
width = 600;
}
);
note = ohungarumlaut;
unicode = 0151;
},
{
glyphname = omacron;
lastChange = "2016-11-29 10:57:25 +0000";
layers = (
{
layerId = "0CCF1926-DDDC-4230-AEA6-FDA11143D54E";
paths = (
{
closed = 1;
nodes = (
"453 658 LINE",
"453 767 LINE",
"147 767 LINE",
"147 658 LINE"
);
},
{
closed = 1;
nodes = (
"137 549 OFFCURVE",
"42 435 OFFCURVE",
"42 266 CURVE SMOOTH",
"42 87 OFFCURVE",
"137 -17 OFFCURVE",
"300 -17 CURVE SMOOTH",
"463 -17 OFFCURVE",
"558 89 OFFCURVE",
"558 267 CURVE SMOOTH",
"558 437 OFFCURVE",
"464 549 OFFCURVE",
"300 549 CURVE SMOOTH"
);
},
{
closed = 1;
nodes = (
"365 432 OFFCURVE",
"395 382 OFFCURVE",
"395 267 CURVE SMOOTH",
"395 148 OFFCURVE",
"365 99 OFFCURVE",
"300 99 CURVE SMOOTH",
"235 99 OFFCURVE",
"205 148 OFFCURVE",
"205 266 CURVE SMOOTH",
"205 382 OFFCURVE",
"235 432 OFFCURVE",
"300 432 CURVE SMOOTH"
);
}
);
width = 600;
}
);
note = omacron;
unicode = 014D;
},
{
glyphname = oslash;
lastChange = "2016-11-29 10:57:25 +0000";
layers = (
{
layerId = "0CCF1926-DDDC-4230-AEA6-FDA11143D54E";
paths = (
{
closed = 1;
nodes = (
"484 629 LINE",
"370 663 LINE",
"331 547 LINE",
"321 548 OFFCURVE",
"311 549 OFFCURVE",
"300 549 CURVE SMOOTH",
"137 549 OFFCURVE",
"42 435 OFFCURVE",
"42 266 CURVE SMOOTH",
"42 149 OFFCURVE",
"83 64 OFFCURVE",
"156 19 CURVE",
"116 -103 LINE",
"232 -137 LINE",
"269 -16 LINE",
"279 -16 OFFCURVE",
"289 -17 OFFCURVE",
"300 -17 CURVE SMOOTH",
"463 -17 OFFCURVE",
"558 89 OFFCURVE",
"558 267 CURVE SMOOTH",
"558 378 OFFCURVE",
"518 464 OFFCURVE",
"445 510 CURVE"
);
},
{
closed = 1;
nodes = (
"306 435 OFFCURVE",
"311 435 OFFCURVE",
"316 434 CURVE",
"220 135 LINE",
"207 162 OFFCURVE",
"202 203 OFFCURVE",
"202 266 CURVE SMOOTH",
"202 385 OFFCURVE",
"232 435 OFFCURVE",
"300 435 CURVE SMOOTH"
);
},
{
closed = 1;
nodes = (
"286 96 LINE",
"381 393 LINE",
"394 367 OFFCURVE",
"398 326 OFFCURVE",
"398 267 CURVE SMOOTH",
"398 145 OFFCURVE",
"368 96 OFFCURVE",
"300 96 CURVE SMOOTH"
);
}
);
width = 600;
}
);
note = oslash;
unicode = 00F8;
},
{
glyphname = oslashacute;
lastChange = "2016-11-29 10:57:25 +0000";
layers = (
{
layerId = "0CCF1926-DDDC-4230-AEA6-FDA11143D54E";
paths = (
{
closed = 1;
nodes = (
"438 716 LINE",
"376 835 LINE",
"158 703 LINE",
"201 622 LINE"
);
},
{
closed = 1;
nodes = (
"484 629 LINE",
"370 663 LINE",
"331 547 LINE",
"321 548 OFFCURVE",
"311 549 OFFCURVE",
"300 549 CURVE SMOOTH",
"137 549 OFFCURVE",
"42 435 OFFCURVE",
"42 266 CURVE SMOOTH",
"42 149 OFFCURVE",
"83 64 OFFCURVE",
"156 19 CURVE",
"116 -103 LINE",
"232 -137 LINE",
"269 -16 LINE",
"279 -16 OFFCURVE",
"289 -17 OFFCURVE",
"300 -17 CURVE SMOOTH",
"463 -17 OFFCURVE",
"558 89 OFFCURVE",
"558 267 CURVE SMOOTH",
"558 378 OFFCURVE",
"518 464 OFFCURVE",
"445 510 CURVE"
);
},
{
closed = 1;
nodes = (
"306 435 OFFCURVE",
"311 435 OFFCURVE",
"316 434 CURVE",
"220 135 LINE",
"207 162 OFFCURVE",
"202 203 OFFCURVE",
"202 266 CURVE SMOOTH",
"202 385 OFFCURVE",
"232 435 OFFCURVE",
"300 435 CURVE SMOOTH"
);
},
{
closed = 1;
nodes = (
"286 96 LINE",
"381 393 LINE",
"394 367 OFFCURVE",
"398 326 OFFCURVE",
"398 267 CURVE SMOOTH",
"398 145 OFFCURVE",
"368 96 OFFCURVE",
"300 96 CURVE SMOOTH"
);
}
);
width = 600;
}
);
note = oslashacute;
unicode = 01FF;
},
{
glyphname = otilde;
lastChange = "2016-11-29 10:57:25 +0000";
layers = (
{
layerId = "0CCF1926-DDDC-4230-AEA6-FDA11143D54E";
paths = (
{
closed = 1;
nodes = (
"416 635 OFFCURVE",
"460 685 OFFCURVE",
"486 752 CURVE",
"407 790 LINE",
"390 761 OFFCURVE",
"377 747 OFFCURVE",
"355 747 CURVE SMOOTH",
"321 747 OFFCURVE",
"300 792 OFFCURVE",
"239 792 CURVE SMOOTH",
"178 792 OFFCURVE",
"135 738 OFFCURVE",
"110 674 CURVE",
"189 636 LINE",
"205 665 OFFCURVE",
"217 680 OFFCURVE",
"242 680 CURVE SMOOTH",
"275 680 OFFCURVE",
"298 635 OFFCURVE",
"356 635 CURVE SMOOTH"
);
},
{
closed = 1;
nodes = (
"137 549 OFFCURVE",
"42 435 OFFCURVE",
"42 266 CURVE SMOOTH",
"42 87 OFFCURVE",
"137 -17 OFFCURVE",
"300 -17 CURVE SMOOTH",
"463 -17 OFFCURVE",
"558 89 OFFCURVE",
"558 267 CURVE SMOOTH",
"558 437 OFFCURVE",
"464 549 OFFCURVE",
"300 549 CURVE SMOOTH"
);
},
{
closed = 1;
nodes = (
"365 432 OFFCURVE",
"395 382 OFFCURVE",
"395 267 CURVE SMOOTH",
"395 148 OFFCURVE",
"365 99 OFFCURVE",
"300 99 CURVE SMOOTH",
"235 99 OFFCURVE",
"205 148 OFFCURVE",
"205 266 CURVE SMOOTH",
"205 382 OFFCURVE",
"235 432 OFFCURVE",
"300 432 CURVE SMOOTH"
);
}
);
width = 600;
}
);
note = otilde;
unicode = 00F5;
},
{
glyphname = oe;
lastChange = "2016-11-29 10:57:25 +0000";
layers = (
{
layerId = "0CCF1926-DDDC-4230-AEA6-FDA11143D54E";
paths = (
{
closed = 1;
nodes = (
"372 549 OFFCURVE",
"331 514 OFFCURVE",
"305 465 CURVE",
"281 517 OFFCURVE",
"244 549 OFFCURVE",
"176 549 CURVE SMOOTH",
"48 549 OFFCURVE",
"-8 435 OFFCURVE",
"-8 266 CURVE SMOOTH",
"-8 87 OFFCURVE",
"49 -17 OFFCURVE",
"176 -17 CURVE SMOOTH",
"241 -17 OFFCURVE",
"278 13 OFFCURVE",
"302 63 CURVE",
"334 12 OFFCURVE",
"384 -17 OFFCURVE",
"454 -17 CURVE SMOOTH",
"519 -17 OFFCURVE",
"567 7 OFFCURVE",
"606 40 CURVE",
"546 119 LINE",
"517 98 OFFCURVE",
"493 87 OFFCURVE",
"462 87 CURVE SMOOTH",
"407 87 OFFCURVE",
"377 130 OFFCURVE",
"369 226 CURVE",
"603 226 LINE",
"605 242 OFFCURVE",
"606 258 OFFCURVE",
"606 276 CURVE SMOOTH",
"606 452 OFFCURVE",
"561 549 OFFCURVE",
"438 549 CURVE SMOOTH"
);
},
{
closed = 1;
nodes = (
"476 450 OFFCURVE",
"486 406 OFFCURVE",
"487 312 CURVE",
"368 312 LINE",
"373 416 OFFCURVE",
"393 450 OFFCURVE",
"432 450 CURVE SMOOTH"
);
},
{
closed = 1;
nodes = (
"224 432 OFFCURVE",
"241 387 OFFCURVE",
"241 267 CURVE SMOOTH",
"241 138 OFFCURVE",
"225 99 OFFCURVE",
"182 99 CURVE SMOOTH",
"138 99 OFFCURVE",
"123 140 OFFCURVE",
"123 266 CURVE SMOOTH",
"123 387 OFFCURVE",
"138 432 OFFCURVE",
"182 432 CURVE SMOOTH"
);
}
);
width = 600;
}
);
note = oe;
unicode = 0153;
},
{
glyphname = p;
lastChange = "2016-11-29 10:57:25 +0000";
layers = (
{
layerId = "0CCF1926-DDDC-4230-AEA6-FDA11143D54E";
paths = (
{
closed = 1;
nodes = (
"314 549 OFFCURVE",
"260 526 OFFCURVE",
"217 472 CURVE",
"210 531 LINE",
"70 531 LINE",
"70 -222 LINE",
"228 -205 LINE",
"228 38 LINE",
"260 2 OFFCURVE",
"302 -17 OFFCURVE",
"354 -17 CURVE SMOOTH",
"483 -17 OFFCURVE",
"558 103 OFFCURVE",
"558 267 CURVE SMOOTH",
"558 440 OFFCURVE",
"502 549 OFFCURVE",
"364 549 CURVE SMOOTH"
);
},
{
closed = 1;
nodes = (
"365 432 OFFCURVE",
"395 397 OFFCURVE",
"395 265 CURVE SMOOTH",
"395 145 OFFCURVE",
"362 99 OFFCURVE",
"306 99 CURVE SMOOTH",
"273 99 OFFCURVE",
"250 114 OFFCURVE",
"228 146 CURVE",
"228 370 LINE",
"251 409 OFFCURVE",
"278 432 OFFCURVE",
"315 432 CURVE SMOOTH"
);
}
);
width = 600;
}
);
note = p;
unicode = 0070;
},
{
glyphname = thorn;
lastChange = "2016-11-29 10:57:25 +0000";
layers = (
{
layerId = "0CCF1926-DDDC-4230-AEA6-FDA11143D54E";
paths = (
{
closed = 1;
nodes = (
"228 759 LINE",
"70 742 LINE",
"70 -222 LINE",
"228 -205 LINE",
"228 38 LINE",
"260 2 OFFCURVE",
"302 -17 OFFCURVE",
"354 -17 CURVE SMOOTH",
"483 -17 OFFCURVE",
"558 103 OFFCURVE",
"558 267 CURVE SMOOTH",
"558 440 OFFCURVE",
"502 549 OFFCURVE",
"364 549 CURVE SMOOTH",
"308 549 OFFCURVE",
"260 523 OFFCURVE",
"228 478 CURVE"
);
},
{
closed = 1;
nodes = (
"365 432 OFFCURVE",
"395 397 OFFCURVE",
"395 265 CURVE SMOOTH",
"395 145 OFFCURVE",
"362 99 OFFCURVE",
"306 99 CURVE SMOOTH",
"273 99 OFFCURVE",
"250 114 OFFCURVE",
"228 146 CURVE",
"228 370 LINE",
"251 409 OFFCURVE",
"278 432 OFFCURVE",
"315 432 CURVE SMOOTH"
);
}
);
width = 600;
}
);
note = thorn;
unicode = 00FE;
},
{
glyphname = q;
lastChange = "2016-11-29 10:57:25 +0000";
layers = (
{
layerId = "0CCF1926-DDDC-4230-AEA6-FDA11143D54E";
paths = (
{
closed = 1;
nodes = (
"119 549 OFFCURVE",
"42 431 OFFCURVE",
"42 267 CURVE SMOOTH",
"42 95 OFFCURVE",
"100 -17 OFFCURVE",
"236 -17 CURVE SMOOTH",
"299 -17 OFFCURVE",
"341 8 OFFCURVE",
"372 45 CURVE",
"372 -205 LINE",
"530 -222 LINE",
"530 531 LINE",
"392 531 LINE",
"385 488 LINE",
"353 528 OFFCURVE",
"307 549 OFFCURVE",
"255 549 CURVE SMOOTH"
);
},
{
closed = 1;
nodes = (
"328 433 OFFCURVE",
"351 417 OFFCURVE",
"372 389 CURVE",
"372 160 LINE",
"350 122 OFFCURVE",
"323 100 OFFCURVE",
"286 100 CURVE SMOOTH",
"237 100 OFFCURVE",
"205 135 OFFCURVE",
"205 266 CURVE SMOOTH",
"205 385 OFFCURVE",
"238 433 OFFCURVE",
"296 433 CURVE SMOOTH"
);
}
);
width = 600;
}
);
note = q;
unicode = 0071;
},
{
glyphname = r;
lastChange = "2016-11-29 10:57:25 +0000";
layers = (
{
layerId = "0CCF1926-DDDC-4230-AEA6-FDA11143D54E";
paths = (
{
closed = 1;
nodes = (
"390 547 OFFCURVE",
"332 503 OFFCURVE",
"294 412 CURVE",
"266 531 LINE",
"75 531 LINE",
"75 426 LINE",
"145 426 LINE",
"145 106 LINE",
"75 106 LINE",
"75 0 LINE",
"408 0 LINE",
"408 106 LINE",
"303 106 LINE",
"303 258 LINE",
"328 337 OFFCURVE",
"374 396 OFFCURVE",
"434 407 CURVE",
"434 309 LINE",
"534 309 LINE",
"563 531 LINE",
"538 541 OFFCURVE",
"511 547 OFFCURVE",
"475 547 CURVE SMOOTH"
);
}
);
width = 600;
}
);
note = r;
unicode = 0072;
},
{
glyphname = racute;
lastChange = "2016-11-29 10:57:25 +0000";
layers = (
{
layerId = "0CCF1926-DDDC-4230-AEA6-FDA11143D54E";
paths = (
{
closed = 1;
nodes = (
"463 716 LINE",
"401 835 LINE",
"183 703 LINE",
"226 622 LINE"
);
},
{
closed = 1;
nodes = (
"390 547 OFFCURVE",
"332 503 OFFCURVE",
"294 412 CURVE",
"266 531 LINE",
"75 531 LINE",
"75 426 LINE",
"145 426 LINE",
"145 106 LINE",
"75 106 LINE",
"75 0 LINE",
"408 0 LINE",
"408 106 LINE",
"303 106 LINE",
"303 258 LINE",
"328 337 OFFCURVE",
"374 396 OFFCURVE",
"434 407 CURVE",
"434 309 LINE",
"534 309 LINE",
"563 531 LINE",
"538 541 OFFCURVE",
"511 547 OFFCURVE",
"475 547 CURVE SMOOTH"
);
}
);
width = 600;
}
);
note = racute;
unicode = 0155;
},
{
glyphname = rcaron;
lastChange = "2016-11-29 10:57:25 +0000";
layers = (
{
layerId = "0CCF1926-DDDC-4230-AEA6-FDA11143D54E";
paths = (
{
closed = 1;
nodes = (
"373 611 LINE",
"514 751 LINE",
"458 815 LINE",
"325 721 LINE",
"192 815 LINE",
"135 751 LINE",
"277 611 LINE"
);
},
{
closed = 1;
nodes = (
"390 547 OFFCURVE",
"332 503 OFFCURVE",
"294 412 CURVE",
"266 531 LINE",
"75 531 LINE",
"75 426 LINE",
"145 426 LINE",
"145 106 LINE",
"75 106 LINE",
"75 0 LINE",
"408 0 LINE",
"408 106 LINE",
"303 106 LINE",
"303 258 LINE",
"328 337 OFFCURVE",
"374 396 OFFCURVE",
"434 407 CURVE",
"434 309 LINE",
"534 309 LINE",
"563 531 LINE",
"538 541 OFFCURVE",
"511 547 OFFCURVE",
"475 547 CURVE SMOOTH"
);
}
);
width = 600;
}
);
note = rcaron;
unicode = 0159;
},
{
glyphname = rcommaaccent;
lastChange = "2016-11-29 10:57:25 +0000";
layers = (
{
layerId = "0CCF1926-DDDC-4230-AEA6-FDA11143D54E";
paths = (
{
closed = 1;
nodes = (
"390 547 OFFCURVE",
"332 503 OFFCURVE",
"294 412 CURVE",
"266 531 LINE",
"75 531 LINE",
"75 426 LINE",
"145 426 LINE",
"145 106 LINE",
"75 106 LINE",
"75 0 LINE",
"408 0 LINE",
"408 106 LINE",
"303 106 LINE",
"303 258 LINE",
"328 337 OFFCURVE",
"374 396 OFFCURVE",
"434 407 CURVE",
"434 309 LINE",
"534 309 LINE",
"563 531 LINE",
"538 541 OFFCURVE",
"511 547 OFFCURVE",
"475 547 CURVE SMOOTH"
);
},
{
closed = 1;
nodes = (
"178 -65 OFFCURVE",
"145 -100 OFFCURVE",
"145 -143 CURVE SMOOTH",
"145 -171 OFFCURVE",
"159 -192 OFFCURVE",
"177 -207 CURVE",
"150 -322 LINE",
"230 -322 LINE",
"279 -225 LINE SMOOTH",
"294 -195 OFFCURVE",
"302 -166 OFFCURVE",
"302 -143 CURVE SMOOTH",
"302 -98 OFFCURVE",
"269 -65 OFFCURVE",
"224 -65 CURVE SMOOTH"
);
}
);
width = 600;
}
);
note = rcommaaccent;
unicode = 0157;
},
{
glyphname = s;
lastChange = "2016-11-29 10:57:25 +0000";
layers = (
{
layerId = "0CCF1926-DDDC-4230-AEA6-FDA11143D54E";
paths = (
{
closed = 1;
nodes = (
"221 96 OFFCURVE",
"168 120 OFFCURVE",
"127 152 CURVE",
"48 63 LINE",
"102 15 OFFCURVE",
"181 -17 OFFCURVE",
"284 -17 CURVE SMOOTH",
"419 -17 OFFCURVE",
"535 42 OFFCURVE",
"535 159 CURVE SMOOTH",
"535 263 OFFCURVE",
"468 298 OFFCURVE",
"365 327 CURVE SMOOTH",
"261 356 OFFCURVE",
"240 368 OFFCURVE",
"240 395 CURVE SMOOTH",
"240 423 OFFCURVE",
"264 436 OFFCURVE",
"316 436 CURVE SMOOTH",
"367 436 OFFCURVE",
"419 418 OFFCURVE",
"463 391 CURVE",
"526 484 LINE",
"474 522 OFFCURVE",
"406 549 OFFCURVE",
"311 549 CURVE SMOOTH",
"162 549 OFFCURVE",
"81 479 OFFCURVE",
"81 384 CURVE SMOOTH",
"81 290 OFFCURVE",
"148 248 OFFCURVE",
"245 222 CURVE SMOOTH",
"351 193 OFFCURVE",
"371 180 OFFCURVE",
"371 146 CURVE SMOOTH",
"371 112 OFFCURVE",
"336 96 OFFCURVE",
"283 96 CURVE SMOOTH"
);
}
);
width = 600;
}
);
note = s;
unicode = 0073;
},
{
glyphname = sacute;
lastChange = "2016-11-29 10:57:25 +0000";
layers = (
{
layerId = "0CCF1926-DDDC-4230-AEA6-FDA11143D54E";
paths = (
{
closed = 1;
nodes = (
"389 835 LINE",
"171 703 LINE",
"214 622 LINE",
"451 716 LINE"
);
},
{
closed = 1;
nodes = (
"221 96 OFFCURVE",
"168 120 OFFCURVE",
"127 152 CURVE",
"48 63 LINE",
"102 15 OFFCURVE",
"181 -17 OFFCURVE",
"284 -17 CURVE SMOOTH",
"419 -17 OFFCURVE",
"535 42 OFFCURVE",
"535 159 CURVE SMOOTH",
"535 263 OFFCURVE",
"468 298 OFFCURVE",
"365 327 CURVE SMOOTH",
"261 356 OFFCURVE",
"240 368 OFFCURVE",
"240 395 CURVE SMOOTH",
"240 423 OFFCURVE",
"264 436 OFFCURVE",
"316 436 CURVE SMOOTH",
"367 436 OFFCURVE",
"419 418 OFFCURVE",
"463 391 CURVE",
"526 484 LINE",
"474 522 OFFCURVE",
"406 549 OFFCURVE",
"311 549 CURVE SMOOTH",
"162 549 OFFCURVE",
"81 479 OFFCURVE",
"81 384 CURVE SMOOTH",
"81 290 OFFCURVE",
"148 248 OFFCURVE",
"245 222 CURVE SMOOTH",
"351 193 OFFCURVE",
"371 180 OFFCURVE",
"371 146 CURVE SMOOTH",
"371 112 OFFCURVE",
"336 96 OFFCURVE",
"283 96 CURVE SMOOTH"
);
}
);
width = 600;
}
);
note = sacute;
unicode = 015B;
},
{
glyphname = scaron;
lastChange = "2016-11-29 10:57:25 +0000";
layers = (
{
layerId = "0CCF1926-DDDC-4230-AEA6-FDA11143D54E";
paths = (
{
closed = 1;
nodes = (
"446 815 LINE",
"313 721 LINE",
"180 815 LINE",
"123 751 LINE",
"265 611 LINE",
"361 611 LINE",
"502 751 LINE"
);
},
{
closed = 1;
nodes = (
"221 96 OFFCURVE",
"168 120 OFFCURVE",
"127 152 CURVE",
"48 63 LINE",
"102 15 OFFCURVE",
"181 -17 OFFCURVE",
"284 -17 CURVE SMOOTH",
"419 -17 OFFCURVE",
"535 42 OFFCURVE",
"535 159 CURVE SMOOTH",
"535 263 OFFCURVE",
"468 298 OFFCURVE",
"365 327 CURVE SMOOTH",
"261 356 OFFCURVE",
"240 368 OFFCURVE",
"240 395 CURVE SMOOTH",
"240 423 OFFCURVE",
"264 436 OFFCURVE",
"316 436 CURVE SMOOTH",
"367 436 OFFCURVE",
"419 418 OFFCURVE",
"463 391 CURVE",
"526 484 LINE",
"474 522 OFFCURVE",
"406 549 OFFCURVE",
"311 549 CURVE SMOOTH",
"162 549 OFFCURVE",
"81 479 OFFCURVE",
"81 384 CURVE SMOOTH",
"81 290 OFFCURVE",
"148 248 OFFCURVE",
"245 222 CURVE SMOOTH",
"351 193 OFFCURVE",
"371 180 OFFCURVE",
"371 146 CURVE SMOOTH",
"371 112 OFFCURVE",
"336 96 OFFCURVE",
"283 96 CURVE SMOOTH"
);
}
);
width = 600;
}
);
note = scaron;
unicode = 0161;
},
{
glyphname = scedilla;
lastChange = "2016-11-29 10:57:25 +0000";
layers = (
{
layerId = "0CCF1926-DDDC-4230-AEA6-FDA11143D54E";
paths = (
{
closed = 1;
nodes = (
"535 263 OFFCURVE",
"468 298 OFFCURVE",
"365 327 CURVE SMOOTH",
"261 356 OFFCURVE",
"240 368 OFFCURVE",
"240 395 CURVE SMOOTH",
"240 423 OFFCURVE",
"264 436 OFFCURVE",
"316 436 CURVE SMOOTH",
"367 436 OFFCURVE",
"419 418 OFFCURVE",
"463 391 CURVE",
"526 484 LINE",
"474 522 OFFCURVE",
"406 549 OFFCURVE",
"311 549 CURVE SMOOTH",
"162 549 OFFCURVE",
"81 479 OFFCURVE",
"81 384 CURVE SMOOTH",
"81 290 OFFCURVE",
"148 248 OFFCURVE",
"245 222 CURVE SMOOTH",
"351 193 OFFCURVE",
"371 180 OFFCURVE",
"371 146 CURVE SMOOTH",
"371 112 OFFCURVE",
"336 96 OFFCURVE",
"283 96 CURVE SMOOTH",
"221 96 OFFCURVE",
"168 120 OFFCURVE",
"127 152 CURVE",
"48 63 LINE",
"94 22 OFFCURVE",
"158 -7 OFFCURVE",
"240 -15 CURVE",
"229 -112 LINE",
"290 -112 OFFCURVE",
"321 -119 OFFCURVE",
"321 -145 CURVE SMOOTH",
"321 -168 OFFCURVE",
"300 -176 OFFCURVE",
"268 -176 CURVE SMOOTH",
"246 -176 OFFCURVE",
"224 -169 OFFCURVE",
"204 -159 CURVE",
"168 -232 LINE",
"195 -248 OFFCURVE",
"237 -262 OFFCURVE",
"285 -262 CURVE SMOOTH",
"375 -262 OFFCURVE",
"434 -215 OFFCURVE",
"434 -147 CURVE SMOOTH",
"434 -93 OFFCURVE",
"401 -56 OFFCURVE",
"331 -48 CURVE",
"331 -14 LINE",
"445 -2 OFFCURVE",
"535 56 OFFCURVE",
"535 159 CURVE SMOOTH"
);
}
);
width = 600;
}
);
note = scedilla;
unicode = 015F;
},
{
glyphname = scircumflex;
lastChange = "2016-11-29 10:57:25 +0000";
layers = (
{
layerId = "0CCF1926-DDDC-4230-AEA6-FDA11143D54E";
paths = (
{
closed = 1;
nodes = (
"180 611 LINE",
"313 705 LINE",
"446 611 LINE",
"502 676 LINE",
"361 815 LINE",
"265 815 LINE",
"123 676 LINE"
);
},
{
closed = 1;
nodes = (
"221 96 OFFCURVE",
"168 120 OFFCURVE",
"127 152 CURVE",
"48 63 LINE",
"102 15 OFFCURVE",
"181 -17 OFFCURVE",
"284 -17 CURVE SMOOTH",
"419 -17 OFFCURVE",
"535 42 OFFCURVE",
"535 159 CURVE SMOOTH",
"535 263 OFFCURVE",
"468 298 OFFCURVE",
"365 327 CURVE SMOOTH",
"261 356 OFFCURVE",
"240 368 OFFCURVE",
"240 395 CURVE SMOOTH",
"240 423 OFFCURVE",
"264 436 OFFCURVE",
"316 436 CURVE SMOOTH",
"367 436 OFFCURVE",
"419 418 OFFCURVE",
"463 391 CURVE",
"526 484 LINE",
"474 522 OFFCURVE",
"406 549 OFFCURVE",
"311 549 CURVE SMOOTH",
"162 549 OFFCURVE",
"81 479 OFFCURVE",
"81 384 CURVE SMOOTH",
"81 290 OFFCURVE",
"148 248 OFFCURVE",
"245 222 CURVE SMOOTH",
"351 193 OFFCURVE",
"371 180 OFFCURVE",
"371 146 CURVE SMOOTH",
"371 112 OFFCURVE",
"336 96 OFFCURVE",
"283 96 CURVE SMOOTH"
);
}
);
width = 600;
}
);
note = scircumflex;
unicode = 015D;
},
{
glyphname = scommaaccent;
lastChange = "2016-11-29 10:57:25 +0000";
layers = (
{
layerId = "0CCF1926-DDDC-4230-AEA6-FDA11143D54E";
paths = (
{
closed = 1;
nodes = (
"221 96 OFFCURVE",
"168 120 OFFCURVE",
"127 152 CURVE",
"48 63 LINE",
"102 15 OFFCURVE",
"181 -17 OFFCURVE",
"284 -17 CURVE SMOOTH",
"419 -17 OFFCURVE",
"535 42 OFFCURVE",
"535 159 CURVE SMOOTH",
"535 263 OFFCURVE",
"468 298 OFFCURVE",
"365 327 CURVE SMOOTH",
"261 356 OFFCURVE",
"240 368 OFFCURVE",
"240 395 CURVE SMOOTH",
"240 423 OFFCURVE",
"264 436 OFFCURVE",
"316 436 CURVE SMOOTH",
"367 436 OFFCURVE",
"419 418 OFFCURVE",
"463 391 CURVE",
"526 484 LINE",
"474 522 OFFCURVE",
"406 549 OFFCURVE",
"311 549 CURVE SMOOTH",
"162 549 OFFCURVE",
"81 479 OFFCURVE",
"81 384 CURVE SMOOTH",
"81 290 OFFCURVE",
"148 248 OFFCURVE",
"245 222 CURVE SMOOTH",
"351 193 OFFCURVE",
"371 180 OFFCURVE",
"371 146 CURVE SMOOTH",
"371 112 OFFCURVE",
"336 96 OFFCURVE",
"283 96 CURVE SMOOTH"
);
},
{
closed = 1;
nodes = (
"255 -65 OFFCURVE",
"222 -100 OFFCURVE",
"222 -143 CURVE SMOOTH",
"222 -171 OFFCURVE",
"236 -192 OFFCURVE",
"254 -207 CURVE",
"227 -322 LINE",
"307 -322 LINE",
"356 -225 LINE SMOOTH",
"371 -195 OFFCURVE",
"379 -166 OFFCURVE",
"379 -143 CURVE SMOOTH",
"379 -98 OFFCURVE",
"346 -65 OFFCURVE",
"301 -65 CURVE SMOOTH"
);
}
);
width = 600;
}
);
note = scommaaccent;
unicode = 0219;
},
{
glyphname = germandbls;
lastChange = "2016-11-29 10:57:25 +0000";
layers = (
{
layerId = "0CCF1926-DDDC-4230-AEA6-FDA11143D54E";
paths = (
{
closed = 1;
nodes = (
"139 759 OFFCURVE",
"60 674 OFFCURVE",
"60 531 CURVE SMOOTH",
"60 0 LINE",
"218 0 LINE",
"218 538 LINE SMOOTH",
"218 612 OFFCURVE",
"238 648 OFFCURVE",
"287 648 CURVE SMOOTH",
"320 648 OFFCURVE",
"340 629 OFFCURVE",
"340 596 CURVE SMOOTH",
"340 524 OFFCURVE",
"265 495 OFFCURVE",
"265 404 CURVE SMOOTH",
"265 273 OFFCURVE",
"415 276 OFFCURVE",
"415 167 CURVE SMOOTH",
"415 127 OFFCURVE",
"395 105 OFFCURVE",
"356 105 CURVE SMOOTH",
"338 105 OFFCURVE",
"320 110 OFFCURVE",
"299 120 CURVE",
"249 14 LINE",
"284 -5 OFFCURVE",
"325 -17 OFFCURVE",
"376 -17 CURVE SMOOTH",
"491 -17 OFFCURVE",
"577 50 OFFCURVE",
"577 168 CURVE SMOOTH",
"577 342 OFFCURVE",
"403 356 OFFCURVE",
"403 432 CURVE SMOOTH",
"403 493 OFFCURVE",
"493 512 OFFCURVE",
"493 603 CURVE SMOOTH",
"493 690 OFFCURVE",
"420 759 OFFCURVE",
"291 759 CURVE SMOOTH"
);
}
);
width = 600;
}
);
note = germandbls;
unicode = 00DF;
},
{
glyphname = t;
lastChange = "2016-11-29 10:57:25 +0000";
layers = (
{
layerId = "0CCF1926-DDDC-4230-AEA6-FDA11143D54E";
paths = (
{
closed = 1;
nodes = (
"496 132 LINE",
"471 118 OFFCURVE",
"440 108 OFFCURVE",
"403 108 CURVE SMOOTH",
"350 108 OFFCURVE",
"327 128 OFFCURVE",
"327 181 CURVE SMOOTH",
"327 422 LINE",
"482 422 LINE",
"498 531 LINE",
"327 531 LINE",
"327 665 LINE",
"169 646 LINE",
"169 531 LINE",
"58 531 LINE",
"58 422 LINE",
"169 422 LINE",
"169 181 LINE SMOOTH",
"169 59 OFFCURVE",
"235 -17 OFFCURVE",
"374 -17 CURVE SMOOTH",
"447 -17 OFFCURVE",
"506 4 OFFCURVE",
"548 31 CURVE"
);
}
);
width = 600;
}
);
note = t;
unicode = 0074;
},
{
glyphname = tbar;
lastChange = "2016-11-29 10:57:25 +0000";
layers = (
{
layerId = "0CCF1926-DDDC-4230-AEA6-FDA11143D54E";
paths = (
{
closed = 1;
nodes = (
"496 132 LINE",
"471 118 OFFCURVE",
"440 108 OFFCURVE",
"403 108 CURVE SMOOTH",
"350 108 OFFCURVE",
"327 128 OFFCURVE",
"327 181 CURVE SMOOTH",
"327 262 LINE",
"481 262 LINE",
"481 361 LINE",
"327 361 LINE",
"327 422 LINE",
"482 422 LINE",
"498 531 LINE",
"327 531 LINE",
"327 665 LINE",
"169 646 LINE",
"169 531 LINE",
"58 531 LINE",
"58 422 LINE",
"169 422 LINE",
"169 361 LINE",
"70 361 LINE",
"70 262 LINE",
"169 262 LINE",
"169 181 LINE SMOOTH",
"169 59 OFFCURVE",
"235 -17 OFFCURVE",
"374 -17 CURVE SMOOTH",
"447 -17 OFFCURVE",
"506 4 OFFCURVE",
"548 31 CURVE"
);
}
);
width = 600;
}
);
note = tbar;
unicode = 0167;
},
{
glyphname = tcaron;
lastChange = "2016-11-29 10:57:25 +0000";
layers = (
{
layerId = "0CCF1926-DDDC-4230-AEA6-FDA11143D54E";
paths = (
{
closed = 1;
nodes = (
"397 832 LINE",
"360 599 LINE",
"458 583 LINE",
"536 815 LINE"
);
},
{
closed = 1;
nodes = (
"496 132 LINE",
"471 118 OFFCURVE",
"440 108 OFFCURVE",
"403 108 CURVE SMOOTH",
"350 108 OFFCURVE",
"327 128 OFFCURVE",
"327 181 CURVE SMOOTH",
"327 422 LINE",
"482 422 LINE",
"498 531 LINE",
"327 531 LINE",
"327 665 LINE",
"169 646 LINE",
"169 531 LINE",
"58 531 LINE",
"58 422 LINE",
"169 422 LINE",
"169 181 LINE SMOOTH",
"169 59 OFFCURVE",
"235 -17 OFFCURVE",
"374 -17 CURVE SMOOTH",
"447 -17 OFFCURVE",
"506 4 OFFCURVE",
"548 31 CURVE"
);
}
);
width = 600;
}
);
note = tcaron;
unicode = 0165;
},
